<svg width="171" height="57" viewBox="0 0 171 57" fill="none" xmlns="http://www.w3.org/2000/svg">
<g id="Group">
<g id="Group_2">
<g id="Group_3">
<path id="Vector" d="M157.383 4.79209e-05H13.6251C13.101 4.79209e-05 12.5833 4.7921e-05 12.0607 0.00289792C11.6232 0.00574792 11.1892 0.0140272 10.7475 0.0209954C9.78796 0.0322555 8.83066 0.116437 7.88394 0.272807C6.93855 0.432582 6.02277 0.733803 5.16758 1.16628C4.31344 1.60242 3.53298 2.16914 2.85453 2.84587C2.17251 3.52071 1.604 4.30072 1.17085 5.15593C0.736507 6.00943 0.435331 6.92404 0.277726 7.86816C0.118623 8.81109 0.0330076 9.76489 0.0216494 10.721C0.00838823 11.1579 0.00698781 11.5963 0 12.0332V44.9711C0.00698781 45.4135 0.00838823 45.8422 0.0216494 46.2848C0.0330111 47.2408 0.118626 48.1946 0.277726 49.1375C0.434896 50.0821 0.73609 50.9973 1.17085 51.8511C1.6038 52.7035 2.1724 53.4804 2.85453 54.1515C3.53041 54.8312 4.31137 55.3983 5.16758 55.8311C6.02276 56.2648 6.93844 56.5678 7.88394 56.73C8.83082 56.8851 9.78802 56.9693 10.7475 56.982C11.1892 56.9916 11.6232 56.9972 12.0607 56.9972C12.5833 57.0001 13.1011 57 13.6251 57H157.383C157.896 57 158.418 57.0001 158.932 56.9972C159.367 56.9972 159.814 56.9916 160.249 56.982C161.207 56.97 162.162 56.8858 163.107 56.73C164.056 56.5666 164.975 56.2637 165.834 55.8311C166.689 55.3981 167.47 54.831 168.145 54.1515C168.825 53.4778 169.395 52.7015 169.833 51.8511C170.265 50.9967 170.563 50.0816 170.718 49.1375C170.877 48.1945 170.966 47.2409 170.983 46.2848C170.989 45.8422 170.989 45.4135 170.989 44.9711C171 44.4534 171 43.9385 171 43.4124V13.589C171 13.0672 171 12.5495 170.989 12.0332C170.989 11.5963 170.989 11.1579 170.983 10.721C170.966 9.76475 170.877 8.81116 170.718 7.8681C170.563 6.92452 170.264 6.00999 169.833 5.15587C168.951 3.4417 167.553 2.04638 165.834 1.16615C164.975 0.734731 164.056 0.433591 163.107 0.272679C162.162 0.115619 161.207 0.031409 160.249 0.0207959C159.814 0.0138419 159.367 0.00549142 158.932 0.00271267C158.418 -0.000137329 157.896 -0.000137329 157.383 -0.000137329V4.79209e-05Z" fill="black"/>
<path id="Vector_2" d="M12.0672 55.7532C11.6318 55.7532 11.2069 55.7476 10.775 55.7379C9.88011 55.7263 8.98733 55.6486 8.10397 55.5055C7.28028 55.364 6.48235 55.1009 5.73649 54.7247C4.99747 54.3517 4.32343 53.8626 3.74018 53.2761C3.14848 52.6965 2.65587 52.0243 2.28187 51.2861C1.90374 50.5431 1.64205 49.7466 1.50592 48.9246C1.35891 48.0412 1.27937 47.148 1.26799 46.2527C1.25893 45.9521 1.24707 44.9515 1.24707 44.9515V12.0332C1.24707 12.0332 1.2597 11.048 1.26806 10.7585C1.27896 9.86456 1.35804 8.97276 1.5046 8.09079C1.64099 7.26646 1.90288 6.46774 2.28121 5.7223C2.65384 4.9846 3.14372 4.31188 3.73185 3.73022C4.31931 3.14304 4.99551 2.65139 5.73579 2.2732C6.47993 1.89826 7.27636 1.63697 8.09838 1.49809C8.98465 1.35354 9.88052 1.2754 10.7785 1.2643L12.0679 1.2469H158.924L160.229 1.265C161.119 1.27554 162.007 1.35299 162.885 1.49669C163.715 1.63732 164.52 1.90043 165.272 2.27738C166.755 3.03953 167.962 4.24534 168.723 5.72578C169.096 6.46608 169.354 7.25827 169.488 8.07549C169.637 8.96469 169.72 9.86351 169.737 10.7648C169.741 11.1683 169.741 11.6018 169.741 12.0332C169.752 12.5676 169.752 13.0762 169.752 13.589V43.4124C169.752 43.9301 169.752 44.4352 169.741 44.9445C169.741 45.4079 169.741 45.8324 169.735 46.2694C169.719 47.1545 169.637 48.0373 169.491 48.9106C169.358 49.7386 169.097 50.5412 168.719 51.2903C168.343 52.0205 167.853 52.6869 167.268 53.265C166.684 53.8546 166.009 54.3466 165.268 54.722C164.518 55.1011 163.714 55.3652 162.885 55.5055C162.001 55.6494 161.109 55.7271 160.214 55.7379C159.795 55.7476 159.357 55.7532 158.931 55.7532L157.382 55.756L12.0672 55.7532Z" fill="black"/>
</g>
<g id="&#60;Group&#62;">
<g id="&#60;Group&#62;_2">
<g id="&#60;Group&#62;_3">
<path id="&#60;Path&#62;" d="M35.7214 28.3423C35.7374 27.1054 36.0668 25.8927 36.6791 24.817C37.2914 23.7412 38.1666 22.8374 39.2233 22.1895C38.552 21.2335 37.6664 20.4467 36.6369 19.8917C35.6073 19.3367 34.4622 19.0287 33.2924 18.9922C30.797 18.731 28.3778 20.4812 27.1062 20.4812C25.81 20.4812 23.8522 19.0181 21.7439 19.0614C20.3803 19.1053 19.0513 19.5007 17.8864 20.2092C16.7216 20.9176 15.7606 21.9148 15.0971 23.1037C12.2233 28.0655 14.3669 35.3578 17.1199 39.3686C18.4973 41.3326 20.107 43.5264 22.2134 43.4486C24.2746 43.3633 25.0444 42.1379 27.5324 42.1379C29.9974 42.1379 30.7196 43.4486 32.8687 43.3991C35.0805 43.3633 36.4739 41.4264 37.803 39.4439C38.7927 38.0445 39.5542 36.4978 40.0594 34.8612C38.7744 34.3193 37.6779 33.4121 36.9065 32.2529C36.135 31.0936 35.7229 29.7336 35.7214 28.3423Z" fill="white"/>
<path id="&#60;Path&#62;_2" d="M31.6633 16.3544C32.8692 14.9108 33.4633 13.0553 33.3195 11.1819C31.4771 11.3748 29.7752 12.2529 28.553 13.6411C27.9554 14.3193 27.4977 15.1083 27.2061 15.963C26.9145 16.8177 26.7946 17.7213 26.8534 18.6222C27.7749 18.6317 28.6866 18.4325 29.5198 18.0397C30.3529 17.6469 31.0858 17.0707 31.6633 16.3544Z" fill="white"/>
</g>
</g>
<g id="Group_4">
<path id="Vector_3" d="M60.4497 38.674H53.6856L52.0613 43.4569H49.1963L55.6031 25.7613H58.5797L64.9865 43.4569H62.0726L60.4497 38.674ZM54.3862 36.4669H59.7478L57.1047 28.7045H57.0307L54.3862 36.4669Z" fill="white"/>
<path id="Vector_4" d="M78.8237 37.0068C78.8237 41.016 76.6719 43.5918 73.4245 43.5918C72.6019 43.6347 71.7838 43.4458 71.0639 43.0466C70.344 42.6474 69.7513 42.0541 69.3538 41.3346H69.2924V47.7249H66.6367V30.5553H69.2072V32.7012H69.2561C69.6719 31.9851 70.2745 31.3949 70.9999 30.9933C71.7253 30.5917 72.5463 30.3936 73.3756 30.4203C76.6593 30.4203 78.8237 33.0087 78.8237 37.0068ZM76.0941 37.0068C76.0941 34.3948 74.7405 32.6775 72.6751 32.6775C70.646 32.6775 69.2812 34.4309 69.2812 37.0068C69.2812 39.6063 70.646 41.3472 72.6751 41.3472C74.7405 41.3472 76.0941 39.6425 76.0941 37.0068H76.0941Z" fill="white"/>
<path id="Vector_5" d="M93.0637 37.0068C93.0637 41.016 90.9111 43.5918 87.6638 43.5918C86.8412 43.6347 86.0231 43.4458 85.3031 43.0466C84.5832 42.6474 83.9906 42.0541 83.5931 41.3346H83.5316V47.7249H80.876V30.5553H83.4465V32.7012H83.4953C83.9111 31.9851 84.5138 31.3949 85.2392 30.9933C85.9646 30.5917 86.7856 30.3936 87.6149 30.4203C90.8986 30.4203 93.0637 33.0087 93.0637 37.0068ZM90.3334 37.0068C90.3334 34.3948 88.9797 32.6775 86.9144 32.6775C84.8853 32.6775 83.5205 34.4309 83.5205 37.0068C83.5205 39.6063 84.8853 41.3472 86.9144 41.3472C88.9797 41.3472 90.3334 39.6425 90.3334 37.0068Z" fill="white"/>
<path id="Vector_6" d="M102.472 38.5264C102.669 40.2812 104.379 41.4334 106.715 41.4334C108.953 41.4334 110.564 40.2812 110.564 38.6989C110.564 37.3254 109.592 36.503 107.293 35.9394L104.993 35.3869C101.734 34.602 100.221 33.0824 100.221 30.6165C100.221 27.5633 102.89 25.4662 106.677 25.4662C110.428 25.4662 112.999 27.5633 113.085 30.6165H110.404C110.244 28.8505 108.78 27.7846 106.641 27.7846C104.501 27.7846 103.038 28.8631 103.038 30.4328C103.038 31.6839 103.973 32.42 106.26 32.9836L108.215 33.4623C111.856 34.3209 113.367 35.7793 113.367 38.3677C113.367 41.6783 110.724 43.7518 106.518 43.7518C102.583 43.7518 99.9256 41.727 99.7539 38.5263L102.472 38.5264Z" fill="white"/>
<path id="Vector_7" d="M119.102 27.5021V30.5553H121.562V32.6524H119.102V39.7649C119.102 40.8698 119.595 41.3847 120.676 41.3847C120.968 41.3796 121.26 41.3592 121.55 41.3234V43.4081C121.064 43.4987 120.569 43.5397 120.075 43.5305C117.455 43.5305 116.434 42.5494 116.434 40.0473V32.6524H114.553V30.5553H116.434V27.5021H119.102Z" fill="white"/>
<path id="Vector_8" d="M122.986 37.0068C122.986 32.9475 125.384 30.3967 129.122 30.3967C132.873 30.3967 135.26 32.9475 135.26 37.0068C135.26 41.0773 132.886 43.6169 129.122 43.6169C125.36 43.6169 122.986 41.0773 122.986 37.0068ZM132.554 37.0068C132.554 34.2222 131.274 32.5788 129.122 32.5788C126.97 32.5788 125.691 34.2348 125.691 37.0068C125.691 39.8026 126.97 41.4335 129.122 41.4335C131.274 41.4335 132.554 39.8026 132.554 37.0068H132.554Z" fill="white"/>
<path id="Vector_9" d="M137.448 30.5553H139.981V32.7512H140.043C140.214 32.0654 140.617 31.4593 141.184 31.0348C141.75 30.6103 142.446 30.3933 143.155 30.4203C143.461 30.4192 143.766 30.4524 144.064 30.5191V32.9962C143.678 32.8784 143.275 32.8244 142.871 32.8361C142.485 32.8205 142.101 32.8884 141.744 33.035C141.387 33.1816 141.066 33.4035 140.803 33.6855C140.54 33.9675 140.341 34.3029 140.221 34.6686C140.1 35.0344 140.06 35.4218 140.104 35.8044V43.4568H137.448L137.448 30.5553Z" fill="white"/>
<path id="Vector_10" d="M156.308 39.6676C155.951 42.0096 153.664 43.6169 150.737 43.6169C146.974 43.6169 144.638 41.1023 144.638 37.0681C144.638 33.0213 146.986 30.3967 150.626 30.3967C154.205 30.3967 156.456 32.8487 156.456 36.7605V37.6678H147.318V37.8279C147.276 38.3027 147.336 38.781 147.493 39.2311C147.651 39.6812 147.902 40.0927 148.232 40.4383C148.561 40.7839 148.96 41.0558 149.403 41.2358C149.845 41.4157 150.321 41.4998 150.799 41.4822C151.426 41.5409 152.056 41.3959 152.595 41.069C153.133 40.742 153.551 40.2505 153.787 39.6676L156.308 39.6676ZM147.331 35.817H153.799C153.823 35.3901 153.758 34.9629 153.609 34.5621C153.459 34.1614 153.228 33.7958 152.93 33.4884C152.632 33.1809 152.273 32.9382 151.877 32.7754C151.48 32.6127 151.055 32.5334 150.626 32.5426C150.193 32.54 149.765 32.6229 149.364 32.7864C148.964 32.9499 148.601 33.1908 148.294 33.4952C147.988 33.7997 147.745 34.1616 147.58 34.5601C147.414 34.9586 147.33 35.3858 147.331 35.817V35.817Z" fill="white"/>
</g>
</g>
</g>
<g id="&#60;Group&#62;_4">
<g id="Group_5">
<path id="Vector_11" d="M54.0525 12.4416C54.6093 12.4018 55.168 12.4857 55.6883 12.6872C56.2086 12.8887 56.6776 13.2029 57.0614 13.6071C57.4452 14.0113 57.7343 14.4953 57.9078 15.0244C58.0813 15.5535 58.1348 16.1143 58.0646 16.6665C58.0646 19.3829 56.5924 20.9444 54.0525 20.9444H50.9727V12.4416H54.0525ZM52.297 19.7419H53.9046C54.3025 19.7656 54.7006 19.7006 55.07 19.5515C55.4395 19.4024 55.771 19.1731 56.0403 18.8801C56.3097 18.5872 56.5101 18.2381 56.6271 17.8581C56.7441 17.4782 56.7747 17.077 56.7166 16.6839C56.7704 16.2922 56.7368 15.8935 56.618 15.5164C56.4992 15.1392 56.2983 14.793 56.0295 14.5024C55.7608 14.2118 55.4309 13.984 55.0635 13.8355C54.6962 13.687 54.3004 13.6213 53.9046 13.6432H52.297V19.7419Z" fill="white"/>
<path id="Vector_12" d="M59.5603 17.7331C59.5198 17.3114 59.5682 16.886 59.7023 16.484C59.8364 16.0821 60.0532 15.7125 60.3389 15.399C60.6247 15.0856 60.9729 14.8351 61.3614 14.6637C61.7499 14.4923 62.17 14.4038 62.5948 14.4038C63.0196 14.4038 63.4397 14.4923 63.8282 14.6637C64.2167 14.8351 64.5649 15.0856 64.8506 15.399C65.1363 15.7125 65.3532 16.0821 65.4873 16.484C65.6214 16.886 65.6698 17.3114 65.6293 17.7331C65.6705 18.1552 65.6228 18.5813 65.489 18.9839C65.3553 19.3865 65.1385 19.7567 64.8527 20.0708C64.567 20.3849 64.2184 20.6359 63.8296 20.8077C63.4407 20.9794 63.0201 21.0681 62.5948 21.0681C62.1695 21.0681 61.7489 20.9794 61.36 20.8077C60.9712 20.6359 60.6226 20.3849 60.3368 20.0708C60.051 19.7567 59.8343 19.3865 59.7006 18.9839C59.5668 18.5813 59.519 18.1552 59.5603 17.7331ZM64.3231 17.7331C64.3231 16.3422 63.6965 15.5288 62.5969 15.5288C61.493 15.5288 60.8721 16.3422 60.8721 17.7331C60.8721 19.1352 61.4931 19.9423 62.5969 19.9423C63.6966 19.9423 64.3231 19.1296 64.3231 17.7331H64.3231Z" fill="white"/>
<path id="Vector_13" d="M73.6974 20.9442H72.3801L71.0502 16.2183H70.9497L69.6254 20.9442H68.3206L66.5469 14.5275H67.8349L68.9876 19.4238H69.0825L70.4055 14.5275H71.6237L72.9467 19.4238H73.0472L74.1943 14.5275H75.4642L73.6974 20.9442Z" fill="white"/>
<path id="Vector_14" d="M76.9561 14.5275H78.1785V15.5469H78.2734C78.4344 15.1808 78.7059 14.8739 79.0501 14.669C79.3943 14.464 79.7941 14.3713 80.1936 14.4037C80.5067 14.3802 80.8211 14.4273 81.1135 14.5414C81.4058 14.6556 81.6687 14.8338 81.8826 15.063C82.0965 15.2922 82.256 15.5665 82.3491 15.8655C82.4423 16.1645 82.4668 16.4806 82.4209 16.7903V20.9442H81.151V17.1083C81.151 16.0771 80.7016 15.5643 79.7624 15.5643C79.5499 15.5544 79.3376 15.5905 79.1404 15.6701C78.9431 15.7496 78.7654 15.8708 78.6194 16.0252C78.4735 16.1797 78.3628 16.3638 78.2949 16.5649C78.227 16.766 78.2034 16.9794 78.226 17.1904V20.9442H76.9561L76.9561 14.5275Z" fill="white"/>
<path id="Vector_15" d="M84.4434 12.0227H85.7133V20.9442H84.4434V12.0227Z" fill="white"/>
<path id="Vector_16" d="M87.4782 17.7331C87.4378 17.3114 87.4862 16.8859 87.6203 16.484C87.7544 16.082 87.9713 15.7124 88.2571 15.3989C88.5428 15.0855 88.8911 14.835 89.2796 14.6636C89.6681 14.4922 90.0882 14.4037 90.5131 14.4037C90.9379 14.4037 91.358 14.4922 91.7465 14.6636C92.135 14.835 92.4833 15.0855 92.7691 15.3989C93.0548 15.7124 93.2717 16.082 93.4058 16.484C93.54 16.8859 93.5884 17.3114 93.5479 17.7331C93.5891 18.1552 93.5413 18.5813 93.4075 18.9839C93.2737 19.3865 93.0569 19.7567 92.7711 20.0708C92.4853 20.3849 92.1367 20.6359 91.7479 20.8076C91.359 20.9794 90.9384 21.0681 90.5131 21.0681C90.0878 21.0681 89.6671 20.9794 89.2783 20.8076C88.8894 20.6359 88.5408 20.3849 88.255 20.0708C87.9692 19.7567 87.7524 19.3865 87.6186 18.9839C87.4849 18.5813 87.437 18.1552 87.4782 17.7331ZM92.241 17.7331C92.241 16.3422 91.6145 15.5288 90.5148 15.5288C89.411 15.5288 88.79 16.3422 88.79 17.7331C88.79 19.1352 89.411 19.9423 90.5148 19.9423C91.6145 19.9423 92.2411 19.1296 92.2411 17.7331H92.241Z" fill="white"/>
<path id="Vector_17" d="M94.8867 19.1296C94.8867 17.9746 95.7491 17.3087 97.28 17.2141L99.023 17.1139V16.5601C99.023 15.8823 98.5737 15.4997 97.7056 15.4997C96.9967 15.4997 96.5055 15.7592 96.3646 16.2129H95.1351C95.2649 15.1107 96.3046 14.4038 97.7643 14.4038C99.3775 14.4038 100.287 15.2046 100.287 16.5601V20.9443H99.0649V20.0425H98.9644C98.7605 20.366 98.4741 20.6297 98.1345 20.8067C97.795 20.9837 97.4144 21.0677 97.0316 21.05C96.7615 21.078 96.4885 21.0493 96.2302 20.9657C95.9718 20.882 95.734 20.7453 95.5319 20.5644C95.3298 20.3835 95.168 20.1623 95.0569 19.9152C94.9457 19.6681 94.8878 19.4005 94.8867 19.1296ZM99.023 18.5814V18.0449L97.4517 18.1451C96.5655 18.2042 96.1636 18.5048 96.1636 19.0705C96.1636 19.648 96.666 19.9841 97.3568 19.9841C97.5592 20.0045 97.7637 19.9841 97.958 19.9242C98.1524 19.8642 98.3327 19.7658 98.4881 19.6349C98.6436 19.5041 98.771 19.3434 98.8629 19.1624C98.9548 18.9813 99.0093 18.7838 99.023 18.5814Z" fill="white"/>
<path id="Vector_18" d="M101.956 17.7331C101.956 15.7056 103.001 14.4211 104.627 14.4211C105.029 14.4026 105.428 14.4987 105.778 14.698C106.127 14.8974 106.412 15.1918 106.6 15.5469H106.695V12.0227H107.965V20.9442H106.748V19.9304H106.648C106.445 20.2831 106.15 20.5738 105.794 20.7712C105.438 20.9685 105.034 21.0649 104.627 21.05C102.99 21.05 101.956 19.7656 101.956 17.7331ZM103.268 17.7331C103.268 19.0941 103.911 19.9131 104.987 19.9131C106.057 19.9131 106.719 19.0823 106.719 17.7387C106.719 16.4014 106.051 15.5587 104.987 15.5587C103.918 15.5587 103.268 16.3833 103.268 17.7331H103.268Z" fill="white"/>
<path id="Vector_19" d="M113.218 17.7331C113.178 17.3114 113.226 16.886 113.36 16.484C113.495 16.0821 113.711 15.7125 113.997 15.399C114.283 15.0856 114.631 14.8351 115.02 14.6637C115.408 14.4923 115.828 14.4038 116.253 14.4038C116.678 14.4038 117.098 14.4923 117.486 14.6637C117.875 14.8351 118.223 15.0856 118.509 15.399C118.795 15.7125 119.011 16.0821 119.145 16.484C119.28 16.886 119.328 17.3114 119.288 17.7331C119.329 18.1552 119.281 18.5813 119.147 18.9839C119.013 19.3865 118.797 19.7567 118.511 20.0708C118.225 20.3849 117.877 20.6359 117.488 20.8077C117.099 20.9794 116.678 21.0681 116.253 21.0681C115.828 21.0681 115.407 20.9794 115.018 20.8077C114.629 20.6359 114.281 20.3849 113.995 20.0708C113.709 19.7567 113.493 19.3865 113.359 18.9839C113.225 18.5813 113.177 18.1552 113.218 17.7331ZM117.981 17.7331C117.981 16.3422 117.355 15.5288 116.255 15.5288C115.151 15.5288 114.53 16.3422 114.53 17.7331C114.53 19.1352 115.151 19.9423 116.255 19.9423C117.355 19.9423 117.981 19.1296 117.981 17.7331Z" fill="white"/>
<path id="Vector_20" d="M120.991 14.5275H122.214V15.5469H122.309C122.47 15.1808 122.741 14.8739 123.085 14.669C123.429 14.464 123.829 14.3713 124.229 14.4037C124.542 14.3802 124.856 14.4273 125.149 14.5414C125.441 14.6556 125.704 14.8338 125.918 15.063C126.132 15.2922 126.291 15.5665 126.384 15.8655C126.477 16.1645 126.502 16.4806 126.456 16.7903V20.9442H125.186V17.1083C125.186 16.0771 124.737 15.5643 123.798 15.5643C123.585 15.5544 123.373 15.5905 123.176 15.6701C122.978 15.7496 122.801 15.8708 122.655 16.0252C122.509 16.1797 122.398 16.3638 122.33 16.5649C122.262 16.766 122.239 16.9794 122.261 17.1904V20.9442H120.991V14.5275Z" fill="white"/>
<path id="Vector_21" d="M133.633 12.93V14.5568H135.027V15.6235H133.633V18.923C133.633 19.5951 133.91 19.8894 134.543 19.8894C134.704 19.8889 134.866 19.8792 135.027 19.8602V20.915C134.799 20.9557 134.568 20.9774 134.336 20.9797C132.924 20.9797 132.361 20.4843 132.361 19.2472V15.6234H131.34V14.5568H132.361V12.93H133.633Z" fill="white"/>
<path id="Vector_22" d="M136.76 12.0227H138.019V15.5587H138.119C138.288 15.1892 138.567 14.8806 138.918 14.6749C139.269 14.4692 139.675 14.3764 140.081 14.4093C140.392 14.3924 140.704 14.4442 140.993 14.5611C141.282 14.678 141.542 14.8571 141.753 15.0856C141.965 15.3141 142.123 15.5863 142.217 15.8829C142.311 16.1795 142.339 16.4931 142.297 16.8014V20.9442H141.026V17.1138C141.026 16.0889 140.547 15.5698 139.65 15.5698C139.432 15.552 139.212 15.5819 139.007 15.6575C138.801 15.7331 138.615 15.8526 138.46 16.0075C138.306 16.1625 138.188 16.3492 138.113 16.5546C138.039 16.76 138.01 16.9791 138.03 17.1966V20.9442H136.76L136.76 12.0227Z" fill="white"/>
<path id="Vector_23" d="M149.702 19.2117C149.53 19.7982 149.156 20.3055 148.646 20.6448C148.136 20.9842 147.523 21.134 146.914 21.0681C146.49 21.0793 146.069 20.9983 145.679 20.8308C145.29 20.6634 144.942 20.4134 144.659 20.0983C144.376 19.7831 144.165 19.4104 144.042 19.006C143.918 18.6015 143.884 18.1751 143.942 17.7561C143.885 17.3359 143.92 16.9085 144.043 16.5029C144.167 16.0972 144.377 15.7228 144.658 15.4049C144.939 15.087 145.286 14.8331 145.674 14.6604C146.062 14.4877 146.483 14.4001 146.908 14.4038C148.699 14.4038 149.779 15.6236 149.779 17.6385V18.0804H145.235V18.1514C145.215 18.3868 145.245 18.6239 145.322 18.8472C145.4 19.0706 145.523 19.2754 145.684 19.4484C145.846 19.6215 146.041 19.7591 146.259 19.8523C146.477 19.9454 146.712 19.9922 146.949 19.9896C147.253 20.026 147.56 19.9714 147.833 19.8329C148.106 19.6944 148.331 19.4782 148.48 19.2117L149.702 19.2117ZM145.235 17.1438H148.485C148.501 16.9285 148.472 16.7122 148.399 16.5088C148.326 16.3054 148.212 16.1195 148.062 15.9629C147.913 15.8064 147.733 15.6827 147.533 15.5998C147.333 15.5169 147.118 15.4766 146.901 15.4816C146.682 15.4788 146.464 15.5199 146.26 15.6025C146.057 15.6851 145.872 15.8074 145.717 15.9623C145.561 16.1173 145.439 16.3016 145.356 16.5045C145.273 16.7074 145.232 16.9248 145.235 17.1438H145.235Z" fill="white"/>
</g>
</g>
</g>
</svg>
