<svg width="221" height="137" viewBox="0 0 221 137" fill="none" xmlns="http://www.w3.org/2000/svg">
<path d="M64.3565 10.0785H66.0203L68.2485 15.5171H68.3364L70.5646 10.0785H72.2284V17.584H70.9238V12.4276H70.8541L68.7799 17.562H67.805L65.7308 12.4167H65.6612V17.584H64.3565V10.0785ZM73.6504 17.584V11.9549H74.977V17.584H73.6504ZM74.3173 11.156C74.1072 11.156 73.9264 11.0863 73.775 10.9471C73.6235 10.8054 73.5477 10.6356 73.5477 10.4377C73.5477 10.2373 73.6235 10.0675 73.775 9.92827C73.9264 9.78657 74.1072 9.71572 74.3173 9.71572C74.5299 9.71572 74.7107 9.78657 74.8597 9.92827C75.0112 10.0675 75.087 10.2373 75.087 10.4377C75.087 10.6356 75.0112 10.8054 74.8597 10.9471C74.7107 11.0863 74.5299 11.156 74.3173 11.156ZM77.6679 10.0785V17.584H76.3412V10.0785H77.6679ZM80.3587 10.0785V17.584H79.0321V10.0785H80.3587ZM81.7229 17.584V11.9549H83.0496V17.584H81.7229ZM82.3899 11.156C82.1798 11.156 81.999 11.0863 81.8475 10.9471C81.6961 10.8054 81.6203 10.6356 81.6203 10.4377C81.6203 10.2373 81.6961 10.0675 81.8475 9.92827C81.999 9.78657 82.1798 9.71572 82.3899 9.71572C82.6025 9.71572 82.7833 9.78657 82.9323 9.92827C83.0838 10.0675 83.1595 10.2373 83.1595 10.4377C83.1595 10.6356 83.0838 10.8054 82.9323 10.9471C82.7833 11.0863 82.6025 11.156 82.3899 11.156ZM86.8692 17.6939C86.3195 17.6939 85.8431 17.573 85.4399 17.3311C85.0368 17.0892 84.7241 16.7509 84.5018 16.316C84.2819 15.8811 84.1719 15.3729 84.1719 14.7914C84.1719 14.2099 84.2819 13.7005 84.5018 13.2632C84.7241 12.8259 85.0368 12.4863 85.4399 12.2444C85.8431 12.0025 86.3195 11.8816 86.8692 11.8816C87.4189 11.8816 87.8953 12.0025 88.2985 12.2444C88.7016 12.4863 89.0131 12.8259 89.233 13.2632C89.4553 13.7005 89.5665 14.2099 89.5665 14.7914C89.5665 15.3729 89.4553 15.8811 89.233 16.316C89.0131 16.7509 88.7016 17.0892 88.2985 17.3311C87.8953 17.573 87.4189 17.6939 86.8692 17.6939ZM86.8765 16.6311C87.1746 16.6311 87.4238 16.5493 87.6241 16.3856C87.8245 16.2195 87.9735 15.9971 88.0712 15.7186C88.1714 15.4401 88.2215 15.1298 88.2215 14.7878C88.2215 14.4433 88.1714 14.1318 88.0712 13.8532C87.9735 13.5723 87.8245 13.3487 87.6241 13.1826C87.4238 13.0165 87.1746 12.9334 86.8765 12.9334C86.5711 12.9334 86.317 13.0165 86.1143 13.1826C85.9139 13.3487 85.7637 13.5723 85.6635 13.8532C85.5658 14.1318 85.5169 14.4433 85.5169 14.7878C85.5169 15.1298 85.5658 15.4401 85.6635 15.7186C85.7637 15.9971 85.9139 16.2195 86.1143 16.3856C86.317 16.5493 86.5711 16.6311 86.8765 16.6311ZM92.0191 14.2857V17.584H90.6925V11.9549H91.9605V12.9114H92.0264C92.1559 12.5962 92.3624 12.3458 92.6458 12.1601C92.9316 11.9744 93.2847 11.8816 93.7049 11.8816C94.0934 11.8816 94.4318 11.9647 94.7201 12.1308C95.0108 12.2969 95.2356 12.5376 95.3944 12.8528C95.5556 13.1679 95.635 13.5503 95.6326 13.9998V17.584H94.3059V14.2051C94.3059 13.8288 94.2082 13.5344 94.0128 13.3219C93.8197 13.1093 93.5522 13.003 93.2102 13.003C92.9781 13.003 92.7716 13.0543 92.5908 13.1569C92.4125 13.2571 92.272 13.4025 92.1694 13.593C92.0692 13.7836 92.0191 14.0145 92.0191 14.2857ZM101.43 13.4428L100.221 13.5747C100.187 13.4526 100.127 13.3377 100.041 13.2302C99.9582 13.1227 99.8459 13.036 99.7041 12.97C99.5624 12.9041 99.389 12.8711 99.1837 12.8711C98.9077 12.8711 98.6756 12.9309 98.4874 13.0507C98.3018 13.1704 98.2101 13.3255 98.2126 13.5161C98.2101 13.6798 98.27 13.8129 98.3922 13.9155C98.5168 14.0182 98.722 14.1024 99.0078 14.1684L99.968 14.3736C100.501 14.4885 100.896 14.6705 101.155 14.9197C101.417 15.1689 101.549 15.4951 101.551 15.8982C101.549 16.2525 101.445 16.5652 101.24 16.8364C101.037 17.1051 100.755 17.3152 100.393 17.4667C100.032 17.6182 99.6162 17.6939 99.1471 17.6939C98.4581 17.6939 97.9035 17.5498 97.4833 17.2615C97.0631 16.9707 96.8126 16.5664 96.732 16.0484L98.0257 15.9238C98.0843 16.1779 98.2089 16.3697 98.3995 16.4992C98.5901 16.6287 98.838 16.6934 99.1434 16.6934C99.4586 16.6934 99.7115 16.6287 99.902 16.4992C100.095 16.3697 100.192 16.2097 100.192 16.0191C100.192 15.8579 100.129 15.7247 100.005 15.6197C99.8825 15.5146 99.6919 15.434 99.433 15.3778L98.4728 15.1762C97.9328 15.0638 97.5334 14.8745 97.2744 14.6082C97.0154 14.3394 96.8872 13.9998 96.8896 13.5894C96.8872 13.2424 96.9812 12.9419 97.1718 12.6878C97.3648 12.4313 97.6323 12.2334 97.9744 12.0942C98.3189 11.9524 98.7159 11.8816 99.1654 11.8816C99.8251 11.8816 100.344 12.0221 100.723 12.303C101.104 12.584 101.34 12.9639 101.43 13.4428ZM107.66 17.6939C107.111 17.6939 106.634 17.573 106.231 17.3311C105.828 17.0892 105.515 16.7509 105.293 16.316C105.073 15.8811 104.963 15.3729 104.963 14.7914C104.963 14.2099 105.073 13.7005 105.293 13.2632C105.515 12.8259 105.828 12.4863 106.231 12.2444C106.634 12.0025 107.111 11.8816 107.66 11.8816C108.21 11.8816 108.687 12.0025 109.09 12.2444C109.493 12.4863 109.804 12.8259 110.024 13.2632C110.246 13.7005 110.358 14.2099 110.358 14.7914C110.358 15.3729 110.246 15.8811 110.024 16.316C109.804 16.7509 109.493 17.0892 109.09 17.3311C108.687 17.573 108.21 17.6939 107.66 17.6939ZM107.668 16.6311C107.966 16.6311 108.215 16.5493 108.415 16.3856C108.616 16.2195 108.765 15.9971 108.862 15.7186C108.963 15.4401 109.013 15.1298 109.013 14.7878C109.013 14.4433 108.963 14.1318 108.862 13.8532C108.765 13.5723 108.616 13.3487 108.415 13.1826C108.215 13.0165 107.966 12.9334 107.668 12.9334C107.362 12.9334 107.108 13.0165 106.905 13.1826C106.705 13.3487 106.555 13.5723 106.455 13.8532C106.357 14.1318 106.308 14.4433 106.308 14.7878C106.308 15.1298 106.357 15.4401 106.455 15.7186C106.555 15.9971 106.705 16.2195 106.905 16.3856C107.108 16.5493 107.362 16.6311 107.668 16.6311ZM114.335 11.9549V12.981H111.007V11.9549H114.335ZM111.839 17.584V11.4235C111.839 11.0448 111.917 10.7296 112.074 10.478C112.232 10.2263 112.445 10.0382 112.711 9.91361C112.978 9.78901 113.273 9.72671 113.598 9.72671C113.828 9.72671 114.032 9.74503 114.21 9.78168C114.389 9.81833 114.521 9.85131 114.606 9.88063L114.342 10.9068C114.286 10.8897 114.215 10.8726 114.13 10.8555C114.044 10.8359 113.949 10.8261 113.844 10.8261C113.597 10.8261 113.422 10.886 113.32 11.0057C113.22 11.123 113.169 11.2916 113.169 11.5115V17.584H111.839ZM117.992 17.584V10.0785H119.352V13.2559H122.83V10.0785H124.193V17.584H122.83V14.3956H119.352V17.584H117.992ZM128.105 17.6939C127.541 17.6939 127.053 17.5767 126.643 17.3421C126.235 17.1051 125.921 16.7704 125.701 16.338C125.481 15.9031 125.371 15.3912 125.371 14.8024C125.371 14.2234 125.481 13.7152 125.701 13.2779C125.923 12.8381 126.234 12.4961 126.632 12.2517C127.03 12.005 127.498 11.8816 128.036 11.8816C128.383 11.8816 128.71 11.9378 129.018 12.0502C129.328 12.1601 129.602 12.3311 129.839 12.5632C130.078 12.7953 130.266 13.091 130.403 13.4501C130.54 13.8068 130.608 14.2319 130.608 14.7255V15.1323H125.994V14.238H129.337C129.334 13.984 129.279 13.758 129.172 13.5601C129.064 13.3597 128.914 13.2021 128.721 13.0873C128.53 12.9725 128.308 12.9151 128.054 12.9151C127.783 12.9151 127.545 12.981 127.339 13.113C127.134 13.2424 126.974 13.4135 126.859 13.626C126.747 13.8361 126.689 14.067 126.687 14.3187V15.0993C126.687 15.4267 126.747 15.7076 126.867 15.9422C126.986 16.1743 127.154 16.3526 127.369 16.4772C127.584 16.5994 127.835 16.6605 128.124 16.6605C128.317 16.6605 128.491 16.6336 128.648 16.5798C128.804 16.5236 128.94 16.4418 129.054 16.3343C129.169 16.2268 129.256 16.0936 129.315 15.9348L130.553 16.0741C130.475 16.4015 130.326 16.6873 130.106 16.9317C129.889 17.1735 129.61 17.3617 129.271 17.496C128.931 17.628 128.543 17.6939 128.105 17.6939ZM133.35 17.6976C132.994 17.6976 132.672 17.6341 132.387 17.507C132.103 17.3775 131.878 17.187 131.712 16.9353C131.549 16.6837 131.467 16.3734 131.467 16.0045C131.467 15.6869 131.525 15.4242 131.643 15.2165C131.76 15.0089 131.92 14.8427 132.123 14.7181C132.326 14.5935 132.554 14.4995 132.808 14.4359C133.065 14.37 133.33 14.3223 133.603 14.293C133.933 14.2588 134.201 14.2283 134.406 14.2014C134.611 14.1721 134.76 14.1281 134.853 14.0695C134.948 14.0084 134.996 13.9143 134.996 13.7873V13.7653C134.996 13.4892 134.914 13.2754 134.75 13.124C134.587 12.9725 134.351 12.8967 134.043 12.8967C133.718 12.8967 133.46 12.9676 133.27 13.1093C133.082 13.251 132.955 13.4184 132.889 13.6114L131.65 13.4355C131.748 13.0934 131.909 12.8076 132.134 12.5779C132.358 12.3458 132.633 12.1723 132.958 12.0575C133.283 11.9402 133.642 11.8816 134.036 11.8816C134.307 11.8816 134.577 11.9134 134.846 11.9769C135.114 12.0404 135.36 12.1455 135.582 12.2921C135.805 12.4362 135.983 12.6329 136.117 12.8821C136.254 13.1313 136.323 13.4428 136.323 13.8166V17.584H135.047V16.8107H135.003C134.923 16.9671 134.809 17.1137 134.662 17.2505C134.518 17.3849 134.336 17.4936 134.116 17.5767C133.899 17.6573 133.644 17.6976 133.35 17.6976ZM133.695 16.7228C133.961 16.7228 134.192 16.6702 134.388 16.5652C134.583 16.4577 134.733 16.316 134.838 16.1401C134.946 15.9642 135 15.7724 135 15.5647V14.9014C134.958 14.9356 134.887 14.9673 134.787 14.9967C134.689 15.026 134.579 15.0516 134.457 15.0736C134.335 15.0956 134.214 15.1151 134.094 15.1323C133.975 15.1494 133.871 15.164 133.783 15.1762C133.585 15.2031 133.408 15.2471 133.251 15.3082C133.095 15.3692 132.972 15.4548 132.881 15.5647C132.791 15.6722 132.746 15.8115 132.746 15.9825C132.746 16.2268 132.835 16.4113 133.013 16.5359C133.192 16.6605 133.419 16.7228 133.695 16.7228ZM137.657 17.584V11.9549H138.943V12.8931H139.002C139.104 12.5681 139.28 12.3177 139.529 12.1418C139.781 11.9634 140.068 11.8743 140.39 11.8743C140.464 11.8743 140.546 11.8779 140.636 11.8853C140.729 11.8901 140.806 11.8987 140.867 11.9109V13.1313C140.811 13.1117 140.722 13.0946 140.599 13.08C140.48 13.0629 140.364 13.0543 140.251 13.0543C140.009 13.0543 139.792 13.1069 139.599 13.2119C139.408 13.3145 139.258 13.4574 139.148 13.6407C139.038 13.8239 138.983 14.0353 138.983 14.2747V17.584H137.657ZM144.009 17.6939C143.444 17.6939 142.957 17.5767 142.546 17.3421C142.138 17.1051 141.824 16.7704 141.604 16.338C141.385 15.9031 141.275 15.3912 141.275 14.8024C141.275 14.2234 141.385 13.7152 141.604 13.2779C141.827 12.8381 142.137 12.4961 142.535 12.2517C142.934 12.005 143.401 11.8816 143.939 11.8816C144.286 11.8816 144.613 11.9378 144.921 12.0502C145.231 12.1601 145.505 12.3311 145.742 12.5632C145.981 12.7953 146.169 13.091 146.306 13.4501C146.443 13.8068 146.512 14.2319 146.512 14.7255V15.1323H141.898V14.238H145.24C145.237 13.984 145.182 13.758 145.075 13.5601C144.967 13.3597 144.817 13.2021 144.624 13.0873C144.434 12.9725 144.211 12.9151 143.957 12.9151C143.686 12.9151 143.448 12.981 143.243 13.113C143.037 13.2424 142.877 13.4135 142.762 13.626C142.65 13.8361 142.593 14.067 142.59 14.3187V15.0993C142.59 15.4267 142.65 15.7076 142.77 15.9422C142.89 16.1743 143.057 16.3526 143.272 16.4772C143.487 16.5994 143.739 16.6605 144.027 16.6605C144.22 16.6605 144.395 16.6336 144.551 16.5798C144.707 16.5236 144.843 16.4418 144.958 16.3343C145.073 16.2268 145.159 16.0936 145.218 15.9348L146.457 16.0741C146.378 16.4015 146.229 16.6873 146.009 16.9317C145.792 17.1735 145.514 17.3617 145.174 17.496C144.834 17.628 144.446 17.6939 144.009 17.6939ZM147.634 17.584V11.9549H148.92V12.8931H148.979C149.081 12.5681 149.257 12.3177 149.507 12.1418C149.758 11.9634 150.045 11.8743 150.368 11.8743C150.441 11.8743 150.523 11.8779 150.613 11.8853C150.706 11.8901 150.783 11.8987 150.844 11.9109V13.1313C150.788 13.1117 150.699 13.0946 150.577 13.08C150.457 13.0629 150.341 13.0543 150.229 13.0543C149.987 13.0543 149.769 13.1069 149.576 13.2119C149.386 13.3145 149.235 13.4574 149.125 13.6407C149.015 13.8239 148.961 14.0353 148.961 14.2747V17.584H147.634ZM156.175 13.4428L154.965 13.5747C154.931 13.4526 154.871 13.3377 154.786 13.2302C154.703 13.1227 154.59 13.036 154.449 12.97C154.307 12.9041 154.133 12.8711 153.928 12.8711C153.652 12.8711 153.42 12.9309 153.232 13.0507C153.046 13.1704 152.955 13.3255 152.957 13.5161C152.955 13.6798 153.014 13.8129 153.137 13.9155C153.261 14.0182 153.466 14.1024 153.752 14.1684L154.712 14.3736C155.245 14.4885 155.641 14.6705 155.9 14.9197C156.161 15.1689 156.293 15.4951 156.296 15.8982C156.293 16.2525 156.189 16.5652 155.984 16.8364C155.781 17.1051 155.499 17.3152 155.138 17.4667C154.776 17.6182 154.361 17.6939 153.891 17.6939C153.203 17.6939 152.648 17.5498 152.228 17.2615C151.807 16.9707 151.557 16.5664 151.476 16.0484L152.77 15.9238C152.829 16.1779 152.953 16.3697 153.144 16.4992C153.334 16.6287 153.582 16.6934 153.888 16.6934C154.203 16.6934 154.456 16.6287 154.646 16.4992C154.839 16.3697 154.936 16.2097 154.936 16.0191C154.936 15.8579 154.874 15.7247 154.749 15.6197C154.627 15.5146 154.436 15.434 154.177 15.3778L153.217 15.1762C152.677 15.0638 152.278 14.8745 152.019 14.6082C151.76 14.3394 151.632 13.9998 151.634 13.5894C151.632 13.2424 151.726 12.9419 151.916 12.6878C152.109 12.4313 152.377 12.2334 152.719 12.0942C153.063 11.9524 153.46 11.8816 153.91 11.8816C154.569 11.8816 155.089 12.0221 155.467 12.303C155.848 12.584 156.084 12.9639 156.175 13.4428Z" fill="#333333"/>
<path d="M94.8256 29.778H93.6377C93.6038 29.5832 93.5413 29.4106 93.4503 29.2603C93.3592 29.1078 93.246 28.9787 93.1104 28.8728C92.9749 28.7669 92.8204 28.6875 92.6467 28.6346C92.4752 28.5795 92.2899 28.552 92.0909 28.552C91.7373 28.552 91.4239 28.6409 91.1508 28.8188C90.8776 28.9945 90.6638 29.2529 90.5092 29.5938C90.3546 29.9326 90.2773 30.3465 90.2773 30.8356C90.2773 31.3332 90.3546 31.7525 90.5092 32.0934C90.6659 32.4322 90.8797 32.6884 91.1508 32.862C91.4239 33.0335 91.7362 33.1193 92.0877 33.1193C92.2825 33.1193 92.4646 33.0939 92.634 33.0431C92.8055 32.9901 92.959 32.9128 93.0946 32.8112C93.2322 32.7096 93.3476 32.5846 93.4408 32.4364C93.536 32.2882 93.6017 32.1188 93.6377 31.9282L94.8256 31.9346C94.7811 32.2437 94.6847 32.5338 94.5365 32.8049C94.3904 33.0759 94.1988 33.3152 93.9616 33.5227C93.7245 33.7281 93.4471 33.889 93.1295 34.0054C92.8119 34.1198 92.4593 34.1769 92.0718 34.1769C91.5001 34.1769 90.9898 34.0446 90.5409 33.7799C90.0921 33.5152 89.7384 33.1331 89.4801 32.6333C89.2218 32.1336 89.0926 31.5344 89.0926 30.8356C89.0926 30.1348 89.2229 29.5356 89.4833 29.038C89.7437 28.5382 90.0984 28.156 90.5473 27.8914C90.9962 27.6267 91.5044 27.4944 92.0718 27.4944C92.4339 27.4944 92.7706 27.5452 93.0819 27.6468C93.3931 27.7484 93.6705 27.8977 93.914 28.0946C94.1575 28.2894 94.3576 28.5287 94.5143 28.8125C94.6731 29.0941 94.7769 29.4159 94.8256 29.778ZM97.0036 31.2295V34.088H95.8538V27.5833H96.9782V30.0384H97.0354C97.1497 29.7632 97.3265 29.5461 97.5658 29.3873C97.8072 29.2264 98.1142 29.1459 98.4868 29.1459C98.8256 29.1459 99.121 29.2169 99.373 29.3587C99.625 29.5006 99.8198 29.7081 99.9574 29.9813C100.097 30.2544 100.167 30.5879 100.167 30.9818V34.088H99.0173V31.1596C99.0173 30.8314 98.9326 30.5763 98.7632 30.3942C98.5959 30.2099 98.3609 30.1178 98.0581 30.1178C97.8548 30.1178 97.6727 30.1623 97.5118 30.2512C97.353 30.3381 97.228 30.464 97.137 30.6292C97.0481 30.7944 97.0036 30.9945 97.0036 31.2295ZM102.743 34.1865C102.434 34.1865 102.155 34.1314 101.908 34.0213C101.662 33.9091 101.467 33.7439 101.323 33.5258C101.181 33.3077 101.11 33.0388 101.11 32.7191C101.11 32.4438 101.161 32.2162 101.263 32.0362C101.364 31.8562 101.503 31.7123 101.679 31.6043C101.855 31.4963 102.053 31.4148 102.273 31.3597C102.495 31.3025 102.725 31.2613 102.962 31.2358C103.248 31.2062 103.48 31.1797 103.658 31.1564C103.835 31.131 103.965 31.0929 104.045 31.0421C104.128 30.9892 104.169 30.9076 104.169 30.7975V30.7785C104.169 30.5392 104.098 30.3539 103.956 30.2227C103.814 30.0914 103.61 30.0257 103.343 30.0257C103.062 30.0257 102.838 30.0871 102.673 30.21C102.51 30.3328 102.4 30.4778 102.343 30.6451L101.269 30.4926C101.354 30.1962 101.494 29.9484 101.688 29.7494C101.883 29.5483 102.121 29.3979 102.403 29.2984C102.685 29.1968 102.996 29.1459 103.337 29.1459C103.572 29.1459 103.806 29.1735 104.039 29.2285C104.272 29.2836 104.484 29.3746 104.677 29.5017C104.87 29.6266 105.024 29.7971 105.141 30.013C105.259 30.229 105.319 30.499 105.319 30.8229V34.088H104.213V33.4178H104.175C104.105 33.5534 104.007 33.6804 103.88 33.799C103.755 33.9154 103.597 34.0097 103.407 34.0817C103.218 34.1515 102.997 34.1865 102.743 34.1865ZM103.041 33.3416C103.272 33.3416 103.472 33.2961 103.642 33.205C103.811 33.1119 103.941 32.9891 104.032 32.8366C104.126 32.6842 104.172 32.5179 104.172 32.338V31.7631C104.136 31.7927 104.075 31.8203 103.988 31.8457C103.903 31.8711 103.808 31.8933 103.702 31.9124C103.596 31.9314 103.491 31.9484 103.388 31.9632C103.284 31.978 103.194 31.9907 103.118 32.0013C102.946 32.0246 102.793 32.0627 102.657 32.1156C102.522 32.1686 102.415 32.2427 102.336 32.338C102.258 32.4311 102.219 32.5518 102.219 32.7C102.219 32.9118 102.296 33.0716 102.451 33.1796C102.605 33.2876 102.802 33.3416 103.041 33.3416ZM106.475 35.9175V29.2095H107.606V30.0162H107.672C107.732 29.8976 107.815 29.7716 107.923 29.6382C108.031 29.5027 108.177 29.3873 108.361 29.292C108.546 29.1946 108.781 29.1459 109.067 29.1459C109.443 29.1459 109.783 29.2423 110.086 29.435C110.391 29.6255 110.632 29.9082 110.81 30.283C110.99 30.6557 111.08 31.113 111.08 31.6551C111.08 32.1908 110.992 32.646 110.817 33.0208C110.641 33.3956 110.402 33.6815 110.099 33.8784C109.796 34.0753 109.453 34.1738 109.07 34.1738C108.79 34.1738 108.558 34.1272 108.374 34.034C108.19 33.9409 108.042 33.8286 107.93 33.6973C107.819 33.564 107.734 33.438 107.672 33.3194H107.625V35.9175H106.475ZM107.602 31.6487C107.602 31.9642 107.647 32.2406 107.736 32.4777C107.827 32.7149 107.957 32.9001 108.126 33.0335C108.298 33.1648 108.505 33.2305 108.749 33.2305C109.003 33.2305 109.216 33.1627 109.387 33.0272C109.559 32.8896 109.688 32.7022 109.775 32.465C109.864 32.2257 109.908 31.9536 109.908 31.6487C109.908 31.3459 109.865 31.077 109.778 30.842C109.691 30.607 109.562 30.4228 109.391 30.2894C109.219 30.156 109.005 30.0893 108.749 30.0893C108.503 30.0893 108.295 30.1538 108.123 30.283C107.952 30.4122 107.822 30.5932 107.733 30.8261C107.646 31.059 107.602 31.3332 107.602 31.6487ZM114.501 29.2095V30.0988H111.696V29.2095H114.501ZM112.389 28.0406H113.539V32.6206C113.539 32.7752 113.562 32.8938 113.608 32.9764C113.657 33.0568 113.721 33.1119 113.799 33.1415C113.877 33.1712 113.964 33.186 114.059 33.186C114.131 33.186 114.197 33.1807 114.256 33.1701C114.318 33.1595 114.364 33.15 114.396 33.1415L114.59 34.0404C114.528 34.0615 114.441 34.0848 114.326 34.1102C114.214 34.1357 114.076 34.1505 113.913 34.1547C113.625 34.1632 113.366 34.1198 113.135 34.0245C112.904 33.9271 112.721 33.7768 112.586 33.5735C112.452 33.3702 112.387 33.1161 112.389 32.8112V28.0406ZM117.57 34.1833C117.081 34.1833 116.658 34.0817 116.303 33.8784C115.949 33.673 115.677 33.3829 115.486 33.0081C115.296 32.6312 115.2 32.1876 115.2 31.6773C115.2 31.1755 115.296 30.7351 115.486 30.3561C115.679 29.9749 115.948 29.6785 116.293 29.4667C116.638 29.2529 117.044 29.1459 117.51 29.1459C117.81 29.1459 118.094 29.1946 118.361 29.292C118.63 29.3873 118.867 29.5356 119.072 29.7367C119.28 29.9379 119.443 30.1941 119.561 30.5053C119.68 30.8145 119.739 31.1829 119.739 31.6106V31.9632H115.74V31.1882H118.637C118.635 30.968 118.587 30.7721 118.494 30.6006C118.401 30.427 118.271 30.2904 118.103 30.1909C117.938 30.0914 117.746 30.0416 117.525 30.0416C117.29 30.0416 117.084 30.0988 116.906 30.2131C116.728 30.3253 116.59 30.4736 116.49 30.6578C116.393 30.8399 116.343 31.04 116.341 31.2581V31.9346C116.341 32.2183 116.393 32.4618 116.496 32.6651C116.6 32.8663 116.745 33.0208 116.931 33.1288C117.118 33.2347 117.336 33.2876 117.586 33.2876C117.753 33.2876 117.904 33.2643 118.04 33.2178C118.175 33.1691 118.293 33.0981 118.392 33.005C118.492 32.9118 118.567 32.7964 118.618 32.6588L119.692 32.7794C119.624 33.0632 119.495 33.3109 119.304 33.5227C119.116 33.7323 118.874 33.8953 118.58 34.0118C118.286 34.1261 117.949 34.1833 117.57 34.1833ZM120.712 34.088V29.2095H121.827V30.0226H121.878C121.966 29.7409 122.119 29.5239 122.335 29.3715C122.553 29.2169 122.802 29.1396 123.081 29.1396C123.145 29.1396 123.216 29.1428 123.294 29.1491C123.375 29.1534 123.441 29.1608 123.494 29.1714V30.229C123.445 30.2121 123.368 30.1972 123.262 30.1845C123.159 30.1697 123.058 30.1623 122.961 30.1623C122.751 30.1623 122.562 30.2078 122.395 30.2989C122.23 30.3878 122.1 30.5117 122.005 30.6705C121.909 30.8293 121.862 31.0125 121.862 31.22V34.088H120.712ZM126.346 32.8811V31.9441L129.106 27.5833H129.888V28.9173H129.411L127.553 31.8615V31.9124H131.406V32.8811H126.346ZM129.449 34.088V32.5952L129.462 32.176V27.5833H130.574V34.088H129.449Z" fill="#828282"/>
<path d="M6.60763 67.6676V73.672H5.51993V68.726H5.48475L4.0804 69.6232V68.6263L5.5727 67.6676H6.60763ZM8.7977 72.9508C8.61984 72.9508 8.46738 72.8882 8.34034 72.7631C8.21329 72.6361 8.15075 72.4836 8.1527 72.3058C8.15075 72.1299 8.21329 71.9794 8.34034 71.8543C8.46738 71.7292 8.61984 71.6666 8.7977 71.6666C8.9697 71.6666 9.11922 71.7292 9.24627 71.8543C9.37527 71.9794 9.44075 72.1299 9.4427 72.3058C9.44075 72.425 9.40947 72.5335 9.34888 72.6312C9.29025 72.7289 9.21206 72.8071 9.11434 72.8657C9.01856 72.9224 8.91302 72.9508 8.7977 72.9508ZM8.7977 69.975C8.61984 69.975 8.46738 69.9124 8.34034 69.7873C8.21329 69.6603 8.15075 69.5078 8.1527 69.33C8.15075 69.1541 8.21329 69.0036 8.34034 68.8785C8.46738 68.7514 8.61984 68.6879 8.7977 68.6879C8.9697 68.6879 9.11922 68.7514 9.24627 68.8785C9.37527 69.0036 9.44075 69.1541 9.4427 69.33C9.44075 69.4472 9.40947 69.5547 9.34888 69.6525C9.29025 69.7502 9.21206 69.8284 9.11434 69.887C9.01856 69.9457 8.91302 69.975 8.7977 69.975ZM10.5267 73.672V72.8863L12.6113 70.8428C12.8106 70.6415 12.9768 70.4626 13.1097 70.3063C13.2426 70.1499 13.3423 69.9984 13.4087 69.8518C13.4752 69.7052 13.5084 69.5489 13.5084 69.3827C13.5084 69.1932 13.4654 69.0309 13.3794 68.8961C13.2934 68.7592 13.1751 68.6537 13.0246 68.5794C12.8741 68.5052 12.7031 68.468 12.5116 68.468C12.3142 68.468 12.1412 68.5091 11.9926 68.5912C11.8441 68.6713 11.7288 68.7856 11.6467 68.9342C11.5666 69.0827 11.5265 69.2596 11.5265 69.4648H10.4916C10.4916 69.0837 10.5785 68.7524 10.7525 68.471C10.9264 68.1895 11.1659 67.9716 11.4708 67.8172C11.7776 67.6627 12.1295 67.5855 12.5262 67.5855C12.9289 67.5855 13.2826 67.6608 13.5876 67.8113C13.8925 67.9618 14.129 68.168 14.2971 68.4299C14.4671 68.6918 14.5521 68.9909 14.5521 69.327C14.5521 69.5518 14.5091 69.7727 14.4231 69.9896C14.3371 70.2066 14.1856 70.447 13.9687 70.7109C13.7537 70.9747 13.4517 71.2943 13.0628 71.6696L12.0278 72.7221V72.7631H14.643V73.672H10.5267ZM17.8094 73.7541C17.3872 73.7541 17.0119 73.6818 16.6836 73.5371C16.3571 73.3925 16.0991 73.1912 15.9096 72.9332C15.72 72.6752 15.6193 72.3771 15.6076 72.039H16.7099C16.7197 72.2012 16.7735 72.3429 16.8712 72.4641C16.9689 72.5833 17.0989 72.6762 17.2611 72.7426C17.4234 72.8091 17.6051 72.8423 17.8064 72.8423C18.0214 72.8423 18.212 72.8052 18.3781 72.7309C18.5443 72.6547 18.6743 72.5491 18.7681 72.4142C18.8619 72.2794 18.9078 72.124 18.9059 71.9481C18.9078 71.7663 18.8609 71.606 18.7651 71.4673C18.6694 71.3285 18.5306 71.22 18.3488 71.1418C18.169 71.0637 17.9521 71.0246 17.698 71.0246H17.1673V70.1861H17.698C17.9071 70.1861 18.0899 70.1499 18.2462 70.0776C18.4045 70.0053 18.5286 69.9036 18.6186 69.7727C18.7085 69.6398 18.7524 69.4863 18.7505 69.3124C18.7524 69.1423 18.7143 68.9948 18.6361 68.8697C18.5599 68.7426 18.4514 68.6439 18.3107 68.5736C18.1719 68.5032 18.0087 68.468 17.8211 68.468C17.6374 68.468 17.4673 68.5012 17.311 68.5677C17.1546 68.6342 17.0285 68.729 16.9328 68.8521C16.837 68.9733 16.7862 69.1179 16.7803 69.286H15.7336C15.7415 68.9498 15.8382 68.6547 16.0239 68.4006C16.2115 68.1445 16.4617 67.9452 16.7744 67.8025C17.0872 67.6579 17.438 67.5855 17.827 67.5855C18.2276 67.5855 18.5756 67.6608 18.8707 67.8113C19.1678 67.9598 19.3974 68.1602 19.5597 68.4123C19.7219 68.6645 19.803 68.943 19.803 69.2479C19.805 69.586 19.7053 69.8694 19.504 70.0981C19.3046 70.3268 19.0427 70.4763 18.7182 70.5467V70.5936C19.1404 70.6522 19.4639 70.8086 19.6887 71.0627C19.9154 71.3148 20.0278 71.6285 20.0258 72.0038C20.0258 72.34 19.9301 72.641 19.7385 72.9068C19.5489 73.1707 19.287 73.3778 18.9528 73.5283C18.6205 73.6788 18.2394 73.7541 17.8094 73.7541Z" fill="#030303"/>
<path d="M198.762 72.5579V71.693L201.31 67.6676H202.031V68.899H201.591L199.876 71.6168V71.6637H203.432V72.5579H198.762ZM201.626 73.672V72.294L201.638 71.907V67.6676H202.664V73.672H201.626ZM205.035 72.9508C204.857 72.9508 204.704 72.8882 204.577 72.7631C204.45 72.6361 204.388 72.4836 204.39 72.3058C204.388 72.1299 204.45 71.9794 204.577 71.8543C204.704 71.7292 204.857 71.6666 205.035 71.6666C205.207 71.6666 205.356 71.7292 205.483 71.8543C205.612 71.9794 205.678 72.1299 205.68 72.3058C205.678 72.425 205.646 72.5335 205.586 72.6312C205.527 72.7289 205.449 72.8071 205.351 72.8657C205.256 72.9224 205.15 72.9508 205.035 72.9508ZM205.035 69.975C204.857 69.975 204.704 69.9124 204.577 69.7873C204.45 69.6603 204.388 69.5078 204.39 69.33C204.388 69.1541 204.45 69.0036 204.577 68.8785C204.704 68.7514 204.857 68.6879 205.035 68.6879C205.207 68.6879 205.356 68.7514 205.483 68.8785C205.612 69.0036 205.678 69.1541 205.68 69.33C205.678 69.4472 205.646 69.5547 205.586 69.6525C205.527 69.7502 205.449 69.8284 205.351 69.887C205.256 69.9457 205.15 69.975 205.035 69.975ZM206.655 72.5579V71.693L209.203 67.6676H209.924V68.899H209.484L207.769 71.6168V71.6637H211.326V72.5579H206.655ZM209.52 73.672V72.294L209.531 71.907V67.6676H210.557V73.672H209.52ZM214.347 67.5855C214.634 67.5875 214.914 67.6383 215.185 67.738C215.459 67.8357 215.705 67.996 215.924 68.2188C216.143 68.4397 216.317 68.7358 216.446 69.1072C216.575 69.4785 216.64 69.9378 216.64 70.4851C216.641 71.0011 216.587 71.4624 216.475 71.8689C216.366 72.2735 216.209 72.6156 216.003 72.8951C215.798 73.1746 215.551 73.3876 215.262 73.5342C214.972 73.6808 214.647 73.7541 214.285 73.7541C213.906 73.7541 213.57 73.6798 213.277 73.5313C212.986 73.3827 212.75 73.1795 212.57 72.9215C212.39 72.6635 212.28 72.3683 212.239 72.036H213.309C213.364 72.2745 213.475 72.4641 213.643 72.6048C213.813 72.7436 214.027 72.813 214.285 72.813C214.702 72.813 215.022 72.6322 215.247 72.2706C215.472 71.909 215.584 71.4067 215.584 70.7636H215.543C215.447 70.9356 215.323 71.0842 215.171 71.2093C215.018 71.3324 214.845 71.4272 214.652 71.4937C214.46 71.5601 214.257 71.5933 214.042 71.5933C213.69 71.5933 213.373 71.5093 213.092 71.3412C212.813 71.1731 212.591 70.9425 212.427 70.6493C212.264 70.3561 212.182 70.0209 212.18 69.6437C212.18 69.2528 212.27 68.9019 212.45 68.5912C212.632 68.2784 212.885 68.0322 213.209 67.8523C213.534 67.6706 213.913 67.5816 214.347 67.5855ZM214.35 68.4651C214.139 68.4651 213.948 68.5169 213.778 68.6205C213.61 68.7221 213.477 68.8609 213.379 69.0368C213.284 69.2107 213.236 69.4052 213.236 69.6202C213.238 69.8333 213.286 70.0268 213.379 70.2007C213.475 70.3747 213.605 70.5125 213.769 70.6141C213.935 70.7157 214.125 70.7666 214.338 70.7666C214.496 70.7666 214.644 70.7363 214.781 70.6757C214.918 70.6151 215.037 70.531 215.138 70.4235C215.242 70.3141 215.322 70.19 215.379 70.0512C215.437 69.9124 215.466 69.7658 215.464 69.6114C215.464 69.4062 215.415 69.2166 215.317 69.0427C215.222 68.8687 215.09 68.729 214.921 68.6234C214.755 68.5179 214.565 68.4651 214.35 68.4651Z" fill="#030303"/>
<g clip-path="url(#clip0_4561_11278)">
<rect x="3.63184" y="57.416" width="213.968" height="2.064" rx="1.032" fill="#E8ECED"/>
<rect x="3.63184" y="57.416" width="53.5901" height="2.064" fill="#0769ED"/>
<rect opacity="0.16" x="57.0596" y="57.416" width="53.492" height="2.064" fill="#0769ED"/>
<rect opacity="0.16" x="110.485" y="57.416" width="53.492" height="2.064" fill="#0769ED"/>
<rect opacity="0.16" x="164.108" y="57.416" width="53.492" height="2.064" rx="1.032" fill="#0769ED"/>
</g>
<g filter="url(#filter0_d_4561_11278)">
<ellipse cx="4.40124" cy="4.472" rx="4.40124" ry="4.472" transform="matrix(-1 0 0 1 61.8643 53.976)" fill="#0769ED"/>
</g>
<path d="M5.66382 107.261V116.768H3.94163V108.937H3.88592L1.66238 110.357V108.779L4.02518 107.261H5.66382ZM8.76373 111.889L9.74834 113.69L10.7488 111.889H11.9653L10.4947 114.329L11.9907 116.768H10.7806L9.74834 115.012L8.72562 116.768H7.50598L8.99242 114.329L7.5441 111.889H8.76373Z" fill="#071527"/>
<path d="M59.2669 106.15C59.3442 106.095 59.4349 106.063 59.5293 106.057C59.6236 106.05 59.7179 106.07 59.8018 106.114C59.8857 106.157 59.956 106.223 60.0051 106.304C60.0542 106.385 60.0801 106.477 60.0801 106.572V116.964C60.0801 117.059 60.0542 117.151 60.0051 117.232C59.956 117.313 59.8857 117.379 59.8018 117.422C59.7179 117.466 59.6236 117.486 59.5293 117.479C59.4349 117.473 59.3442 117.441 59.2669 117.386L51.9056 112.189C51.8383 112.141 51.7834 112.078 51.7455 112.005C51.7077 111.932 51.6879 111.85 51.6879 111.768C51.6879 111.685 51.7077 111.604 51.7455 111.531C51.7834 111.458 51.8383 111.395 51.9056 111.347L59.2669 106.15ZM50.7921 116.928C50.7921 117.202 50.6833 117.464 50.4898 117.658C50.2963 117.851 50.0338 117.96 49.7601 117.96C49.4864 117.96 49.2239 117.851 49.0303 117.658C48.8368 117.464 48.7281 117.202 48.7281 116.928V106.608C48.7281 106.334 48.8368 106.072 49.0303 105.878C49.2239 105.685 49.4864 105.576 49.7601 105.576C50.0338 105.576 50.2963 105.685 50.4898 105.878C50.6833 106.072 50.7921 106.334 50.7921 106.608V116.928Z" fill="#071527"/>
<circle cx="109.617" cy="111.768" r="22.016" fill="#071527"/>
<path d="M103.425 104.338H107.14V119.198H103.425V104.338ZM112.094 104.338H115.809V119.198H112.094V104.338Z" fill="white"/>
<path d="M159.622 117.386C159.545 117.441 159.454 117.473 159.359 117.479C159.265 117.486 159.171 117.466 159.087 117.422C159.003 117.379 158.933 117.313 158.884 117.232C158.834 117.151 158.809 117.059 158.809 116.964V106.572C158.809 106.477 158.834 106.385 158.884 106.304C158.933 106.223 159.003 106.157 159.087 106.114C159.171 106.07 159.265 106.05 159.359 106.057C159.454 106.063 159.545 106.095 159.622 106.15L166.983 111.347C167.05 111.395 167.105 111.458 167.143 111.531C167.181 111.604 167.201 111.685 167.201 111.768C167.201 111.85 167.181 111.932 167.143 112.005C167.105 112.078 167.05 112.141 166.983 112.189L159.622 117.386ZM168.097 106.608C168.097 106.334 168.205 106.072 168.399 105.878C168.592 105.685 168.855 105.576 169.129 105.576C169.402 105.576 169.665 105.685 169.858 105.878C170.052 106.072 170.161 106.334 170.161 106.608V116.928C170.161 117.202 170.052 117.464 169.858 117.658C169.665 117.851 169.402 117.96 169.129 117.96C168.855 117.96 168.592 117.851 168.399 117.658C168.205 117.464 168.097 117.202 168.097 116.928V106.608Z" fill="#071527"/>
<path d="M213.934 114.698L211.485 113.362C211.165 113.704 210.75 113.942 210.293 114.045C209.836 114.147 209.359 114.11 208.924 113.939C208.488 113.767 208.115 113.468 207.851 113.081C207.588 112.694 207.447 112.236 207.447 111.768C207.447 111.3 207.588 110.843 207.851 110.456C208.115 110.069 208.488 109.77 208.924 109.598C209.359 109.426 209.836 109.389 210.293 109.492C210.75 109.595 211.165 109.832 211.485 110.174L213.935 108.838C213.796 108.288 213.862 107.705 214.122 107.2C214.382 106.695 214.817 106.302 215.346 106.095C215.875 105.888 216.461 105.881 216.995 106.075C217.528 106.269 217.973 106.651 218.245 107.15C218.517 107.648 218.598 108.229 218.473 108.783C218.348 109.337 218.024 109.826 217.564 110.159C217.104 110.491 216.538 110.645 215.973 110.59C215.408 110.536 214.882 110.277 214.493 109.862L212.043 111.198C212.138 111.572 212.138 111.964 212.043 112.338L214.493 113.674C214.882 113.259 215.408 113.001 215.973 112.946C216.538 112.892 217.104 113.046 217.564 113.379C218.024 113.712 218.347 114.201 218.472 114.755C218.597 115.309 218.516 115.889 218.244 116.388C217.972 116.886 217.527 117.268 216.993 117.462C216.459 117.656 215.873 117.648 215.344 117.441C214.816 117.234 214.381 116.841 214.121 116.336C213.861 115.83 213.795 115.248 213.934 114.697V114.698ZM209.781 112.935C210.09 112.935 210.387 112.812 210.606 112.593C210.824 112.374 210.947 112.077 210.947 111.768C210.947 111.458 210.824 111.162 210.606 110.943C210.387 110.724 210.09 110.601 209.781 110.601C209.471 110.601 209.175 110.724 208.956 110.943C208.737 111.162 208.614 111.458 208.614 111.768C208.614 112.077 208.737 112.374 208.956 112.593C209.175 112.812 209.471 112.935 209.781 112.935ZM216.197 109.435C216.507 109.435 216.804 109.312 217.022 109.093C217.241 108.874 217.364 108.577 217.364 108.268C217.364 107.958 217.241 107.662 217.022 107.443C216.804 107.224 216.507 107.101 216.197 107.101C215.888 107.101 215.591 107.224 215.372 107.443C215.154 107.662 215.031 107.958 215.031 108.268C215.031 108.577 215.154 108.874 215.372 109.093C215.591 109.312 215.888 109.435 216.197 109.435ZM216.197 116.435C216.507 116.435 216.804 116.312 217.022 116.093C217.241 115.874 217.364 115.577 217.364 115.268C217.364 114.958 217.241 114.662 217.022 114.443C216.804 114.224 216.507 114.101 216.197 114.101C215.888 114.101 215.591 114.224 215.372 114.443C215.154 114.662 215.031 114.958 215.031 115.268C215.031 115.577 215.154 115.874 215.372 116.093C215.591 116.312 215.888 116.435 216.197 116.435Z" fill="black"/>
<defs>
<filter id="filter0_d_4561_11278" x="47.5575" y="51.224" width="19.8107" height="19.952" filterUnits="userSpaceOnUse" color-interpolation-filters="sRGB">
<feFlood flood-opacity="0" result="BackgroundImageFix"/>
<feColorMatrix in="SourceAlpha" type="matrix" values="0 0 0 0 0 0 0 0 0 0 0 0 0 0 0 0 0 0 127 0" result="hardAlpha"/>
<feOffset dy="2.752"/>
<feGaussianBlur stdDeviation="2.752"/>
<feComposite in2="hardAlpha" operator="out"/>
<feColorMatrix type="matrix" values="0 0 0 0 0 0 0 0 0 0 0 0 0 0 0 0 0 0 0.2 0"/>
<feBlend mode="normal" in2="BackgroundImageFix" result="effect1_dropShadow_4561_11278"/>
<feBlend mode="normal" in="SourceGraphic" in2="effect1_dropShadow_4561_11278" result="shape"/>
</filter>
<clipPath id="clip0_4561_11278">
<rect x="3.63184" y="57.416" width="213.968" height="2.064" rx="1.032" fill="white"/>
</clipPath>
</defs>
</svg>
