<svg width="40" height="40" viewBox="0 0 40 40" fill="none" xmlns="http://www.w3.org/2000/svg">
<circle cx="20" cy="20" r="20" fill="#A8C1E6"/>
<path d="M21.9742 30.6715H18.0257C15.9565 30.6715 14.2791 28.9941 14.2791 26.9248V22.4405C14.2791 20.1841 16.1082 18.355 18.3646 18.355H21.6353C23.8917 18.355 25.7209 20.1841 25.7209 22.4405V26.9248C25.7209 28.9941 24.0435 30.6715 21.9742 30.6715Z" fill="#EAA97D"/>
<path d="M21.9753 30.6714H18.0245C16.7283 30.6714 15.6775 29.6206 15.6775 28.3244V24.1661C15.6775 22.4302 17.0847 21.0229 18.8206 21.0229H21.1791C22.915 21.0229 24.3223 22.4302 24.3223 24.1661V28.3244C24.3223 29.6206 23.2715 30.6714 21.9753 30.6714Z" fill="#E0EBFC"/>
<path d="M14.279 22.4405C14.279 21.2161 14.8184 20.1182 15.6716 19.3694L13.7614 20.4723C12.3583 21.2823 11.0064 22.1773 9.71587 23.1505C9.31074 23.456 9.17414 23.9681 9.39555 24.3515L10.3476 26.0006C10.569 26.3841 11.0808 26.5218 11.548 26.3238C12.4735 25.9312 13.3846 25.5029 14.2789 25.0404V22.4405H14.279Z" fill="#EAA97D"/>
<path d="M30.2839 23.1505C28.9933 22.1773 27.6415 21.2823 26.2383 20.4723L24.3281 19.3694C25.1815 20.1182 25.7208 21.2161 25.7208 22.4405V25.0404C26.615 25.503 27.5261 25.9312 28.4517 26.3238C28.9187 26.5218 29.4306 26.3841 29.652 26.0006L30.6041 24.3515C30.8256 23.9681 30.689 23.456 30.2839 23.1505Z" fill="#EAA97D"/>
<path d="M21.9742 30.8744H18.0257C15.8478 30.8744 14.0759 29.1026 14.0759 26.9247V22.4404C14.0759 20.0756 15.9998 18.1516 18.3646 18.1516H21.6353C24.0001 18.1516 25.9241 20.0755 25.9241 22.4404V26.9247C25.924 29.1026 24.1521 30.8744 21.9742 30.8744ZM18.3646 18.558C16.2238 18.558 14.4822 20.2997 14.4822 22.4405V26.9248C14.4822 28.8786 16.0718 30.4683 18.0257 30.4683H21.9742C23.9281 30.4683 25.5178 28.8786 25.5178 26.9248V22.4405C25.5178 20.2997 23.7762 18.558 21.6352 18.558H18.3646Z" fill="#3762CC"/>
<path d="M11.1179 26.6156C10.7253 26.6156 10.3617 26.4308 10.1718 26.102L9.21969 24.4529C8.94842 23.9831 9.10919 23.3533 9.59365 22.9881C10.8866 22.0131 12.2548 21.1073 13.6599 20.2962L15.5701 19.1933C15.6606 19.141 15.7759 19.1659 15.8367 19.2509C15.8975 19.3358 15.8841 19.453 15.8056 19.5219C14.9645 20.26 14.4821 21.3237 14.4821 22.4403V25.0402C14.4821 25.1161 14.4397 25.1857 14.3723 25.2205C13.4762 25.684 12.5527 26.118 11.6273 26.5105C11.4599 26.5817 11.2862 26.6156 11.1179 26.6156ZM14.7481 20.137L13.8631 20.648C12.4723 21.4509 11.1182 22.3473 9.83841 23.3124C9.51758 23.5543 9.40291 23.9573 9.57171 24.2497L10.5239 25.8988C10.6927 26.1913 11.099 26.2934 11.469 26.1365C12.3471 25.7641 13.2236 25.3539 14.0761 24.9163V22.4404C14.0759 21.6166 14.3135 20.8189 14.7481 20.137ZM14.279 25.0403H14.28H14.279Z" fill="#3762CC"/>
<path d="M28.8819 26.6157C28.7137 26.6157 28.5401 26.5819 28.3725 26.5108C27.4468 26.1182 26.5233 25.6842 25.6276 25.2209C25.5601 25.186 25.5178 25.1163 25.5178 25.0405V22.4406C25.5178 21.324 25.0354 20.2602 24.1943 19.5222C24.1159 19.4532 24.1024 19.336 24.1633 19.2512C24.2242 19.1663 24.3398 19.1416 24.4299 19.1936L26.34 20.2965C27.7453 21.1078 29.1134 22.0134 30.4063 22.9884C30.8908 23.3537 31.0514 23.9834 30.7803 24.4532L29.8282 26.1023C29.6382 26.431 29.2745 26.6157 28.8819 26.6157ZM25.924 24.9166C26.7762 25.354 27.6527 25.7642 28.5312 26.1367C28.9009 26.2937 29.3074 26.1915 29.4764 25.899L30.4283 24.2499C30.5972 23.9575 30.4826 23.5545 30.1617 23.3126C28.8819 22.3477 27.5278 21.4512 26.1369 20.6482L25.2519 20.1372C25.6864 20.8191 25.924 21.6168 25.924 22.4406V24.9166Z" fill="#3762CC"/>
<path d="M17.0575 9.19153C16.5456 8.54193 15.7524 8.12451 14.8611 8.12451C13.3171 8.12451 12.0654 9.37617 12.0654 10.9202C12.0654 12.0539 12.7405 13.0292 13.7103 13.4679C14.0672 11.6025 15.3318 10.0363 17.0575 9.19153Z" fill="#EAA97D"/>
<path d="M19.9905 20.5758C23.5163 20.5758 26.3745 17.8764 26.3745 14.5464C26.3745 11.2165 23.5163 8.51709 19.9905 8.51709C16.4647 8.51709 13.6064 11.2165 13.6064 14.5464C13.6064 17.8764 16.4647 20.5758 19.9905 20.5758Z" fill="#EAA97D"/>
<path d="M19.9904 20.576C22.4372 20.576 24.4208 19.147 24.4208 17.3842C24.4208 15.6214 22.4372 14.1924 19.9904 14.1924C17.5436 14.1924 15.5601 15.6214 15.5601 17.3842C15.5601 19.147 17.5436 20.576 19.9904 20.576Z" fill="#E0EBFC"/>
<path d="M17.6115 14.9234H17.5748C17.1606 14.9234 16.8247 14.5875 16.8247 14.1733V13.309C16.8247 12.8947 17.1606 12.5588 17.5748 12.5588H17.6115C18.0258 12.5588 18.3617 12.8947 18.3617 13.309V14.1733C18.3616 14.5875 18.0258 14.9234 17.6115 14.9234Z" fill="#4671C6"/>
<path d="M22.425 14.9234H22.3883C21.9741 14.9234 21.6382 14.5875 21.6382 14.1733V13.309C21.6382 12.8947 21.9741 12.5588 22.3883 12.5588H22.425C22.8393 12.5588 23.1751 12.8947 23.1751 13.309V14.1733C23.1751 14.5875 22.8393 14.9234 22.425 14.9234Z" fill="#4671C6"/>
<path d="M20.8833 17.9668C20.5376 17.9668 20.2129 17.8142 19.9904 17.5608C19.7679 17.8142 19.4432 17.9668 19.0975 17.9668C18.4422 17.9668 17.9092 17.4337 17.9092 16.7786C17.9092 16.6664 18.0002 16.5754 18.1123 16.5754C18.2244 16.5754 18.3154 16.6664 18.3154 16.7786C18.3154 17.2098 18.6662 17.5606 19.0975 17.5606C19.3999 17.5606 19.6781 17.3827 19.8062 17.1073C19.8395 17.0356 19.9114 16.9898 19.9903 16.9898C20.0692 16.9898 20.1411 17.0356 20.1744 17.1073C20.3025 17.3827 20.5807 17.5606 20.8832 17.5606C21.3145 17.5606 21.6653 17.2098 21.6653 16.7786C21.6653 16.6664 21.7563 16.5754 21.8684 16.5754C21.9805 16.5754 22.0715 16.6664 22.0715 16.7786C22.0716 17.4338 21.5385 17.9668 20.8833 17.9668Z" fill="#3762CC"/>
<path d="M19.9905 16.923C19.8784 16.923 19.7874 16.832 19.7874 16.7198V16.4211C19.7874 16.309 19.8784 16.218 19.9905 16.218C20.1026 16.218 20.1936 16.309 20.1936 16.4211V16.7198C20.1936 16.8321 20.1027 16.923 19.9905 16.923Z" fill="#3762CC"/>
<path d="M19.9905 16.8942C20.8371 16.8942 21.5235 16.4426 21.5235 15.8856C21.5235 15.3285 20.8371 14.877 19.9905 14.877C19.1439 14.877 18.4575 15.3285 18.4575 15.8856C18.4575 16.4426 19.1439 16.8942 19.9905 16.8942Z" fill="#4671C6"/>
<path d="M15.7009 31.831C14.1182 32.1101 12.6089 31.0533 12.3299 29.4706L11.9651 27.4017C11.686 25.8191 12.7429 24.3098 14.3255 24.0308C15.9082 23.7517 17.4175 24.8085 17.6965 26.3912L18.0613 28.46C18.3403 30.0427 17.2835 31.5519 15.7009 31.831Z" fill="#EAA97D"/>
<path d="M15.2438 30.6268C14.3179 30.79 13.4252 30.1319 13.2537 29.1597L12.9396 27.3779C12.7682 26.4057 13.3819 25.4818 14.3079 25.3185C15.2338 25.1553 16.1264 25.8135 16.2979 26.7858L16.612 28.5676C16.7833 29.5397 16.1696 30.4635 15.2438 30.6268Z" fill="#F9CFCF"/>
<path d="M24.2992 31.831C22.7165 31.5519 21.6596 30.0427 21.9387 28.46L22.3036 26.3912C22.5826 24.8085 24.0919 23.7517 25.6745 24.0308C27.2572 24.3099 28.314 25.8191 28.0349 27.4017L27.6701 29.4706C27.3911 31.0532 25.8819 32.1101 24.2992 31.831Z" fill="#EAA97D"/>
<path d="M24.7562 30.6269C23.8303 30.4636 23.2164 29.5398 23.3878 28.5676L23.702 26.7858C23.8734 25.8136 24.7662 25.1553 25.692 25.3185C26.6179 25.4819 27.2318 26.4057 27.0603 27.3779L26.7462 29.1597C26.5748 30.132 25.682 30.7901 24.7562 30.6269Z" fill="#F9CFCF"/>
<path d="M25.1386 8.12451C24.2443 8.12451 23.4488 8.54488 22.937 9.19823C24.6582 10.0458 25.9182 11.6119 26.2721 13.4758C27.2512 13.0408 27.9344 12.0607 27.9344 10.9202C27.9344 9.37617 26.6826 8.12451 25.1386 8.12451Z" fill="#EAA97D"/>
<path d="M25.1388 9.12939C24.614 9.12939 24.1428 9.35761 23.8149 9.71836C24.8016 10.4166 25.5668 11.3784 25.9943 12.493C26.551 12.189 26.9296 11.5981 26.9296 10.9202C26.9297 9.93265 26.1263 9.12939 25.1388 9.12939Z" fill="#F9CFCF"/>
<path d="M16.1776 9.71033C15.8501 9.35425 15.382 9.12939 14.8612 9.12939C13.8737 9.12939 13.0703 9.93275 13.0703 10.9202C13.0703 11.5916 13.4421 12.1771 13.9902 12.4836C14.4199 11.3686 15.1881 10.4073 16.1776 9.71033Z" fill="#F9CFCF"/>
<path d="M13.7103 13.671C13.6818 13.671 13.6533 13.6651 13.6265 13.653C12.5549 13.168 11.8623 12.0954 11.8623 10.9202C11.8623 9.26668 13.2076 7.92139 14.8611 7.92139C15.7852 7.92139 16.6439 8.3385 17.2171 9.06589C17.2551 9.11414 17.2693 9.1769 17.2556 9.23672C17.2419 9.29654 17.202 9.34702 17.1468 9.37404C15.4567 10.2014 14.2466 11.7461 13.9098 13.5061C13.8981 13.5672 13.859 13.6196 13.8039 13.6482C13.7746 13.6634 13.7424 13.671 13.7103 13.671ZM14.8611 8.32764C13.4315 8.32764 12.2686 9.49073 12.2686 10.9202C12.2686 11.8508 12.771 12.707 13.5675 13.1667C13.974 11.4732 15.1352 9.99275 16.735 9.12917C16.2467 8.61689 15.5765 8.32764 14.8611 8.32764Z" fill="#3762CC"/>
<path d="M19.9905 20.7789C16.3583 20.7789 13.4033 17.9831 13.4033 14.5464C13.4033 11.1098 16.3583 8.31396 19.9905 8.31396C23.6226 8.31396 26.5776 11.1098 26.5776 14.5464C26.5776 17.9831 23.6226 20.7789 19.9905 20.7789ZM19.9905 8.72032C16.5823 8.72032 13.8096 11.3339 13.8096 14.5466C13.8096 17.7592 16.5823 20.3728 19.9905 20.3728C23.3987 20.3728 26.1714 17.7592 26.1714 14.5466C26.1714 11.3339 23.3987 8.72032 19.9905 8.72032Z" fill="#3762CC"/>
<path d="M26.272 13.679C26.2396 13.679 26.2072 13.6711 26.1778 13.6557C26.1228 13.627 26.084 13.5747 26.0725 13.5137C25.7387 11.7557 24.5331 10.2105 22.8472 9.38043C22.7924 9.35342 22.7526 9.30304 22.739 9.24343C22.7254 9.18381 22.7394 9.12114 22.7772 9.073C23.3503 8.34114 24.211 7.92139 25.1386 7.92139C26.7921 7.92139 28.1374 9.26668 28.1374 10.9202C28.1374 12.1043 27.4376 13.1803 26.3544 13.6614C26.3282 13.6732 26.3001 13.679 26.272 13.679ZM23.2585 9.13587C24.8549 10.002 26.0123 11.4837 26.4156 13.1763C27.2222 12.7193 27.7312 11.8591 27.7312 10.9203C27.7312 9.49073 26.5682 8.32774 25.1386 8.32774C24.4197 8.32764 23.7471 8.61943 23.2585 9.13587Z" fill="#3762CC"/>
<path d="M15.1941 32.0787C13.7125 32.0787 12.3959 31.0144 12.1299 29.5059L11.7652 27.4371C11.6207 26.6182 11.8039 25.7921 12.2809 25.111C12.7578 24.4298 13.4715 23.9752 14.2904 23.8308C15.9809 23.5327 17.5986 24.6656 17.8967 26.356L18.2614 28.4248C18.4058 29.2437 18.2227 30.0698 17.7457 30.7509C17.2687 31.4321 16.5551 31.8866 15.7362 32.0311C15.5542 32.0632 15.3728 32.0787 15.1941 32.0787ZM14.8321 24.1895C14.6766 24.1895 14.519 24.203 14.3607 24.231C13.6486 24.3565 13.0281 24.7518 12.6134 25.344C12.1987 25.9363 12.0395 26.6546 12.165 27.3666L12.5297 29.4354C12.7889 30.9053 14.1959 31.8905 15.6655 31.631C16.3775 31.5055 16.9981 31.1102 17.4128 30.518C17.8274 29.9257 17.9867 29.2074 17.8612 28.4954L17.4964 26.4265C17.2652 25.1151 16.1202 24.1895 14.8321 24.1895Z" fill="#3762CC"/>
<path d="M24.8111 32.079C24.6295 32.079 24.4465 32.0631 24.2638 32.0309C23.4449 31.8865 22.7314 31.4319 22.2544 30.7507C21.7776 30.0695 21.5944 29.2435 21.7388 28.4246L22.1036 26.3558C22.248 25.5369 22.7025 24.8233 23.3837 24.3463C24.0648 23.8693 24.8906 23.6862 25.7099 23.8305C26.5288 23.975 27.2424 24.4296 27.7193 25.1107C28.1961 25.7919 28.3794 26.6179 28.2349 27.4368L27.8701 29.5057C27.7257 30.3246 27.2712 31.0381 26.59 31.5152C26.0609 31.8858 25.444 32.079 24.8111 32.079ZM24.3345 31.6308C25.046 31.7565 25.7648 31.5972 26.3571 31.1825C26.9494 30.7678 27.3447 30.1472 27.4702 29.4353L27.835 27.3664C27.9605 26.6544 27.8014 25.9361 27.3866 25.3438C26.9719 24.7516 26.3515 24.3562 25.6394 24.2308C24.9282 24.1053 24.2091 24.2644 23.6168 24.6792C23.0246 25.0939 22.6292 25.7144 22.5038 26.4264L22.1389 28.4952C22.0134 29.2073 22.1726 29.9255 22.5873 30.5178C23.002 31.11 23.6225 31.5053 24.3345 31.6308Z" fill="#3762CC"/>
</svg>
