<svg width="93" height="22" viewBox="0 0 93 22" fill="none" xmlns="http://www.w3.org/2000/svg">
<path d="M88.8939 14.0442C86.7679 14.0442 85.0439 15.7679 85.0439 17.8942C85.0439 20.0205 86.7679 21.7442 88.8939 21.7442C91.0209 21.7442 92.7439 20.0205 92.7439 17.8942C92.7439 15.7679 91.0209 14.0442 88.8939 14.0442Z" fill="#15A683"/>
<path d="M72.0648 14.0442C69.9388 14.0442 68.2148 15.7679 68.2148 17.8942C68.2148 20.0205 69.9388 21.7442 72.0648 21.7442C74.1918 21.7442 75.9149 20.0205 75.9149 17.8942C75.9149 15.7679 74.1918 14.0442 72.0648 14.0442Z" fill="#15A683"/>
<path d="M55.2357 14.0442C53.1097 14.0442 51.3857 15.7679 51.3857 17.8942C51.3857 20.0205 53.1097 21.7442 55.2357 21.7442C57.3617 21.7442 59.0858 20.0205 59.0858 17.8942C59.0858 15.7679 57.3617 14.0442 55.2357 14.0442Z" fill="#15A683"/>
<path d="M38.3773 14.0442C36.2503 14.0442 34.5273 15.7679 34.5273 17.8942C34.5273 20.0205 36.2503 21.7442 38.3773 21.7442C40.5033 21.7442 42.2274 20.0205 42.2274 17.8942C42.2274 15.7679 40.5033 14.0442 38.3773 14.0442Z" fill="#15A683"/>
<path d="M21.5492 14.0442C19.4222 14.0442 17.6992 15.7679 17.6992 17.8942C17.6992 20.0205 19.4222 21.7442 21.5492 21.7442C23.6752 21.7442 25.3992 20.0205 25.3992 17.8942C25.3992 15.7679 23.6752 14.0442 21.5492 14.0442Z" fill="#15A683"/>
<path d="M4.68985 14.0442C2.56385 14.0442 0.839843 15.7679 0.839844 17.8942C0.839844 20.0205 2.56385 21.7442 4.68985 21.7442C6.81685 21.7442 8.53984 20.0205 8.53984 17.8942C8.53984 15.7679 6.81685 14.0442 4.68985 14.0442Z" fill="#15A683"/>
<path d="M88.8939 0.160406C86.7679 0.160406 85.0439 1.8841 85.0439 4.0104C85.0439 6.1367 86.7679 7.8604 88.8939 7.8604C91.0209 7.8604 92.7439 6.1367 92.7439 4.0104C92.7439 1.8841 91.0209 0.160406 88.8939 0.160406Z" fill="#15A683"/>
<path d="M72.0648 0.160406C69.9388 0.160406 68.2148 1.8841 68.2148 4.0104C68.2148 6.1367 69.9388 7.8604 72.0648 7.8604C74.1918 7.8604 75.9149 6.1367 75.9149 4.0104C75.9149 1.8841 74.1918 0.160406 72.0648 0.160406Z" fill="#15A683"/>
<path d="M55.2357 0.16016C53.1097 0.16016 51.3857 1.88396 51.3857 4.01026C51.3857 6.13646 53.1097 7.86016 55.2357 7.86016C57.3617 7.86016 59.0858 6.13646 59.0858 4.01026C59.0858 1.88396 57.3617 0.16016 55.2357 0.16016Z" fill="#15A683"/>
<path d="M38.3773 0.16016C36.2503 0.16016 34.5273 1.88396 34.5273 4.01026C34.5273 6.13646 36.2503 7.86016 38.3773 7.86016C40.5033 7.86016 42.2274 6.13646 42.2274 4.01026C42.2274 1.88396 40.5033 0.16016 38.3773 0.16016Z" fill="#15A683"/>
<path d="M21.5482 0.160406C19.4212 0.160406 17.6982 1.8841 17.6982 4.0104C17.6982 6.1367 19.4212 7.8604 21.5482 7.8604C23.6742 7.8604 25.3982 6.1367 25.3982 4.0104C25.3982 1.8841 23.6742 0.160406 21.5482 0.160406Z" fill="#15A683"/>
<path d="M4.68985 0.16016C2.56385 0.16016 0.839843 1.88396 0.839844 4.01026C0.839844 6.13646 2.56385 7.86016 4.68985 7.86016C6.81685 7.86016 8.53984 6.13646 8.53984 4.01026C8.53984 1.88396 6.81685 0.16016 4.68985 0.16016Z" fill="#15A683"/>
</svg>
