<svg width="836" height="1008" viewBox="0 0 836 1008" fill="none" xmlns="http://www.w3.org/2000/svg">
<path d="M416.16 840.628L418.779 839.408M541.881 840.628L570.195 787.726C573.378 781.779 574.904 775.086 574.616 768.348L573.005 730.758C572.723 724.178 566.16 719.743 559.949 721.935V721.935C558.405 722.48 557.022 723.403 555.926 724.621L544.75 737.038C542.843 739.158 541.18 741.472 539.721 743.922C532.89 755.388 519.687 775.765 507.83 788.245C494.559 802.214 492.407 805.124 492.989 804.833L418.779 839.408M541.881 840.628L554.838 811.115C556.663 806.958 557.767 802.519 558.102 797.991L559.239 782.649C559.307 781.726 559.284 780.798 559.169 779.878L556.211 756.216C555.756 752.571 551.12 751.296 548.865 754.196V754.196L531.321 782.967C528.496 787.601 526.643 792.762 525.875 798.135L524.431 808.247C523.847 812.333 524.096 816.544 525.138 820.537V820.537C527.43 829.325 533.525 836.763 541.733 840.652V840.652M541.881 840.628L541.733 840.652M418.779 839.408L448.382 850.195C454.735 852.51 461.571 853.177 468.252 852.133L541.733 840.652M199.64 568.234C203.423 568.525 211.339 570.854 212.736 577.838C214.482 586.569 217.974 599.664 206.625 607.522C198.37 613.237 185.161 609.282 178.017 605.892C176.703 605.268 175.508 604.429 174.397 603.489L169.149 599.049C166.415 596.735 165.154 593.119 165.856 589.607V589.607C166.252 587.629 167.246 585.821 168.703 584.427L177.06 576.434C183.103 570.653 191.296 567.678 199.64 568.234V568.234ZM117.573 707.924C110.092 732.859 81.1905 760.113 63.2706 774.166C59.3947 777.206 54.8871 779.279 50.1209 780.523L12.2832 790.393C2.73398 792.884 -7.43079 790.672 -15.0814 784.439L-15.3674 784.206C-22.4004 778.475 -26.482 769.884 -26.482 760.812V760.812C-26.482 758.735 -26.2675 756.663 -25.842 754.63L-10.7669 682.605L-5.16975 660.838C-3.69322 655.096 -0.617557 649.891 3.69983 645.827V645.827C9.02039 640.82 15.924 637.83 23.2162 637.374L39.8705 636.333L76.1019 632.478C79.2919 632.139 82.511 632.185 85.6901 632.614L97.9105 634.266C107.755 635.596 117.026 640.379 122.243 648.833C125.226 653.666 127.705 658.738 128.049 662.525C128.922 672.128 128.049 673.001 117.573 707.924ZM72.1736 742.846L91.3357 722.974C94.2577 719.944 96.6831 716.472 98.5223 712.685L107.507 694.188C109.545 689.991 110.834 685.469 111.314 680.828L111.962 674.562C112.774 666.713 111.358 658.407 104.91 653.859C98.7153 649.489 89.1539 645.472 75.6659 645.063C52.6171 644.365 36.3782 647.101 31.1399 648.556C24.4464 650.011 10.3611 656.413 7.56729 670.382C4.07505 687.843 -7.27471 718.4 -8.14777 731.496C-9.02082 744.592 -10.7669 756.815 -8.14777 764.673C-5.52859 772.53 32.886 775.149 39.8705 769.911C45.458 765.72 63.7341 750.122 72.1736 742.846ZM17.1709 707.924C14.7004 683.219 35.7145 669.892 50.2701 664.925C53.7488 663.738 57.4617 663.417 61.0851 664.034C67.5543 665.136 76.1829 667.755 80.9042 673.001C88.7617 681.732 87.8887 685.224 86.1426 700.066C84.7457 711.94 54.7125 726.549 39.8705 732.369C33.468 735.862 19.9647 735.862 17.1709 707.924ZM199.64 503.628C173.013 492.587 135.767 520.95 117.102 539.724C114.463 542.378 111.679 544.916 108.196 546.286C99.9625 549.523 83.8864 554.491 77.4124 555.139C73.3643 555.543 69.1206 557.923 65.7013 560.476C61.6126 563.528 57.6108 566.79 52.9336 568.828C41.8248 573.671 25.2059 579.896 14.5522 580.457C3.57686 581.035 -18.905 598.772 -33.9262 612.134C-39.4229 617.024 -43.2095 623.498 -45.0063 630.632C-48.9243 646.188 -53.8679 667.347 -54.4194 675.621C-55.2925 688.717 -65.7692 718.4 -71.0076 734.116C-73.5351 741.698 -78.5189 746.91 -83.162 750.171C-87.9733 753.55 -93.3986 756.179 -97.6253 760.266C-111.141 773.336 -130.062 794.676 -131.249 808.325C-131.621 812.607 -131.175 815.992 -130.221 818.648C-126.576 828.789 -112.801 831.642 -105.419 839.492C-101.291 843.88 -96.4088 849.263 -91.0883 855.471C-75.3732 873.805 39.8705 845.867 68.6814 841.502C90.0616 838.262 131.625 788.196 153.79 758.201C157.009 753.844 159.102 748.809 160.957 743.719C164.861 733.004 172.981 717.689 186.544 707.924C204.005 695.352 247.949 658.45 267.739 641.571C274.723 635.169 287.994 615.205 285.2 586.569C281.708 550.773 235.436 518.47 199.64 503.628ZM74.7932 535.058L-7.16981 576.039C-9.56187 577.236 -11.8245 578.664 -13.9255 580.319C-19.2036 584.476 -26.9367 590.62 -33.8036 596.213C-39.3347 600.718 -43.4444 606.698 -45.7532 613.448C-50.3664 626.934 -56.7727 646.147 -60.5308 659.032C-64.6622 673.197 -69.9157 691.684 -73.0253 702.694C-74.0057 706.165 -75.4307 709.496 -77.3752 712.534C-85.0182 724.476 -98.2345 742.927 -106.803 747.211C-119.026 753.323 -140.852 782.134 -146.091 787.372C-148.865 790.147 -150.007 795.115 -150.377 799.339C-150.696 802.975 -149.831 806.575 -148.597 810.011L-139.491 835.379C-138.654 837.71 -137.603 839.957 -136.351 842.094L-128.63 855.264C-125.194 861.125 -120.368 866.083 -114.294 869.128C-91.6745 880.47 -51.5843 894.771 -19.4971 886.901C14.7314 878.505 67.024 859.012 94.0357 848.3C98.0785 846.697 101.797 844.432 105.061 841.559C122.887 825.867 152.733 797.85 160.353 783.88C168.082 769.711 185.807 751.483 195.595 742.341C197.12 740.917 198.772 739.654 200.519 738.514L276.939 688.64C279.528 686.95 281.912 684.967 284.043 682.729L310.133 655.334C313.844 651.437 316.731 646.832 318.621 641.793L322.19 632.274C323.138 629.748 323.846 627.145 324.147 624.464C325.629 611.278 326.384 584.682 320.123 557.758C313.138 527.724 284.618 501.009 271.231 491.405C260.755 485.585 234.738 473.595 214.483 472.198C189.164 470.452 191.783 478.309 164.718 489.659C143.066 498.739 95.7463 523.708 74.7932 535.058ZM446.716 424.18C436.432 428.22 428.916 427.126 423.762 424.248C416.319 420.093 414.6 409.762 419.069 402.502C421.442 398.646 424.367 395.369 426.636 395.369C429.822 395.369 435.902 392.341 440.424 389.738C442.9 388.313 445.095 386.478 447.229 384.58C454.538 378.077 469.016 367.035 486.877 358.7C513.069 346.478 517.434 359.573 516.561 364.812C515.688 370.05 511.323 373.542 507.83 379.654C504.338 385.765 493.861 395.369 491.242 398.861C488.623 402.353 471.162 414.576 446.716 424.18ZM479.892 447.752C471.374 460.202 437.603 469.526 418.8 473.276C416.465 473.741 414.267 473.323 412.491 471.738C406.608 466.486 392.511 452.287 379.491 433.783C362.903 410.211 375.125 429.418 330.599 405.845C316.158 398.2 307.734 393.071 303.152 389.713C297.918 385.877 304.073 382.772 310.286 380.902C315.304 379.393 321.735 377.66 328.853 376.161C345.441 372.669 403.936 369.177 426.636 371.796V371.796C440.34 373.377 454.329 361.078 466.111 353.903C474.483 348.803 484.857 342.852 496.481 336.874C527.038 321.159 532.276 342.985 534.022 360.446C535.768 377.908 516.561 392.75 504.338 407.592C492.115 422.434 491.242 431.164 479.892 447.752ZM460.685 333.382C479.536 329.258 516.275 312.422 539.889 300.791C547.455 297.065 556.154 295.355 563.793 298.93C571.251 302.42 579.58 308.354 584.659 317.667C589.844 327.172 592.178 337.167 593.066 344.924C593.898 352.191 591.117 359.202 586.661 365.002C576.489 378.242 561.895 396.231 554.102 402.353C541.88 411.957 544.499 420.687 535.768 438.149C528.784 452.118 506.666 468.997 496.481 475.69C481.93 485.585 450.208 506.596 439.732 511.486C435.046 513.672 430.884 516.522 427.481 519.318C421.975 523.84 414.141 525.618 407.844 522.285V522.285C405.297 520.936 403.21 518.859 401.851 516.318L383.856 482.675C375.416 466.96 354.696 433.26 339.33 424.18C323.964 415.1 295.095 410.502 282.581 409.338C268.321 407.01 237.008 400.956 225.832 395.369C215.848 390.377 215.342 374.792 216.592 365.3C216.867 363.218 217.012 361.091 217.713 359.111C220.231 352 231.033 343.564 260.755 350.843C303.535 361.319 321.869 354.335 336.711 356.081C351.553 357.827 432.747 339.493 460.685 333.382ZM366.395 671.255C386.629 643.841 392.681 597.01 393.387 572.943C393.479 569.811 393.093 566.703 392.366 563.655C388.785 548.648 382.385 521.697 378.618 505.374C373.379 482.674 330.599 462.594 295.677 434.656C267.739 412.306 224.668 421.269 206.625 428.545C157.734 453.573 55.2367 503.977 36.3787 505.374C12.8061 507.12 38.1248 472.198 42.4901 465.213C46.8554 458.229 91.3814 424.18 104.477 411.957C117.573 399.734 135.907 409.338 160.353 403.226C184.799 397.115 183.926 388.384 189.164 368.304V368.304C189.568 366.754 195.473 342.41 196.145 340.956L199.518 333.646C199.599 333.471 199.65 333.286 199.689 333.097C200.597 328.73 209.351 322.371 238.055 329.889C274.724 339.493 325.361 330.762 333.219 329.889C341.076 329.016 392.587 312.428 410.921 311.555C429.255 310.682 526.165 293.221 542.753 283.617C559.341 274.014 602.121 286.236 621.328 311.555C623.384 314.265 625.077 316.703 626.457 318.894C633.683 330.359 622.988 343.736 615.613 355.106L566.605 430.66C565.257 432.738 563.718 434.682 562.025 436.489C555.549 443.403 545.007 455.02 540.133 461.721C533.149 471.325 475.527 511.486 459.812 520.216C444.097 528.947 426.636 572.6 422.271 604.903C419.304 626.857 410.246 645.324 404.198 654.845C402.386 657.698 399.98 660.098 397.304 662.161C376.412 678.26 346.089 698.766 366.395 671.255ZM358.537 648.556C388.179 577.821 343.313 510.063 314.502 482.104C312.459 480.122 310.497 478.059 308.113 476.504C294.935 467.91 248.515 448.625 227.579 448.625C209.854 448.625 178.915 466.621 163.178 477.242C161.285 478.519 159.353 479.653 157.286 480.624C102.407 506.39 -4.91527 555.701 -18.624 557.758C-36.0852 560.377 -24.7354 539.423 -18.624 515.851C-12.5126 492.278 31.1403 452.991 60.8243 428.545C90.5083 404.099 84.3969 395.369 134.161 388.384C183.926 381.4 164.718 339.493 172.576 308.063C180.434 276.633 288.693 308.936 300.915 311.555C313.138 314.174 393.46 297.586 422.271 294.967C451.081 292.348 519.18 278.379 524.418 276.633C529.657 274.887 554.102 267.902 584.659 264.41C615.216 260.918 659.742 283.617 665.854 333.382C671.965 383.146 568.071 482.675 547.991 489.659C527.911 496.644 504.338 520.216 475.527 543.789C446.716 567.361 430.128 641.571 422.271 663.398C416.453 679.558 380.272 699.957 358.995 710.058C355.8 711.575 352.902 713.64 349.765 715.272C339.742 720.484 331.715 712.564 358.537 648.556ZM-67.5153 648.556C-77.5449 696.03 -134.783 748.891 -165.694 772.21C-168.327 774.197 -171.218 775.753 -174.171 777.225C-178.312 779.29 -184.439 782.672 -191.49 787.372C-204.585 796.103 -197.601 814.437 -181.013 820.548C-164.425 826.66 -174.028 824.913 -156.567 838.883C-152.914 841.806 -150.614 844.275 -149.293 846.343C-144.954 853.137 -157.952 858.613 -157.46 866.659C-157.083 872.816 -152.42 880.201 -138.233 886.901C-106.803 901.743 -67.5153 912.219 -34.3391 912.219C-9.16771 912.219 87.6208 876.097 139.994 855.239C145.38 853.094 150.169 849.784 154.213 845.63C165.136 834.408 183.003 816.861 197.894 804.833C220.594 786.499 251.151 762.926 293.931 751.577C336.711 740.227 410.048 712.289 422.271 697.447C434.493 682.605 442.351 663.398 465.923 611.887C489.496 560.377 532.276 533.312 540.133 528.074C547.991 522.835 554.102 523.708 560.214 521.962C566.325 520.216 634.424 438.149 651.885 428.545C669.346 418.941 721.73 336.874 719.984 280.998C718.587 236.297 653.631 223.958 621.328 223.376C598.919 221.921 552.88 221.63 547.991 232.107C541.88 245.203 479.892 260.918 451.955 264.41C431.652 266.948 389.162 268.237 365.186 268.67C360.781 268.749 356.447 269.553 352.253 270.9C325.416 279.516 275.118 290.384 246.786 277.506C208.372 260.045 176.068 272.267 160.353 280.998C144.638 289.729 140.273 356.081 113.207 356.081C86.1421 356.081 74.7932 384.019 67.8088 395.369C60.8244 406.719 14.5522 442.514 -19.4971 472.198C-53.5464 501.882 -54.4194 586.569 -67.5153 648.556ZM-91.0883 619.745C-103.154 681.341 -150.292 722.105 -178.438 738.625C-183.488 741.589 -188.156 745.208 -191.831 749.766L-197.662 756.996C-204.33 765.265 -207.435 775.845 -206.294 786.406L-202.022 825.916C-201.41 831.584 -199.592 837.057 -196.691 841.965L-181.625 867.461C-179.484 871.086 -178.031 875.06 -176.494 878.979C-170.697 893.754 -153.615 918.104 -117.28 931.427C-75.3736 946.792 -0.872418 933.173 31.1399 924.442C87.3066 904.944 202.259 861.931 212.736 845.867C223.213 829.803 250.86 811.818 263.375 804.833C265.994 803.669 287.819 796.801 354.172 778.641C437.113 755.942 451.955 727.131 460.685 717.527C469.415 707.924 500.847 631.967 507.83 617.125C514.814 602.283 584.659 543.789 635.298 528.074C672.121 516.646 725.68 362.483 754.139 266.103C758.917 249.922 752.778 232.551 738.729 223.209C669.692 177.304 562.699 118.149 551.483 160.516C535.767 219.884 496.481 222.503 491.242 232.107C486.004 241.71 362.903 249.568 339.33 252.187C315.757 254.806 253.771 258.298 242.421 249.568C231.072 240.837 210.991 240.837 197.022 239.091C183.053 237.345 134.161 265.283 127.178 269.648C120.194 274.013 113.207 314.174 110.589 323.778C109.418 328.076 106.734 332.392 104.036 335.87C100.624 340.269 95.6418 343.02 90.3607 344.781C79.8066 348.299 65.569 353.045 59.079 355.208C48.6023 358.7 46.8561 368.304 42.4901 382.273C39.2956 392.493 -6.49659 432.216 -34.7786 455.626C-39.6486 459.657 -43.5396 464.706 -45.9455 470.552C-57.9629 499.753 -79.1848 558.976 -91.0883 619.745ZM-106.803 586.569C-118.702 632.846 -145.62 667.13 -159.57 680.535C-161.04 681.947 -162.454 683.389 -163.752 684.961C-171.239 694.036 -183.929 709.563 -187.124 714.035C-191.489 720.146 -201.092 726.258 -215.061 740.227C-229.03 754.196 -222.919 814.437 -221.173 827.533C-219.427 840.629 -186.25 931.427 -117.28 964.603C-48.3096 997.779 36.3794 942.776 133.289 916.585C230.198 890.393 240.675 865.074 250.279 845.867C259.882 826.66 275.598 824.913 298.297 814.437C320.997 803.96 401.317 786.499 424.017 776.895C446.718 767.292 486.878 731.496 488.624 717.527C490.37 703.558 495.608 688.716 507.83 659.032C520.052 629.349 604.741 568.234 627.439 557.758C650.138 547.281 738.319 465.213 767.129 395.369C795.94 325.524 793.321 252.187 767.129 184.088C740.938 115.99 566.326 21.6995 542.753 21.6995C519.179 21.6995 513.943 54.8757 516.561 63.6063C519.179 72.3369 522.673 150.039 521.8 164.881C520.927 179.723 483.385 225.122 441.479 219.884C411.661 216.157 380.092 217.678 363.851 219.289C360.31 219.64 356.884 220.605 353.536 221.81C335.73 228.22 300.708 236.683 270.359 230.361C228.452 221.63 214.483 213.772 192.657 211.153C170.83 208.534 162.1 222.503 128.924 233.853C102.383 242.933 97.4935 270.812 98.3666 283.617C98.3666 297.586 90.8581 326.397 60.8243 329.889C23.282 334.255 21.5374 362.193 7.56729 382.273C-6.40286 402.353 -54.4194 434.656 -67.5153 461.721C-80.6111 488.786 -91.0883 525.454 -106.803 586.569ZM-106.803 531.566C-114.209 567.246 -147.082 627.421 -164.301 655.959C-165.543 658.016 -166.976 659.933 -168.578 661.724L-178.521 672.836C-180.179 674.688 -181.999 676.373 -183.962 677.898C-197.397 688.336 -221.483 707.812 -229.903 717.527C-241.253 730.623 -244.745 827.533 -243.872 872.932C-242.999 918.33 -138.233 994.287 -85.8487 1005.64C-45.1357 1014.46 120.824 953.678 205.499 919.52C210.295 917.585 214.627 914.733 218.333 911.126C245.449 884.738 292.677 839.502 301.789 833.644C314.012 825.786 418.779 802.214 443.225 796.102C467.67 789.991 485.132 758.561 488.624 756.815C492.116 755.069 533.15 685.224 537.515 673.874C541.88 662.525 560.214 636.333 573.31 628.475C586.407 620.618 694.666 521.962 726.969 503.628C759.272 485.294 812.529 371.796 830.863 317.667C849.197 263.537 801.179 184.088 778.479 128.213C761.398 86.1663 637.408 30.5248 566.796 3.72074C558.574 0.599371 549.556 0.43134 541.166 3.0725L525.219 8.093C513.672 11.7282 504.393 20.3971 499.981 31.6703L493.993 46.9739C492.175 51.6188 491.296 56.5646 490.963 61.5414C490.432 69.4873 489.046 80.0812 486.005 87.1789C480.767 99.4017 471.163 107.259 472.036 114.244C472.909 121.228 475.528 123.847 479.02 132.578C482.512 141.309 474.655 169.246 441.479 181.469C418.215 190.04 398.617 186.716 389.037 183.021C386.696 182.118 384.408 181.068 381.983 180.42C369.733 177.149 348.056 173.906 336.711 181.469C320.995 191.946 298.297 193.692 290.44 192.819C284.691 192.18 264.388 189.059 252.5 187.194C250.436 186.871 248.356 186.708 246.267 186.708H203.143C200.812 186.708 198.492 186.504 196.197 186.103C185.274 184.192 166.5 180.975 157.735 179.723C151.492 178.831 146.815 179.315 143.794 180.085C141.344 180.709 139.085 181.927 136.866 183.138C130.423 186.652 120.169 194.02 113.207 205.042C102.729 221.63 81.7785 221.63 74.794 233.853C67.8096 246.076 67.8088 240.837 67.8088 269.648C67.8088 298.459 60.8243 294.967 56.4598 295.84C52.0953 296.713 1.4571 329.889 0.584046 337.747C-0.289013 345.604 -10.7669 373.542 -31.7191 388.384C-48.4809 400.258 -65.477 423.598 -71.8798 433.783C-80.3194 450.953 -99.1194 494.548 -106.803 531.566ZM483.386 788.245C477.919 794.926 461.491 805.614 450.985 811.923C448.163 813.618 445.115 814.89 441.947 815.787L369.718 836.229C362.197 838.357 359.12 847.343 363.756 853.635V853.635C365.451 855.935 367.961 857.5 370.772 858.009L451.31 872.582C455.782 873.391 460.359 873.432 464.844 872.704L538.009 860.823C551.797 858.584 563.419 849.314 568.667 836.368L595.337 770.581C598.063 763.859 598.909 756.521 597.784 749.354L590.652 703.889C588.21 688.319 570.757 680.199 557.274 688.359V688.359C554.05 690.311 551.376 693.053 549.506 696.326L526.343 736.861C525.063 739.1 523.577 741.202 521.893 743.154C510.095 756.829 489.227 781.106 483.386 788.245ZM-186.25 645.936L-152.702 597.659C-151.207 595.509 -149.925 593.221 -148.896 590.813C-143.688 578.632 -135.613 558.682 -135.613 554.265C-135.613 549.376 -119.898 488.204 -112.04 458.229C-110.003 447.461 -104.008 423.656 -96.3252 414.576C-88.6423 405.496 -68.0963 389.257 -58.7837 382.273C-47.4339 373.542 -24.5598 353.986 -23.8614 345.604C-22.9883 335.128 -27.3556 313.301 -18.624 304.57C-9.89242 295.84 24.1579 273.14 30.2683 273.14C36.3787 273.14 27.6491 238.218 37.2527 226.868C44.2718 218.573 65.9133 203.331 78.4774 194.989C80.6703 193.533 82.7272 191.893 84.6102 190.053L119.32 156.151C123.104 152.367 135.385 145.499 154.243 148.293C171.913 150.911 228.27 158.333 259.24 162.369C263.14 162.878 267.092 162.806 270.972 162.16L333.219 151.785C345.151 148.293 375.126 142.356 399.572 146.547C410.629 148.442 419.484 149.219 426.216 149.392C436.069 149.647 447.521 146.631 449.336 136.943V136.943C451.193 127.038 453.187 104.971 454.225 91.7745C454.465 88.7164 455.006 85.6908 456.126 82.8351C458.283 77.3402 462.019 69.4472 466.798 63.6063C471.052 58.4059 465.414 55.8455 458.708 54.7339C452.833 53.7599 447.149 56.6757 443.378 61.2848V61.2848C442.119 62.8238 441.098 64.5431 440.35 66.3853L435.704 77.8214C432.2 86.4456 425.968 95.5381 424.018 104.64V104.64V104.64C421.457 116.59 411.123 124.761 398.914 125.3C394.906 125.478 390.665 125.593 386.476 125.593C373.651 125.593 311.415 132.66 278.88 136.55C276.691 136.811 274.496 136.901 272.297 136.757C264.649 136.256 251.178 134.973 239.802 132.578C223.214 129.086 155.989 120.355 137.654 126.467C119.32 132.578 44.2372 211.153 33.7605 211.153C23.2838 211.153 1.45734 215.519 7.56875 205.042C13.6802 194.565 38.1258 154.404 42.4911 145.674C46.8564 136.943 74.7953 88.052 71.302 67.9716C69.9759 60.3485 71.219 54.2588 73.3891 49.684C76.6767 42.7537 85.5283 43.7833 90.9521 49.2072V49.2072C92.9538 51.2088 94.4806 53.6703 94.9264 56.4657C96.0955 63.7963 96.1839 76.1354 90.5093 88.052C83.5248 102.719 87.5991 113.953 90.5093 117.736C92.838 121.81 99.0665 127.514 105.351 117.736C113.207 105.513 118.447 98.5287 131.543 98.5287C144.639 98.5287 259.883 121.228 284.328 117.736C308.774 114.244 370.761 114.244 383.857 106.386C396.953 98.5287 408.304 102.894 415.287 84.5597C419.726 72.9069 423.724 63.0543 426.056 57.4534C426.999 55.1893 427.326 52.7185 426.98 50.2907L426.025 43.6085C425.089 37.0542 417.668 33.6844 412.117 37.2927V37.2927C408.806 39.4447 407.319 43.4874 407.936 47.3877C409.381 56.5266 409.346 68.8072 402.191 73.21C390.841 80.1944 394.334 84.5597 373.38 88.052C352.427 91.5442 286.074 100.275 266.867 100.275C247.66 100.275 181.307 85.4328 157.735 85.4328C134.162 85.4328 107.097 89.7981 106.224 83.6867C105.822 80.8706 107.331 75.9883 109.184 71.4089C111.542 65.5783 113.423 59.4429 112.821 53.1822C111.222 36.5458 104.402 16.789 85.271 26.0648C56.4598 40.0338 52.0947 59.241 52.0947 63.6063C52.0947 67.9716 37.2527 100.275 33.7605 115.117C30.2683 129.959 22.4107 144.801 22.4107 148.293C22.4107 151.785 -8.14529 198.93 -13.3847 205.042C-18.624 211.153 -42.1966 289.729 -42.1966 311.555C-42.1966 333.382 -43.9417 347.35 -60.5298 357.827C-77.1179 368.304 -116.406 400.607 -122.517 414.576C-128.628 428.545 -167.043 466.086 -171.408 466.959C-175.774 467.832 -184.504 478.309 -191.489 478.309C-192.549 478.309 -193.374 478.833 -194.008 479.731C-201.437 490.262 -187.701 503.114 -175.774 507.993V507.993C-171.117 510.03 -162.328 518.47 -164.424 535.931C-167.043 557.758 -174.027 600.537 -184.504 607.522V607.522C-196.164 615.295 -202.982 596.841 -194.777 585.48L-187.996 576.092C-185.377 571.144 -180.139 559.154 -180.139 550.773C-180.139 540.296 -172.281 522.835 -180.139 519.343C-187.996 515.851 -210.696 509.739 -210.696 494.024C-210.696 478.309 -211.569 452.99 -191.489 443.387C-171.408 433.783 -98.9444 363.065 -96.3252 357.827C-93.706 352.589 -76.2469 340.366 -67.5153 299.332C-58.7837 258.298 -50.9282 198.93 -42.1966 190.2C-33.465 181.469 -6.40066 155.277 0.584046 148.293C7.56875 141.309 25.0299 94.1634 27.6491 81.0675C30.2683 67.9716 30.2683 54.8757 30.2683 52.2566C30.2683 49.6374 39.8719 37.4146 27.6491 42.6529C15.4263 47.8913 12.8071 61.8602 10.1879 71.4639C7.56875 81.0675 2.33142 106.386 -8.1463 123.847C-18.624 141.309 -44.8138 150.039 -56.1645 170.119C-67.5153 190.2 -84.1024 283.617 -103.31 295.84C-122.517 308.063 -145.216 342.112 -158.312 362.193C-171.408 382.273 -166.17 395.369 -184.504 395.369C-202.838 395.369 -205.458 391.877 -198.473 382.273C-191.489 372.669 -173.154 348.224 -164.424 329.889C-155.693 311.555 -119.025 238.218 -116.406 221.63C-113.786 205.042 -108.548 179.723 -108.548 156.151C-108.548 132.578 -98.0713 125.593 -51.7992 98.5287C-5.52712 71.4639 -3.78101 61.8602 -3.78101 52.2566V52.2566C-3.78101 46.657 -15.0894 49.4262 -19.0591 53.3755C-22.8085 57.1056 -28.5104 60.7104 -36.9572 63.6063C-67.5153 74.083 -100.691 94.1634 -108.548 81.0675C-116.406 67.9716 -133.867 40.0338 -139.978 46.1452C-146.09 52.2566 -164.424 100.275 -164.424 121.228C-164.424 142.182 -154.82 175.358 -153.947 190.2C-153.074 205.042 -146.963 235.599 -164.424 256.552C-181.885 277.506 -179.266 272.267 -191.489 283.617C-200.716 292.185 -215.333 347.555 -222.576 378.711C-223.396 382.24 -223.701 385.853 -223.522 389.471L-211.19 638.582C-210.895 644.531 -206.808 649.616 -201.062 651.183L-200.599 651.309C-195.159 652.793 -189.379 650.629 -186.25 645.936V645.936Z" stroke="#C3D3F0" stroke-opacity="0.04" stroke-width="2"/>
</svg>
