<svg width="423" height="444" viewBox="0 0 423 444" fill="none" xmlns="http://www.w3.org/2000/svg">
<path d="M345.073 444L346.573 443.301M417.073 444L433.289 413.703C435.112 410.297 435.986 406.464 435.821 402.605L434.898 381.077C434.736 377.309 430.978 374.769 427.421 376.024V376.024C426.537 376.336 425.744 376.865 425.117 377.563L419.74 383.537C417.967 385.507 416.422 387.664 415.047 389.929C410.965 396.649 403.931 407.308 397.573 414C389.972 422 388.74 423.667 389.073 423.5L346.573 443.301M417.073 444L423.315 429.782C425.141 425.625 426.245 421.186 426.58 416.658L427.014 410.795C427.054 410.266 427.04 409.735 426.974 409.209L425.28 395.657C425.019 393.569 422.365 392.839 421.073 394.5V394.5L412.295 408.896C409.84 412.923 408.229 417.408 407.562 422.077L407.08 425.455C406.745 427.795 406.888 430.207 407.485 432.494V432.494C408.798 437.526 412.288 441.786 416.989 444.013V444.013M417.073 444L416.989 444.013M346.573 443.301L359.388 447.971C365.741 450.286 372.577 450.952 379.258 449.909L416.989 444.013M221.072 288C223.239 288.167 227.772 289.5 228.572 293.5C229.572 298.5 231.572 306 225.072 310.5C220.345 313.773 212.78 311.508 208.689 309.567C207.936 309.21 207.252 308.729 206.616 308.191L203.61 305.647C202.044 304.323 201.322 302.252 201.724 300.24V300.24C201.951 299.108 202.52 298.072 203.355 297.273L208.141 292.696C211.601 289.385 216.294 287.682 221.072 288V288ZM174.072 368C170.119 381.177 155.721 395.485 145.456 403.94C141.655 407.072 137.128 409.138 132.362 410.381L113.773 415.23C108.304 416.657 102.483 415.39 98.1015 411.82L97.9377 411.687C93.9099 408.405 91.5724 403.485 91.5724 398.289V398.289C91.5724 397.1 91.6952 395.913 91.939 394.749L100.572 353.5L103.778 341.034C104.624 337.746 106.385 334.765 108.858 332.438V332.438C111.905 329.57 115.858 327.857 120.035 327.596L129.572 327L148.649 324.971C151.587 324.658 154.553 324.7 157.481 325.096V325.096C166.549 326.321 175.812 330.436 179.238 338.922C179.687 340.035 179.989 341.084 180.072 342C180.572 347.5 180.072 348 174.072 368ZM148.072 388L157.162 378.574C160.084 375.544 162.509 372.071 164.348 368.285L167.727 361.328C169.279 358.134 170.259 354.693 170.625 351.161V351.161C171.243 345.187 170.117 338.785 164.896 335.818C161.396 333.829 156.517 332.195 150.072 332C136.872 331.6 127.572 333.167 124.572 334C120.739 334.833 112.672 338.5 111.072 346.5C109.072 356.5 102.572 374 102.072 381.5C101.572 389 100.572 396 102.072 400.5C103.572 405 125.572 406.5 129.572 403.5C132.772 401.1 143.239 392.167 148.072 388ZM116.572 368C115.279 355.065 125.227 347.577 133.313 344.213C136.706 342.802 140.47 342.467 144.039 343.346C147.294 344.148 150.903 345.59 153.072 348C157.572 353 157.072 355 156.072 363.5C155.272 370.3 138.072 378.667 129.572 382C125.906 384 118.172 384 116.572 368ZM221.072 251C206.603 245.001 186.659 259.318 175.525 269.983C172.822 272.572 169.968 275.015 166.442 276.273C161.475 278.044 154.252 280.182 151.073 280.5C149.765 280.631 148.422 281.121 147.148 281.786C142.625 284.148 138.735 287.697 134.011 289.624C127.922 292.107 120.262 294.727 115.073 295C109.623 295.287 99.2185 302.962 90.9409 309.986C85.3315 314.746 81.5454 321.255 79.8081 328.404C77.8466 336.475 75.8359 345.551 75.5726 349.5C75.0726 357 69.0726 374 66.0726 383C65.1495 385.77 63.6542 387.987 62.0023 389.714C57.9387 393.963 52.2372 396.468 48.121 400.666C40.7811 408.152 32.1758 418.561 31.5724 425.5V425.5C30.7064 435.46 43.7354 440.315 50.4122 447.756C51.7291 449.223 53.1224 450.808 54.5724 452.5C63.5724 463 129.572 447 146.072 444.5C157.669 442.743 179.635 416.93 192.71 399.61C195.974 395.286 198.028 390.197 200.236 385.25C202.786 379.537 207.095 372.664 213.572 368C223.572 360.8 248.739 339.667 260.072 330C264.072 326.333 271.672 314.9 270.072 298.5C268.072 278 241.572 259.5 221.072 251ZM149.573 269L104.17 291.702C101.777 292.898 99.5101 294.329 97.4119 295.987C95.5204 297.482 93.2721 299.27 91.0006 301.095C85.4398 305.563 81.3184 311.545 79.0373 318.304C76.6324 325.43 73.8408 333.938 72.0727 340C69.9677 347.217 67.3542 356.393 65.549 362.77C64.5666 366.241 63.1507 369.577 61.1604 372.585C56.6976 379.33 50.0347 388.269 45.5727 390.5C38.5727 394 26.0726 410.5 23.0726 413.5C21.9768 414.596 21.3257 416.289 20.9576 418.029C20.2016 421.6 21.198 425.242 22.4313 428.678L26.3151 439.497C27.1517 441.827 28.2028 444.075 29.455 446.211L30.8333 448.562C34.2695 454.424 39.0951 459.422 45.2829 462.229C58.6086 468.274 78.9629 474.574 95.5726 470.5C114.119 465.951 141.926 455.713 157.97 449.427C162.02 447.841 165.762 445.569 169.006 442.672C179.31 433.47 194.496 418.974 198.573 411.5C202.752 403.837 212.038 394.101 217.779 388.632C219.29 387.193 220.95 385.927 222.697 384.787L263.677 358.043C266.265 356.353 268.649 354.37 270.781 352.131L281.948 340.406C285.66 336.509 288.547 331.903 290.436 326.864L290.648 326.299C291.595 323.773 292.31 321.165 292.551 318.478C293.267 310.484 293.404 296.323 290.073 282C286.073 264.8 269.739 249.5 262.073 244C256.073 240.667 241.173 233.8 229.573 233C215.073 232 216.573 236.5 201.072 243C188.672 248.2 161.572 262.5 149.573 269ZM362.573 205.5C359.577 206.677 356.991 207.093 354.785 207.001C346.268 206.646 342.459 191.77 350.552 189.091C350.731 189.031 350.905 189 351.073 189C352.54 189 355.078 187.879 357.362 186.665C359.885 185.325 362.07 183.461 364.255 181.62C368.743 177.838 376.375 172.293 385.573 168C400.573 161 403.073 168.5 402.573 171.5C402.073 174.5 399.573 176.5 397.573 180C395.573 183.5 389.573 189 388.073 191C386.573 193 376.573 200 362.573 205.5ZM381.573 219C376.912 225.811 359.053 230.989 348.077 233.311C345.748 233.803 343.583 233.336 341.849 231.705C338.023 228.108 330.797 220.556 324.073 211C314.573 197.5 321.573 208.5 296.073 195C290.622 192.114 286.668 189.854 283.854 188.098C278.349 184.663 282.23 181.232 288.502 179.566C290.509 179.033 292.725 178.494 295.073 178C304.573 176 338.073 174 351.073 175.5V175.5C358.921 176.406 366.932 169.362 373.68 165.253C378.475 162.332 384.416 158.924 391.073 155.5C408.573 146.5 411.573 159 412.573 169C413.573 179 402.573 187.5 395.573 196C388.573 204.5 388.073 209.5 381.573 219ZM370.573 153.5C380.116 151.412 397.664 143.636 410.949 137.259C418.552 133.609 427.552 131.645 434.406 136.559C437.142 138.521 439.73 141.123 441.573 144.5C443.572 148.165 444.831 151.958 445.595 155.401C447.181 162.541 444.311 169.637 439.784 175.382C434.342 182.287 427.828 190.049 424.073 193C417.073 198.5 418.573 203.5 413.573 213.5C409.573 221.5 396.906 231.167 391.073 235C382.739 240.667 364.573 252.7 358.573 255.5C355.889 256.752 353.506 258.385 351.557 259.986C348.403 262.575 343.917 263.594 340.31 261.685V261.685C338.852 260.913 337.657 259.723 336.878 258.267L326.573 239C321.739 230 309.873 210.7 301.073 205.5C292.273 200.3 275.739 197.667 268.573 197C260.406 195.667 242.473 192.2 236.073 189C230.804 186.366 230.144 178.58 230.633 173.12C230.82 171.029 230.927 168.824 231.995 167.016C234.193 163.296 240.733 159.743 256.073 163.5C280.573 169.5 291.073 165.5 299.573 166.5C308.073 167.5 354.573 157 370.573 153.5ZM316.573 347C327.621 332.031 331.286 306.953 331.954 292.704C332.101 289.574 331.705 286.465 330.979 283.417C328.875 274.59 325.574 260.675 323.573 252C320.573 239 296.073 227.5 276.073 211.5C260.073 198.7 235.406 203.833 225.072 208C197.072 222.333 138.373 251.2 127.573 252C114.073 253 128.573 233 131.073 229C133.573 225 159.073 205.5 166.573 198.5C174.073 191.5 184.573 197 198.573 193.5C212.573 190 212.073 185 215.073 173.5V173.5C215.304 172.612 218.686 158.671 219.07 157.838L221.003 153.651C221.049 153.551 221.078 153.445 221.1 153.337C221.62 150.836 226.634 147.195 243.073 151.5C264.073 157 293.073 152 297.573 151.5C302.073 151 331.573 141.5 342.073 141C352.573 140.5 408.073 130.5 417.573 125C427.073 119.5 451.573 126.5 462.573 141V141C469.194 149.728 462.474 161.048 456.512 170.239L432.098 207.877C430.751 209.955 429.211 211.897 427.526 213.712C423.813 217.715 418.606 223.517 416.073 227C412.073 232.5 379.073 255.5 370.073 260.5C361.073 265.5 351.073 290.5 348.573 309C347.05 320.269 342.725 329.935 339.35 335.744C337.652 338.666 335.242 341.07 332.548 343.11C320.735 352.058 305.492 362.012 316.573 347ZM312.073 334C328.608 294.541 304.658 256.699 288.155 239.965C286.157 237.938 284.095 235.933 281.629 234.513C272.494 229.252 248.34 219.5 237.073 219.5C227.361 219.5 210.722 228.934 201.408 235.077C199.502 236.334 197.537 237.488 195.47 238.457C163.665 253.372 103.813 280.839 96.0727 282C86.0727 283.5 92.5727 271.5 96.0727 258C99.5727 244.5 124.573 222 141.573 208C158.573 194 155.073 189 183.573 185C212.073 181 201.072 157 205.573 139C210.073 121 272.073 139.5 279.073 141C286.073 142.5 332.073 133 348.573 131.5C365.073 130 404.073 122 407.073 121C410.073 120 424.073 116 441.573 114C459.073 112 484.573 125 488.073 153.5C491.573 182 432.073 239 420.573 243C409.073 247 395.573 260.5 379.073 274C362.573 287.5 353.073 330 348.573 342.5C345.422 351.252 326.72 362.175 314.392 368.229C311.218 369.788 308.413 372.525 304.901 372.938C300.448 373.462 298.717 365.872 312.073 334ZM68.0727 334C62.5067 360.346 31.5547 389.588 13.5345 403.527C10.9249 405.545 8.01413 407.107 5.10588 408.665C2.91348 409.839 0.14614 411.451 -2.92733 413.5C-10.4273 418.5 -6.42733 429 3.07267 432.5C12.5727 436 7.07267 435 17.0727 443C17.261 443.151 17.4431 443.299 17.619 443.446C23.8141 448.604 13.6728 457.27 18.4456 463.767C20.0889 466.004 22.9467 468.316 27.5726 470.5C45.5726 479 68.0727 485 87.0727 485C100.944 485 152.792 465.845 183.411 453.756C188.803 451.627 193.611 448.297 197.693 444.181C203.951 437.871 212.656 429.49 220.073 423.5C233.073 413 250.573 399.5 275.073 393C299.573 386.5 341.573 370.5 348.573 362C355.573 353.5 360.073 342.5 373.573 313C387.073 283.5 411.573 268 416.073 265C420.573 262 424.073 262.5 427.573 261.5C431.073 260.5 470.073 213.5 480.073 208C490.073 202.5 520.073 155.5 519.073 123.5C518.273 97.9 481.073 90.8334 462.573 90.5001C449.739 89.6667 423.373 89.5001 420.573 95.5001C417.073 103 381.573 112 365.573 114C354.711 115.358 332.758 116.092 318.722 116.384C314.317 116.476 309.972 117.296 305.752 118.561C289.898 123.31 263.384 128.46 248.073 121.5C226.073 111.5 207.572 118.5 198.573 123.5C189.573 128.5 187.073 166.5 171.572 166.5C156.072 166.5 149.573 182.5 145.573 189C141.573 195.5 115.073 216 95.5726 233C76.0726 250 75.5726 298.5 68.0727 334ZM54.5724 317.5C47.8847 351.642 22.3821 374.608 6.13509 384.627C2.24034 387.028 -1.41567 389.846 -4.2881 393.408V393.408C-9.49875 399.869 -11.9255 408.138 -11.0334 416.39L-9.35678 431.899C-8.74394 437.567 -6.92625 443.04 -4.02557 447.948L1.34074 457.03C3.48223 460.654 4.91454 464.663 6.75464 468.449C10.8896 476.957 20.693 489.077 39.5724 496C63.5722 504.8 106.239 497 124.572 492C156.739 480.833 222.572 456.2 228.572 447C234.572 437.8 250.406 427.5 257.573 423.5C259.073 422.833 271.573 418.9 309.573 408.5C357.073 395.5 365.573 379 370.573 373.5C375.572 368 393.573 324.5 397.573 316C401.572 307.5 441.573 274 470.573 265C490.249 258.894 518.268 181.629 535.172 126.474C540.115 110.343 533.961 92.9031 519.727 83.8464C480.627 58.9682 428.471 32.2184 422.573 54.5C413.572 88.5 391.073 90 388.073 95.5001C385.073 101 314.573 105.5 301.073 107C287.572 108.5 252.073 110.5 245.573 105.5C239.073 100.5 227.573 100.5 219.573 99.5C211.573 98.5 183.573 114.5 179.573 117C175.574 119.5 171.572 142.5 170.073 148C169.708 149.338 169.087 150.68 168.349 151.945C165.542 156.753 160.346 159.409 155.065 161.169C149.658 162.972 143.622 164.984 140.573 166C134.573 168 133.573 173.5 131.073 181.5C129.358 186.986 106.214 207.314 89.9806 220.881C85.1298 224.935 81.2192 229.993 78.886 235.868C71.8467 253.595 60.9062 285.165 54.5724 317.5ZM45.5727 298.5C39.015 324.003 24.4935 343.145 16.2885 351.394C14.8509 352.84 13.4218 354.285 12.126 355.859C7.78779 361.128 1.2888 369.098 -0.426888 371.5C-2.92689 375 -8.42689 378.5 -16.4269 386.5C-24.4269 394.5 -20.9269 429 -19.9269 436.5C-18.9269 444 0.0731125 496 39.5724 515C79.0717 534 127.573 502.5 183.073 487.5C238.573 472.5 244.573 458 250.073 447C255.573 436 264.573 435 277.573 429C290.573 423 336.573 413 349.573 407.5C362.574 402 385.573 381.5 386.573 373.5C387.573 365.5 390.573 357 397.573 340C404.572 323 453.073 288 466.073 282C479.072 276 529.573 229 546.073 189C562.573 149 561.073 107 546.073 68C531.073 29 431.073 -25 417.573 -25C404.072 -25 401.073 -6 402.573 -1C404.072 4 406.073 48.5 405.573 57C405.073 65.5 383.573 91.5 359.573 88.5C343.802 86.5286 327.176 87.1211 317.399 87.9499C313.854 88.2504 310.422 89.2334 307.043 90.3497C296.35 93.8825 277.796 97.8797 261.573 94.5C237.573 89.5 229.573 85 217.073 83.5C204.573 82 199.573 90 180.573 96.5C165.373 101.7 162.573 117.667 163.073 125C163.073 133 158.773 149.5 141.573 151.5C120.072 154 119.073 170 111.072 181.5C103.072 193 75.5726 211.5 68.0727 227C60.5727 242.5 54.5724 263.5 45.5727 298.5ZM45.5727 267C41.4431 286.896 23.4867 320.09 13.4408 336.911C12.2088 338.974 10.7671 340.901 9.16493 342.691L5.56436 346.715C3.90684 348.568 2.07933 350.257 0.121931 351.789C-7.73597 357.939 -20.3582 368.228 -24.9269 373.5C-31.4269 381 -33.4269 436.5 -32.9269 462.5C-32.4269 488.5 27.5726 532 57.5731 538.5C80.4047 543.447 172.014 510.173 221.344 490.42C226.145 488.498 230.465 485.646 234.176 482.044C249.943 466.741 274.614 443.188 279.573 440C286.573 435.5 346.573 422 360.573 418.5C374.573 415 384.573 397 386.573 396C388.573 395 412.073 355 414.573 348.5C417.073 342 427.573 327 435.073 322.5C442.574 318 504.573 261.5 523.073 251C541.573 240.5 572.073 175.5 582.573 144.5C593.073 113.5 565.573 68 552.573 36C543.083 12.639 475.967 -18.0501 435.044 -33.8781C427.944 -36.624 420.138 -36.7613 412.877 -34.4755V-34.4755C402.884 -31.3294 394.853 -23.8269 391.035 -14.0705L390.618 -13.0037C388.936 -8.70581 388.152 -4.12158 387.691 0.470598C387.283 4.53991 386.493 9.18554 385.073 12.5C382.074 19.5 376.573 24 377.073 28C377.573 32 379.073 33.5 381.073 38.5C383.073 43.5 378.573 59.5 359.573 66.5C347.38 70.992 336.947 69.7789 331.059 67.9187C328.666 67.1627 326.378 66.0866 323.937 65.5048C316.761 63.7943 305.611 62.4744 299.573 66.5C290.572 72.5 277.573 73.5 273.073 73C269.986 72.657 259.569 71.0638 252.67 69.9862C250.606 69.6638 248.524 69.5 246.435 69.5H224.575C222.244 69.5 219.922 69.2959 217.626 68.8963C211.269 67.7901 201.718 66.1635 197.073 65.5C194.457 65.1262 192.32 65.1745 190.685 65.4C188.18 65.7454 185.873 66.9509 183.716 68.2692C180.058 70.5041 175.084 74.4404 171.572 80C165.572 89.5 153.573 89.5 149.573 96.5C145.573 103.5 145.573 100.5 145.573 117C145.573 133.5 141.573 131.5 139.073 132C136.574 132.5 107.573 151.5 107.073 156C106.573 160.5 100.572 176.5 88.5731 185C78.9737 191.8 69.24 205.167 65.5731 211C60.7398 220.833 49.973 245.8 45.5727 267ZM383.573 414C380.66 417.561 372.309 423.109 366.315 426.774C363.847 428.283 361.166 429.398 358.383 430.186L318.476 441.48C314.169 442.699 312.406 447.845 315.061 451.449V451.449C316.032 452.766 317.47 453.662 319.08 453.954L362.317 461.777C366.788 462.587 371.365 462.628 375.851 461.899L405.368 457.106C419.156 454.867 430.777 445.597 436.025 432.652L447.031 405.503C449.022 400.594 449.64 395.235 448.819 390.002L445.005 365.689C443.606 356.772 433.611 352.122 425.889 356.796V356.796C424.042 357.913 422.511 359.484 421.44 361.358L408.996 383.134C407.717 385.373 406.227 387.479 404.543 389.432C397.662 397.413 386.746 410.122 383.573 414ZM0.0732422 332.5L18.3263 306.233C19.8207 304.083 21.1053 301.795 22.1239 299.382C25.0819 292.377 29.0732 282.35 29.0732 280C29.0732 277.2 38.0732 242.167 42.5732 225C43.7399 218.833 47.1732 205.2 51.5732 200C55.9732 194.8 67.7399 185.5 73.0732 181.5C79.5732 176.5 92.6732 165.3 93.0732 160.5C93.5732 154.5 91.0721 142 96.0727 137C101.073 132 120.574 119 124.073 119C127.573 119 122.573 99 128.073 92.5C131.842 88.046 142.972 80.095 150.277 75.1822C152.461 73.7133 154.522 72.0736 156.405 70.2344L175.073 52C177.24 49.8333 184.273 45.9 195.073 47.5C204.733 48.9311 234.582 52.8691 252.702 55.2349C256.601 55.7441 260.545 55.6714 264.424 55.0249L297.573 49.5C304.406 47.5 321.573 44.1 335.573 46.5C341.906 47.5856 346.977 48.0301 350.832 48.1297C356.475 48.2754 363.033 46.5484 364.073 41V41C365.049 35.7962 366.091 24.7304 366.715 17.1024C366.965 14.045 367.492 11.0007 368.717 8.18855C369.989 5.27146 371.83 1.74115 374.073 -1C376.51 -3.97827 373.281 -5.4446 369.441 -6.08124C366.076 -6.63905 362.821 -4.96915 360.661 -2.32952V-2.32952C359.94 -1.44817 359.355 -0.463505 358.927 0.591527L356.266 7.14096C354.259 12.08 350.69 17.2873 349.573 22.5V22.5V22.5C348.107 29.3438 342.189 34.0233 335.196 34.3322C332.901 34.4336 330.472 34.5 328.073 34.5C320.909 34.5 286.818 38.3509 267.855 40.6074C265.666 40.8678 263.468 40.9594 261.27 40.7932C256.769 40.4526 249.935 39.7341 244.073 38.5C234.573 36.5 196.073 31.5 185.573 35C175.073 38.5 132.073 83.5 126.073 83.5C120.073 83.5 107.573 86 111.073 80C114.573 74 128.573 51 131.073 46C133.573 41 149.574 13 147.573 1.5C146.814 -2.86578 147.526 -6.35333 148.769 -8.97332C150.651 -12.9423 155.721 -12.3526 158.827 -9.24639V-9.24639C159.973 -8.10007 160.848 -6.69036 161.103 -5.08944C161.772 -0.891221 161.823 6.1754 158.573 13C154.573 21.4 156.907 27.8333 158.573 30C159.907 32.3333 163.474 35.6 167.073 30C171.572 23 174.573 19 182.073 19C189.573 19 255.573 32 269.573 30C283.573 28 319.073 28 326.573 23.5C334.073 19 340.574 21.5 344.573 11C347.115 4.32645 349.405 -1.31616 350.741 -4.52377C351.28 -5.82042 351.468 -7.23545 351.27 -8.62588L350.723 -12.4527C350.187 -16.2064 345.937 -18.1363 342.758 -16.0698V-16.0698C340.861 -14.8373 340.01 -12.5221 340.363 -10.2884C341.191 -5.05455 341.171 1.97855 337.073 4.5C330.573 8.5 332.573 11 320.573 13C308.573 15 270.573 20 259.573 20C248.573 20 210.573 11.5 197.073 11.5C183.573 11.5 168.073 14 167.573 10.5C167.457 9.68747 167.619 8.57458 167.944 7.33484C169.538 1.2506 171.951 -4.83931 170.781 -11.0191C169.206 -19.3354 164.999 -27.0698 155.573 -22.5C139.073 -14.5 136.573 -3.5 136.573 -1C136.573 1.5 128.073 20 126.073 28.5C124.073 37 119.573 45.5 119.573 47.5C119.573 49.5 102.074 76.5 99.0732 80C96.0727 83.5 82.5726 128.5 82.5726 141C82.5726 153.5 81.5732 161.5 72.0732 167.5C62.5732 173.5 40.0732 192 36.5732 200C33.0732 208 11.0732 229.5 8.57324 230C6.07324 230.5 1.07324 236.5 -2.92676 236.5C-3.5338 236.5 -4.00649 236.8 -4.36941 237.314C-8.62402 243.345 -0.757868 250.705 6.07324 253.5V253.5C8.73991 254.667 13.7732 259.5 12.5732 269.5C11.0732 282 7.07324 306.5 1.07324 310.5V310.5C-5.60464 314.952 -9.50891 304.383 -4.80987 297.877L-0.926758 292.5C0.573242 289.667 3.57324 282.8 3.57324 278C3.57324 272 8.07324 262 3.57324 260C-0.926758 258 -13.9268 254.5 -13.9268 245.5C-13.9268 236.5 -14.4268 222 -2.92676 216.5C8.57324 211 50.0732 170.5 51.5732 167.5C53.0732 164.5 63.0721 157.5 68.0727 134C73.0732 110.5 77.5721 76.5 82.5726 71.5C87.5732 66.5 103.073 51.5 107.073 47.5C111.073 43.5 121.073 16.5 122.573 9C124.073 1.5 124.073 -6 124.073 -7.5C124.073 -9 129.573 -16 122.573 -13C115.573 -10 114.073 -2 112.573 3.5C111.073 9 108.074 23.5 102.073 33.5C96.0727 43.5 81.0738 48.5 74.5732 60C68.0727 71.5 58.5732 125 47.5732 132C36.5732 139 23.5732 158.5 16.0732 170C8.57324 181.5 11.5732 189 1.07324 189C-9.42676 189 -10.9268 187 -6.92676 181.5C-2.92676 176 7.57324 162 12.5732 151.5C17.5732 141 38.5732 99 40.0732 89.5C41.5732 80 44.5732 65.5 44.5732 52C44.5732 38.5 50.5732 34.5 77.0732 19C103.573 3.5 104.573 -2 104.573 -7.5V-7.5C104.573 -10.7069 98.0969 -9.12093 95.8235 -6.85918C93.6762 -4.72296 90.4108 -2.65852 85.5732 -1C68.0727 5 49.0732 16.5 44.5732 9C40.0732 1.5 30.0732 -14.5 26.5732 -11C23.0732 -7.5 12.5732 20 12.5732 32C12.5732 44 18.0732 63 18.5732 71.5C19.0732 80 22.5732 97.4999 12.5732 109.5C2.57324 121.5 4.07324 118.5 -2.92676 125C-7.99318 129.705 -15.8971 159.047 -20.196 177.184C-21.0314 180.709 -21.336 184.334 -21.1569 187.952L-14.2095 328.288C-14.0409 331.695 -11.7003 334.607 -8.40924 335.505L-8.14452 335.577C-5.02852 336.427 -1.71833 335.187 0.0732422 332.5V332.5Z" stroke="white" stroke-opacity="0.28" stroke-width="2"/>
</svg>
