<svg xmlns="http://www.w3.org/2000/svg" width="232" height="70" viewBox="0 0 232 70" fill="none">
    <g clip-path="url(#clip0_4241_5374)">
        <path d="M223.407 0.305664H8.59165C3.84607 0.305664 -0.000976562 4.16023 -0.000976562 8.91507V60.5715C-0.000976562 65.3263 3.84607 69.1809 8.59165 69.1809H223.407C228.153 69.1809 232 65.3263 232 60.5715V8.91507C232 4.16023 228.153 0.305664 223.407 0.305664Z" fill="black"/>
        <path d="M81.4902 17.9379C81.5184 18.5693 81.4187 19.2 81.1972 19.7918C80.9757 20.3837 80.6369 20.9245 80.2013 21.3816C79.7131 21.8867 79.1239 22.2827 78.4724 22.5438C77.8209 22.8049 77.1217 22.9252 76.4205 22.8969C75.7154 22.9126 75.0144 22.7832 74.3612 22.5167C73.7079 22.2501 73.1162 21.8521 72.6226 21.3472C71.6212 20.3209 71.0605 18.9427 71.0605 17.5074C71.0605 16.0722 71.6212 14.6939 72.6226 13.6676C73.3882 12.918 74.3578 12.4119 75.4096 12.2128C76.4614 12.0136 77.5485 12.1304 78.5343 12.5484C79.154 12.8036 79.7068 13.1984 80.1497 13.702L79.2389 14.6146C78.8976 14.2027 78.4652 13.8762 77.976 13.661C77.4867 13.4458 76.9542 13.3478 76.4205 13.3749C75.7469 13.3796 75.0847 13.5495 74.4917 13.8698C73.8988 14.1901 73.3932 14.6511 73.0191 15.2124C72.645 15.7737 72.4138 16.4182 72.3457 17.0897C72.2776 17.7612 72.3748 18.4392 72.6286 19.0644C72.8824 19.6896 73.2852 20.243 73.8018 20.6763C74.3184 21.1095 74.933 21.4093 75.5919 21.5496C76.2508 21.6899 76.934 21.6663 77.5818 21.4809C78.2295 21.2956 78.8221 20.9541 79.3077 20.4863C79.8326 19.9096 80.137 19.1655 80.1669 18.3856H76.4205V17.1458H81.4214C81.4606 17.4082 81.4835 17.6727 81.4902 17.9379Z" fill="white" stroke="white" stroke-width="0.496994" stroke-miterlimit="10"/>
        <path d="M89.3613 13.6328H84.7213V16.9044H88.9489V18.1442H84.7213V21.4157H89.3613V22.6899H83.3809V12.3586H89.3613V13.6328Z" fill="white" stroke="white" stroke-width="0.496994" stroke-miterlimit="10"/>
        <path d="M94.9985 22.6899H93.6752V13.6328H90.7881V12.3586H97.9543V13.6328H94.9985V22.6899Z" fill="white" stroke="white" stroke-width="0.496994" stroke-miterlimit="10"/>
        <path d="M103.006 22.6899V12.3586H104.329V22.6899H103.006Z" fill="white" stroke="white" stroke-width="0.496994" stroke-miterlimit="10"/>
        <path d="M110.208 22.6899H108.885V13.6328H105.998V12.3586H113.078V13.6328H110.208V22.6899Z" fill="white" stroke="white" stroke-width="0.496994" stroke-miterlimit="10"/>
        <path d="M126.5 21.3471C126.003 21.8448 125.414 22.2397 124.765 22.509C124.117 22.7784 123.421 22.9171 122.719 22.9171C122.017 22.9171 121.321 22.7784 120.673 22.509C120.024 22.2397 119.435 21.8448 118.938 21.3471C117.967 20.3123 117.426 18.9452 117.426 17.5245C117.426 16.1039 117.967 14.7367 118.938 13.7019C119.424 13.1902 120.011 12.7863 120.663 12.5164C121.314 12.2465 122.014 12.1166 122.719 12.135C123.423 12.1239 124.121 12.2571 124.771 12.5266C125.421 12.7961 126.01 13.1961 126.5 13.7019C126.994 14.2056 127.382 14.8033 127.642 15.4599C127.902 16.1164 128.028 16.8184 128.012 17.5245C128.035 18.2315 127.912 18.9355 127.652 19.5931C127.392 20.2506 127 20.8476 126.5 21.3471ZM119.918 20.4861C120.284 20.8579 120.72 21.153 121.201 21.3545C121.682 21.5559 122.198 21.6596 122.719 21.6596C123.24 21.6596 123.756 21.5559 124.237 21.3545C124.718 21.153 125.154 20.8579 125.52 20.4861C126.262 19.6788 126.673 18.6217 126.673 17.5245C126.673 16.4273 126.262 15.3702 125.52 14.5629C125.154 14.1912 124.718 13.896 124.237 13.6946C123.756 13.4931 123.24 13.3894 122.719 13.3894C122.198 13.3894 121.682 13.4931 121.201 13.6946C120.72 13.896 120.284 14.1912 119.918 14.5629C119.176 15.3702 118.765 16.4273 118.765 17.5245C118.765 18.6217 119.176 19.6788 119.918 20.4861Z" fill="white" stroke="white" stroke-width="0.496994" stroke-miterlimit="10"/>
        <path d="M129.885 22.6899V12.3586H131.483L136.501 20.3998V18.4024V12.3586H137.824V22.6899H136.45L131.208 14.2699V16.2501V22.6899H129.885Z" fill="white" stroke="white" stroke-width="0.496994" stroke-miterlimit="10"/>
        <path d="M117.099 37.7565C115.651 37.7599 114.237 38.1934 113.035 39.0023C111.833 39.8111 110.897 40.9589 110.346 42.3005C109.795 43.6422 109.654 45.1174 109.94 46.5396C110.225 47.9618 110.926 49.2672 111.952 50.2906C112.978 51.3141 114.284 52.0096 115.705 52.2893C117.126 52.569 118.598 52.4203 119.934 51.8619C121.27 51.3036 122.412 50.3607 123.213 49.1526C124.015 47.9444 124.441 46.5252 124.437 45.0745C124.451 44.1067 124.271 43.1459 123.907 42.2495C123.542 41.353 123.002 40.5391 122.317 39.8563C121.633 39.1735 120.818 38.6357 119.921 38.275C119.025 37.9142 118.065 37.7379 117.099 37.7565ZM117.099 49.5169C116.212 49.5791 115.326 49.3724 114.558 48.9235C113.789 48.4747 113.173 47.8046 112.789 47.0003C112.406 46.196 112.273 45.2947 112.407 44.4135C112.542 43.5324 112.938 42.7122 113.544 42.0595C114.15 41.4069 114.937 40.9519 115.805 40.7539C116.672 40.5558 117.579 40.6238 118.407 40.949C119.236 41.2742 119.947 41.8415 120.45 42.5772C120.952 43.313 121.222 44.1831 121.224 45.0745C121.251 45.6393 121.166 46.2039 120.972 46.7351C120.779 47.2663 120.481 47.7532 120.097 48.1673C119.712 48.5813 119.249 48.9141 118.734 49.1458C118.219 49.3776 117.664 49.5038 117.099 49.5169ZM101.083 37.7565C99.6348 37.7599 98.2203 38.1934 97.0183 39.0023C95.8163 39.8111 94.8806 40.9589 94.3297 42.3005C93.7787 43.6422 93.6372 45.1174 93.923 46.5396C94.2088 47.9618 94.9091 49.2672 95.9354 50.2906C96.9616 51.3141 98.2677 52.0096 99.6885 52.2893C101.109 52.569 102.581 52.4203 103.917 51.8619C105.254 51.3036 106.395 50.3607 107.197 49.1526C107.998 47.9444 108.424 46.5252 108.421 45.0745C108.435 44.1067 108.254 43.1459 107.89 42.2495C107.526 41.353 106.985 40.5391 106.301 39.8563C105.616 39.1735 104.801 38.6357 103.905 38.275C103.008 37.9142 102.049 37.7379 101.083 37.7565ZM101.083 49.5169C100.195 49.5791 99.3096 49.3724 98.5409 48.9235C97.7723 48.4747 97.1562 47.8046 96.7727 47.0003C96.3892 46.196 96.256 45.2947 96.3906 44.4135C96.5251 43.5324 96.9211 42.7122 97.527 42.0595C98.1329 41.4069 98.9208 40.9519 99.7882 40.7539C100.656 40.5558 101.562 40.6238 102.391 40.949C103.219 41.2742 103.931 41.8415 104.433 42.5772C104.935 43.313 105.205 44.1831 105.207 45.0745C105.235 45.6393 105.149 46.2039 104.956 46.7351C104.762 47.2663 104.464 47.7532 104.08 48.1673C103.696 48.5813 103.232 48.9141 102.718 49.1458C102.203 49.3776 101.647 49.5038 101.083 49.5169ZM82.0414 40.0121V43.1115H89.4655C89.3491 44.5714 88.7434 45.9488 87.7469 47.0202C87.0022 47.7804 86.1065 48.3756 85.1178 48.7671C84.129 49.1586 83.0693 49.3378 82.0071 49.2931C79.8193 49.2931 77.7212 48.4223 76.1742 46.8723C74.6272 45.3223 73.7581 43.2201 73.7581 41.0281C73.7581 38.836 74.6272 36.7338 76.1742 35.1838C77.7212 33.6338 79.8193 32.763 82.0071 32.763C84.1044 32.7318 86.1296 33.5298 87.6438 34.9843L89.8263 32.7975C88.8021 31.7824 87.5859 30.9824 86.2492 30.4443C84.9124 29.9062 83.4819 29.6408 82.0414 29.6636C80.5137 29.6041 78.9896 29.8541 77.5606 30.3988C76.1316 30.9435 74.827 31.7717 73.7251 32.8336C72.6231 33.8956 71.7465 35.1695 71.1477 36.5791C70.5489 37.9886 70.2402 39.5047 70.2402 41.0367C70.2402 42.5686 70.5489 44.0847 71.1477 45.4943C71.7465 46.9038 72.6231 48.1777 73.7251 49.2397C74.827 50.3017 76.1316 51.1298 77.5606 51.6745C78.9896 52.2192 80.5137 52.4693 82.0414 52.4097C83.5115 52.4685 84.9773 52.2151 86.3427 51.6661C87.7081 51.1171 88.9422 50.2849 89.9638 49.2242C91.7685 47.2379 92.7301 44.6254 92.6447 41.9407C92.6509 41.2945 92.5991 40.6491 92.4901 40.0121H82.0414ZM159.908 42.4228C159.46 41.1016 158.621 39.9481 157.504 39.1148C156.387 38.2815 155.044 37.8078 153.652 37.7565C152.712 37.7546 151.782 37.946 150.919 38.3187C150.055 38.6915 149.277 39.2377 148.633 39.9235C147.989 40.6094 147.492 41.4204 147.173 42.3064C146.854 43.1923 146.72 44.1344 146.778 45.0745C146.764 46.6463 147.257 48.1807 148.184 49.4485C149.112 50.7163 150.424 51.6495 151.924 52.1086C153.424 52.5677 155.033 52.5282 156.509 51.9959C157.985 51.4636 159.25 50.4672 160.114 49.1553L157.622 47.4335C157.251 48.0538 156.724 48.5661 156.094 48.9195C155.464 49.2729 154.752 49.4551 154.03 49.4481C153.286 49.4789 152.549 49.2832 151.917 48.8868C151.285 48.4903 150.788 47.9117 150.49 47.2268L160.269 43.1804L159.908 42.4228ZM149.94 44.8679C149.906 44.333 149.978 43.7966 150.152 43.2899C150.327 42.7833 150.601 42.3167 150.958 41.9174C151.314 41.5182 151.747 41.1943 152.231 40.9647C152.714 40.7351 153.238 40.6044 153.773 40.5804C154.326 40.5465 154.878 40.6771 155.358 40.9559C155.838 41.2346 156.225 41.649 156.471 42.1473L149.94 44.8679ZM142.001 51.962H145.214V30.4385H142.001V51.962ZM136.742 39.3923H136.622C136.142 38.8445 135.549 38.407 134.885 38.1098C134.22 37.8127 133.5 37.6628 132.772 37.6704C130.894 37.7616 129.123 38.5734 127.826 39.9374C126.529 41.3014 125.806 43.1131 125.806 44.997C125.806 46.8809 126.529 48.6926 127.826 50.0566C129.123 51.4206 130.894 52.2323 132.772 52.3236C133.501 52.3382 134.224 52.1915 134.889 51.8938C135.555 51.5962 136.146 51.155 136.622 50.6017H136.742V51.6521C136.742 54.4587 135.247 55.9568 132.841 55.9568C132.037 55.9391 131.257 55.6825 130.599 55.2195C129.941 54.7566 129.436 54.1082 129.146 53.3567L126.362 54.5104C126.877 55.8057 127.772 56.9139 128.929 57.6887C130.085 58.4635 131.45 58.8683 132.841 58.8495C136.605 58.8495 139.715 56.6283 139.715 51.2216V38.187H136.742V39.3923ZM133.047 49.5169C131.921 49.4466 130.864 48.9488 130.092 48.1251C129.319 47.3013 128.889 46.2134 128.889 45.0831C128.889 43.9527 129.319 42.8649 130.092 42.0411C130.864 41.2173 131.921 40.7196 133.047 40.6492C133.598 40.673 134.138 40.8075 134.635 41.0447C135.132 41.2818 135.577 41.6168 135.943 42.0296C136.308 42.4425 136.587 42.9248 136.763 43.4479C136.939 43.971 137.007 44.5242 136.965 45.0745C137.012 45.6267 136.947 46.1827 136.773 46.7088C136.6 47.235 136.321 47.7203 135.955 48.1356C135.589 48.5509 135.142 48.8874 134.642 49.1248C134.143 49.3623 133.6 49.4956 133.047 49.5169ZM174.962 30.4385H167.263V51.962H170.477V43.8003H174.962C175.878 43.8662 176.798 43.7424 177.664 43.4365C178.53 43.1306 179.323 42.6493 179.996 42.0224C180.668 41.3956 181.204 40.6367 181.57 39.7932C181.937 38.9496 182.126 38.0394 182.126 37.1194C182.126 36.1993 181.937 35.2892 181.57 34.4456C181.204 33.602 180.668 32.8432 179.996 32.2163C179.323 31.5895 178.53 31.1082 177.664 30.8023C176.798 30.4964 175.878 30.3726 174.962 30.4385ZM174.962 40.7698H170.477V33.4346H175.031C175.514 33.4346 175.992 33.5299 176.438 33.715C176.884 33.9002 177.29 34.1717 177.631 34.5138C177.973 34.856 178.244 35.2622 178.428 35.7093C178.613 36.1563 178.708 36.6355 178.708 37.1194C178.708 37.6033 178.613 38.0824 178.428 38.5295C178.244 38.9766 177.973 39.3828 177.631 39.7249C177.29 40.0671 176.884 40.3385 176.438 40.5237C175.992 40.7089 175.514 40.8042 175.031 40.8042L174.962 40.7698ZM194.794 37.6876C193.624 37.6153 192.458 37.8883 191.441 38.4728C190.424 39.0573 189.6 39.9277 189.071 40.9764L191.907 42.1645C192.193 41.6469 192.623 41.2235 193.145 40.9455C193.666 40.6674 194.257 40.5466 194.845 40.5976C195.253 40.5498 195.667 40.584 196.061 40.698C196.456 40.812 196.824 41.0037 197.144 41.2617C197.464 41.5198 197.729 41.8391 197.925 42.201C198.12 42.563 198.242 42.9603 198.282 43.3698V43.5764C197.249 43.0322 196.099 42.7485 194.931 42.7499C191.872 42.7499 188.745 44.4718 188.745 47.6056C188.775 48.2717 188.938 48.925 189.226 49.5265C189.513 50.128 189.918 50.6656 190.416 51.1073C190.915 51.549 191.497 51.8858 192.128 52.0977C192.759 52.3096 193.426 52.3923 194.089 52.3408C194.896 52.3855 195.699 52.2145 196.418 51.8454C197.137 51.4762 197.745 50.9222 198.179 50.2401H198.282V51.962H201.376V43.6798C201.376 39.9088 198.523 37.722 194.863 37.722L194.794 37.6876ZM194.399 49.4825C193.35 49.4825 191.89 48.9487 191.89 47.6573C191.89 45.9354 193.711 45.35 195.327 45.35C196.347 45.3247 197.356 45.5745 198.248 46.0732C198.14 47.0083 197.698 47.8725 197.002 48.5057C196.307 49.1389 195.407 49.4982 194.467 49.5169L194.399 49.4825ZM212.649 38.187L208.972 47.5195H208.869L205.053 38.187H201.616L207.339 51.2388L204.074 58.4879H207.425L216.224 38.187H212.649ZM183.778 51.962H186.975V30.4385H183.778V51.962Z" fill="white"/>
        <path d="M17.4335 15.6994V15.6912L17.4331 15.683C17.3925 14.9353 17.6198 14.1996 18.0709 13.6072L39.0499 34.6101V34.8767L18.077 55.8906C17.6135 55.3014 17.3828 54.5595 17.4328 53.8074L17.4335 53.7974V53.7874V15.6994Z" fill="#0769ED" stroke="black" stroke-width="0.604169"/>
        <path d="M54.843 32.5264L54.8434 32.5266C55.991 33.1755 56.4945 33.9912 56.4945 34.7453C56.4945 35.4999 55.9905 36.3201 54.8424 36.9775C54.8423 36.9776 54.8421 36.9777 54.842 36.9778L46.4648 41.7496L39.6556 34.8772V34.6092L46.4415 27.7603L54.843 32.5264Z" fill="#0769ED" stroke="black" stroke-width="0.604169"/>
        <mask id="path-12-inside-1_4241_5374" fill="white">
            <path d="M46.6044 42.0095L39.3523 34.7432L17.9395 56.1978C18.4251 56.6309 19.0466 56.8801 19.6964 56.9021C20.3461 56.9241 20.9831 56.7176 21.4968 56.3183L46.6044 42.0095Z"/>
        </mask>
        <path d="M46.6044 42.0095L39.3523 34.7432L17.9395 56.1978C18.4251 56.6309 19.0466 56.8801 19.6964 56.9021C20.3461 56.9241 20.9831 56.7176 21.4968 56.3183L46.6044 42.0095Z" fill="#0769ED"/>
        <path d="M39.3523 34.7432L39.7799 34.3164L39.3523 33.8879L38.9246 34.3164L39.3523 34.7432ZM17.9395 56.1978L17.5118 55.771L17.0604 56.2233L17.5373 56.6487L17.9395 56.1978ZM21.4968 56.3183L21.1977 55.7934L21.1601 55.8148L21.1261 55.8413L21.4968 56.3183ZM47.0321 41.5827L39.7799 34.3164L38.9246 35.17L46.1768 42.4363L47.0321 41.5827ZM38.9246 34.3164L17.5118 55.771L18.3671 56.6246L39.7799 35.17L38.9246 34.3164ZM17.5373 56.6487C18.1283 57.1757 18.8849 57.4791 19.6759 57.5059L19.7168 56.2983C19.2084 56.281 18.7219 56.0861 18.3416 55.7469L17.5373 56.6487ZM19.6759 57.5059C20.467 57.5327 21.2424 57.2812 21.8675 56.7954L21.1261 55.8413C20.7238 56.1539 20.2253 56.3155 19.7168 56.2983L19.6759 57.5059ZM21.7959 56.8432L46.9036 42.5344L46.3053 41.4846L21.1977 55.7934L21.7959 56.8432Z" fill="black" mask="url(#path-12-inside-1_4241_5374)"/>
        <path d="M17.9391 13.2887C17.3728 13.9596 17.0839 14.822 17.1314 15.6994V53.7874C17.0729 54.6662 17.3632 55.5326 17.9391 56.198L18.0594 56.3358L39.3519 35.0017V34.4851L18.0594 13.1682L17.9391 13.2887Z" fill="url(#paint0_linear_4241_5374)"/>
        <path d="M46.3995 42.1128L39.3535 35.0015V34.4849L46.3995 27.3735L46.5541 27.4769L54.9921 32.2637C57.398 33.624 57.398 35.8624 54.9921 37.2399L46.5885 42.0267L46.3995 42.1128Z" fill="url(#paint1_linear_4241_5374)"/>
        <path d="M46.6044 42.0095L39.3523 34.7432L17.9395 56.1978C18.4251 56.6309 19.0466 56.8801 19.6964 56.9021C20.3461 56.9241 20.9831 56.7176 21.4968 56.3183L46.6044 42.0095Z" fill="url(#paint2_linear_4241_5374)"/>
        <path d="M46.6044 27.4769L21.4968 13.1853C20.9864 12.7805 20.35 12.5689 19.6993 12.5878C19.0487 12.6067 18.4256 12.8549 17.9395 13.2886L39.3523 34.7432L46.6044 27.4769Z" fill="url(#paint3_linear_4241_5374)"/>
    </g>
    <defs>
        <linearGradient id="paint0_linear_4241_5374" x1="37.4616" y1="15.3033" x2="8.56845" y2="44.1401" gradientUnits="userSpaceOnUse">
            <stop stop-color="#00A0FF"/>
            <stop offset="0.01" stop-color="#00A1FF"/>
            <stop offset="0.26" stop-color="#00BEFF"/>
            <stop offset="0.51" stop-color="#00D2FF"/>
            <stop offset="0.76" stop-color="#00DFFF"/>
            <stop offset="1" stop-color="#00E3FF"/>
        </linearGradient>
        <linearGradient id="paint1_linear_4241_5374" x1="58.137" y1="34.7432" x2="16.5659" y2="34.7432" gradientUnits="userSpaceOnUse">
            <stop stop-color="#FFE000"/>
            <stop offset="0.41" stop-color="#FFBD00"/>
            <stop offset="0.78" stop-color="#FFA500"/>
            <stop offset="1" stop-color="#FF9C00"/>
        </linearGradient>
        <linearGradient id="paint2_linear_4241_5374" x1="42.669" y1="38.7035" x2="3.47911" y2="77.7998" gradientUnits="userSpaceOnUse">
            <stop stop-color="#FF3A44"/>
            <stop offset="1" stop-color="#C31162"/>
        </linearGradient>
        <linearGradient id="paint3_linear_4241_5374" x1="12.5433" y1="0.615543" x2="30.0376" y2="18.0757" gradientUnits="userSpaceOnUse">
            <stop stop-color="#32A071"/>
            <stop offset="0.07" stop-color="#2DA771"/>
            <stop offset="0.48" stop-color="#15CF74"/>
            <stop offset="0.8" stop-color="#06E775"/>
            <stop offset="1" stop-color="#00F076"/>
        </linearGradient>
        <clipPath id="clip0_4241_5374">
            <rect width="232.001" height="68.8752" fill="white" transform="translate(-0.000976562 0.305664)"/>
        </clipPath>
    </defs>
</svg>
