<svg width="23" height="92" viewBox="0 0 23 92" fill="none" xmlns="http://www.w3.org/2000/svg">
<path d="M8.58281 88.0542C8.58281 85.9282 6.85911 84.2042 4.73281 84.2042C2.60651 84.2042 0.882812 85.9282 0.882812 88.0542C0.882812 90.1812 2.60651 91.9042 4.73281 91.9042C6.85911 91.9042 8.58281 90.1812 8.58281 88.0542Z" fill="#7822CE"/>
<path d="M8.58281 71.2251C8.58281 69.0991 6.85911 67.3751 4.73281 67.3751C2.60651 67.3751 0.882812 69.0991 0.882812 71.2251C0.882812 73.3521 2.60651 75.0751 4.73281 75.0751C6.85911 75.0751 8.58281 73.3521 8.58281 71.2251Z" fill="#7822CE"/>
<path d="M8.58281 54.396C8.58281 52.27 6.85911 50.546 4.73281 50.546C2.60651 50.546 0.882812 52.27 0.882812 54.396C0.882812 56.522 2.60651 58.246 4.73281 58.246C6.85911 58.246 8.58281 56.522 8.58281 54.396Z" fill="#7822CE"/>
<path d="M8.58281 37.5381C8.58281 35.4111 6.85911 33.6881 4.73281 33.6881C2.60651 33.6881 0.882812 35.4111 0.882812 37.5381C0.882812 39.6641 2.60651 41.3881 4.73281 41.3881C6.85911 41.3881 8.58281 39.6641 8.58281 37.5381Z" fill="#7822CE"/>
<path d="M8.58281 20.709C8.58281 18.582 6.85911 16.859 4.73281 16.859C2.60651 16.859 0.882812 18.582 0.882812 20.709C0.882812 22.835 2.60651 24.559 4.73281 24.559C6.85911 24.559 8.58281 22.835 8.58281 20.709Z" fill="#7822CE"/>
<path d="M8.58281 3.85013C8.58281 1.72413 6.85911 0.00012207 4.73281 0.00012207C2.60651 0.00012207 0.882812 1.72413 0.882812 3.85013C0.882812 5.97713 2.60651 7.70012 4.73281 7.70012C6.85911 7.70012 8.58281 5.97713 8.58281 3.85013Z" fill="#7822CE"/>
<path d="M22.4666 88.0542C22.4666 85.9282 20.7429 84.2042 18.6166 84.2042C16.4903 84.2042 14.7666 85.9282 14.7666 88.0542C14.7666 90.1812 16.4903 91.9042 18.6166 91.9042C20.7429 91.9042 22.4666 90.1812 22.4666 88.0542Z" fill="#7822CE"/>
<path d="M22.4666 71.2251C22.4666 69.0991 20.7429 67.3751 18.6166 67.3751C16.4903 67.3751 14.7666 69.0991 14.7666 71.2251C14.7666 73.3521 16.4903 75.0751 18.6166 75.0751C20.7429 75.0751 22.4666 73.3521 22.4666 71.2251Z" fill="#7822CE"/>
<path d="M22.4666 54.396C22.4666 52.27 20.7428 50.546 18.6165 50.546C16.4903 50.546 14.7666 52.27 14.7666 54.396C14.7666 56.522 16.4903 58.246 18.6165 58.246C20.7428 58.246 22.4666 56.522 22.4666 54.396Z" fill="#7822CE"/>
<path d="M22.4666 37.5381C22.4666 35.4111 20.7428 33.6881 18.6165 33.6881C16.4903 33.6881 14.7666 35.4111 14.7666 37.5381C14.7666 39.6641 16.4903 41.3881 18.6165 41.3881C20.7428 41.3881 22.4666 39.6641 22.4666 37.5381Z" fill="#7822CE"/>
<path d="M22.4666 20.709C22.4666 18.582 20.7429 16.859 18.6166 16.859C16.4903 16.859 14.7666 18.582 14.7666 20.709C14.7666 22.835 16.4903 24.559 18.6166 24.559C20.7429 24.559 22.4666 22.835 22.4666 20.709Z" fill="#7822CE"/>
<path d="M22.4666 3.85013C22.4666 1.72413 20.7428 0.00012207 18.6165 0.00012207C16.4903 0.00012207 14.7666 1.72413 14.7666 3.85013C14.7666 5.97713 16.4903 7.70012 18.6165 7.70012C20.7428 7.70012 22.4666 5.97713 22.4666 3.85013Z" fill="#7822CE"/>
</svg>
