<svg width="282" height="282" viewBox="0 0 282 282" fill="none" xmlns="http://www.w3.org/2000/svg">
<path d="M11.395 0.125H0.125V11.395H11.395V0.125Z" fill="black"/>
<path d="M22.665 0.125H11.395V11.395H22.665V0.125Z" fill="black"/>
<path d="M33.935 0.125H22.665V11.395H33.935V0.125Z" fill="black"/>
<path d="M45.205 0.125H33.935V11.395H45.205V0.125Z" fill="black"/>
<path d="M56.475 0.125H45.205V11.395H56.475V0.125Z" fill="black"/>
<path d="M67.745 0.125H56.475V11.395H67.745V0.125Z" fill="black"/>
<path d="M79.015 0.125H67.745V11.395H79.015V0.125Z" fill="black"/>
<path d="M101.555 0.125H90.285V11.395H101.555V0.125Z" fill="black"/>
<path d="M124.095 0.125H112.825V11.395H124.095V0.125Z" fill="black"/>
<path d="M135.365 0.125H124.095V11.395H135.365V0.125Z" fill="black"/>
<path d="M146.635 0.125H135.365V11.395H146.635V0.125Z" fill="black"/>
<path d="M157.905 0.125H146.635V11.395H157.905V0.125Z" fill="black"/>
<path d="M169.175 0.125H157.905V11.395H169.175V0.125Z" fill="black"/>
<path d="M180.445 0.125H169.175V11.395H180.445V0.125Z" fill="black"/>
<path d="M191.715 0.125H180.445V11.395H191.715V0.125Z" fill="black"/>
<path d="M214.255 0.125H202.985V11.395H214.255V0.125Z" fill="black"/>
<path d="M225.525 0.125H214.255V11.395H225.525V0.125Z" fill="black"/>
<path d="M236.795 0.125H225.525V11.395H236.795V0.125Z" fill="black"/>
<path d="M248.065 0.125H236.795V11.395H248.065V0.125Z" fill="black"/>
<path d="M259.335 0.125H248.065V11.395H259.335V0.125Z" fill="black"/>
<path d="M270.605 0.125H259.335V11.395H270.605V0.125Z" fill="black"/>
<path d="M281.875 0.125H270.605V11.395H281.875V0.125Z" fill="black"/>
<path d="M11.395 11.395H0.125V22.665H11.395V11.395Z" fill="black"/>
<path d="M79.015 11.395H67.745V22.665H79.015V11.395Z" fill="black"/>
<path d="M124.095 11.395H112.825V22.665H124.095V11.395Z" fill="black"/>
<path d="M135.365 11.395H124.095V22.665H135.365V11.395Z" fill="black"/>
<path d="M214.255 11.395H202.985V22.665H214.255V11.395Z" fill="black"/>
<path d="M281.875 11.395H270.605V22.665H281.875V11.395Z" fill="black"/>
<path d="M11.395 22.665H0.125V33.935H11.395V22.665Z" fill="black"/>
<path d="M33.935 22.665H22.665V33.935H33.935V22.665Z" fill="black"/>
<path d="M45.205 22.665H33.935V33.935H45.205V22.665Z" fill="black"/>
<path d="M56.475 22.665H45.205V33.935H56.475V22.665Z" fill="black"/>
<path d="M79.015 22.665H67.745V33.935H79.015V22.665Z" fill="black"/>
<path d="M112.825 22.665H101.555V33.935H112.825V22.665Z" fill="black"/>
<path d="M124.095 22.665H112.825V33.935H124.095V22.665Z" fill="black"/>
<path d="M135.365 22.665H124.095V33.935H135.365V22.665Z" fill="black"/>
<path d="M169.175 22.665H157.905V33.935H169.175V22.665Z" fill="black"/>
<path d="M180.445 22.665H169.175V33.935H180.445V22.665Z" fill="black"/>
<path d="M214.255 22.665H202.985V33.935H214.255V22.665Z" fill="black"/>
<path d="M236.795 22.665H225.525V33.935H236.795V22.665Z" fill="black"/>
<path d="M248.065 22.665H236.795V33.935H248.065V22.665Z" fill="black"/>
<path d="M259.335 22.665H248.065V33.935H259.335V22.665Z" fill="black"/>
<path d="M281.875 22.665H270.605V33.935H281.875V22.665Z" fill="black"/>
<path d="M11.395 33.935H0.125V45.205H11.395V33.935Z" fill="black"/>
<path d="M33.935 33.935H22.665V45.205H33.935V33.935Z" fill="black"/>
<path d="M45.205 33.935H33.935V45.205H45.205V33.935Z" fill="black"/>
<path d="M56.475 33.935H45.205V45.205H56.475V33.935Z" fill="black"/>
<path d="M79.015 33.935H67.745V45.205H79.015V33.935Z" fill="black"/>
<path d="M112.825 33.935H101.555V45.205H112.825V33.935Z" fill="black"/>
<path d="M135.365 33.935H124.095V45.205H135.365V33.935Z" fill="black"/>
<path d="M157.905 33.935H146.635V45.205H157.905V33.935Z" fill="black"/>
<path d="M169.175 33.935H157.905V45.205H169.175V33.935Z" fill="black"/>
<path d="M180.445 33.935H169.175V45.205H180.445V33.935Z" fill="black"/>
<path d="M191.715 33.935H180.445V45.205H191.715V33.935Z" fill="black"/>
<path d="M214.255 33.935H202.985V45.205H214.255V33.935Z" fill="black"/>
<path d="M236.795 33.935H225.525V45.205H236.795V33.935Z" fill="black"/>
<path d="M248.065 33.935H236.795V45.205H248.065V33.935Z" fill="black"/>
<path d="M259.335 33.935H248.065V45.205H259.335V33.935Z" fill="black"/>
<path d="M281.875 33.935H270.605V45.205H281.875V33.935Z" fill="black"/>
<path d="M11.395 45.205H0.125V56.475H11.395V45.205Z" fill="black"/>
<path d="M33.935 45.205H22.665V56.475H33.935V45.205Z" fill="black"/>
<path d="M45.205 45.205H33.935V56.475H45.205V45.205Z" fill="black"/>
<path d="M56.475 45.205H45.205V56.475H56.475V45.205Z" fill="black"/>
<path d="M79.015 45.205H67.745V56.475H79.015V45.205Z" fill="black"/>
<path d="M112.825 45.205H101.555V56.475H112.825V45.205Z" fill="black"/>
<path d="M124.095 45.205H112.825V56.475H124.095V45.205Z" fill="black"/>
<path d="M157.905 45.205H146.635V56.475H157.905V45.205Z" fill="black"/>
<path d="M191.715 45.205H180.445V56.475H191.715V45.205Z" fill="black"/>
<path d="M214.255 45.205H202.985V56.475H214.255V45.205Z" fill="black"/>
<path d="M236.795 45.205H225.525V56.475H236.795V45.205Z" fill="black"/>
<path d="M248.065 45.205H236.795V56.475H248.065V45.205Z" fill="black"/>
<path d="M259.335 45.205H248.065V56.475H259.335V45.205Z" fill="black"/>
<path d="M281.875 45.205H270.605V56.475H281.875V45.205Z" fill="black"/>
<path d="M11.395 56.475H0.125V67.745H11.395V56.475Z" fill="black"/>
<path d="M79.015 56.475H67.745V67.745H79.015V56.475Z" fill="black"/>
<path d="M146.635 56.475H135.365V67.745H146.635V56.475Z" fill="black"/>
<path d="M191.715 56.475H180.445V67.745H191.715V56.475Z" fill="black"/>
<path d="M214.255 56.475H202.985V67.745H214.255V56.475Z" fill="black"/>
<path d="M281.875 56.475H270.605V67.745H281.875V56.475Z" fill="black"/>
<path d="M11.395 67.745H0.125V79.015H11.395V67.745Z" fill="black"/>
<path d="M22.665 67.745H11.395V79.015H22.665V67.745Z" fill="black"/>
<path d="M33.935 67.745H22.665V79.015H33.935V67.745Z" fill="black"/>
<path d="M45.205 67.745H33.935V79.015H45.205V67.745Z" fill="black"/>
<path d="M56.475 67.745H45.205V79.015H56.475V67.745Z" fill="black"/>
<path d="M67.745 67.745H56.475V79.015H67.745V67.745Z" fill="black"/>
<path d="M79.015 67.745H67.745V79.015H79.015V67.745Z" fill="black"/>
<path d="M101.555 67.745H90.285V79.015H101.555V67.745Z" fill="black"/>
<path d="M124.095 67.745H112.825V79.015H124.095V67.745Z" fill="black"/>
<path d="M146.635 67.745H135.365V79.015H146.635V67.745Z" fill="black"/>
<path d="M169.175 67.745H157.905V79.015H169.175V67.745Z" fill="black"/>
<path d="M191.715 67.745H180.445V79.015H191.715V67.745Z" fill="black"/>
<path d="M214.255 67.745H202.985V79.015H214.255V67.745Z" fill="black"/>
<path d="M225.525 67.745H214.255V79.015H225.525V67.745Z" fill="black"/>
<path d="M236.795 67.745H225.525V79.015H236.795V67.745Z" fill="black"/>
<path d="M248.065 67.745H236.795V79.015H248.065V67.745Z" fill="black"/>
<path d="M259.335 67.745H248.065V79.015H259.335V67.745Z" fill="black"/>
<path d="M270.605 67.745H259.335V79.015H270.605V67.745Z" fill="black"/>
<path d="M281.875 67.745H270.605V79.015H281.875V67.745Z" fill="black"/>
<path d="M169.175 79.015H157.905V90.285H169.175V79.015Z" fill="black"/>
<path d="M22.665 90.285H11.395V101.555H22.665V90.285Z" fill="black"/>
<path d="M33.935 90.285H22.665V101.555H33.935V90.285Z" fill="black"/>
<path d="M45.205 90.285H33.935V101.555H45.205V90.285Z" fill="black"/>
<path d="M79.015 90.285H67.745V101.555H79.015V90.285Z" fill="black"/>
<path d="M90.285 90.285H79.015V101.555H90.285V90.285Z" fill="black"/>
<path d="M101.555 90.285H90.285V101.555H101.555V90.285Z" fill="black"/>
<path d="M112.825 90.285H101.555V101.555H112.825V90.285Z" fill="black"/>
<path d="M124.095 90.285H112.825V101.555H124.095V90.285Z" fill="black"/>
<path d="M135.365 90.285H124.095V101.555H135.365V90.285Z" fill="black"/>
<path d="M146.635 90.285H135.365V101.555H146.635V90.285Z" fill="black"/>
<path d="M169.175 90.285H157.905V101.555H169.175V90.285Z" fill="black"/>
<path d="M202.985 90.285H191.715V101.555H202.985V90.285Z" fill="black"/>
<path d="M281.875 90.285H270.605V101.555H281.875V90.285Z" fill="black"/>
<path d="M11.395 101.555H0.125V112.825H11.395V101.555Z" fill="black"/>
<path d="M45.205 101.555H33.935V112.825H45.205V101.555Z" fill="black"/>
<path d="M56.475 101.555H45.205V112.825H56.475V101.555Z" fill="black"/>
<path d="M67.745 101.555H56.475V112.825H67.745V101.555Z" fill="black"/>
<path d="M90.285 101.555H79.015V112.825H90.285V101.555Z" fill="black"/>
<path d="M124.095 101.555H112.825V112.825H124.095V101.555Z" fill="black"/>
<path d="M146.635 101.555H135.365V112.825H146.635V101.555Z" fill="black"/>
<path d="M157.905 101.555H146.635V112.825H157.905V101.555Z" fill="black"/>
<path d="M169.175 101.555H157.905V112.825H169.175V101.555Z" fill="black"/>
<path d="M180.445 101.555H169.175V112.825H180.445V101.555Z" fill="black"/>
<path d="M202.985 101.555H191.715V112.825H202.985V101.555Z" fill="black"/>
<path d="M259.335 101.555H248.065V112.825H259.335V101.555Z" fill="black"/>
<path d="M11.395 112.825H0.125V124.095H11.395V112.825Z" fill="black"/>
<path d="M56.475 112.825H45.205V124.095H56.475V112.825Z" fill="black"/>
<path d="M79.015 112.825H67.745V124.095H79.015V112.825Z" fill="black"/>
<path d="M90.285 112.825H79.015V124.095H90.285V112.825Z" fill="black"/>
<path d="M124.095 112.825H112.825V124.095H124.095V112.825Z" fill="black"/>
<path d="M146.635 112.825H135.365V124.095H146.635V112.825Z" fill="black"/>
<path d="M191.715 112.825H180.445V124.095H191.715V112.825Z" fill="black"/>
<path d="M202.985 112.825H191.715V124.095H202.985V112.825Z" fill="black"/>
<path d="M236.795 112.825H225.525V124.095H236.795V112.825Z" fill="black"/>
<path d="M270.605 112.825H259.335V124.095H270.605V112.825Z" fill="black"/>
<path d="M281.875 112.825H270.605V124.095H281.875V112.825Z" fill="black"/>
<path d="M11.395 124.095H0.125V135.365H11.395V124.095Z" fill="black"/>
<path d="M33.935 124.095H22.665V135.365H33.935V124.095Z" fill="black"/>
<path d="M45.205 124.095H33.935V135.365H45.205V124.095Z" fill="black"/>
<path d="M56.475 124.095H45.205V135.365H56.475V124.095Z" fill="black"/>
<path d="M112.825 124.095H101.555V135.365H112.825V124.095Z" fill="black"/>
<path d="M135.365 124.095H124.095V135.365H135.365V124.095Z" fill="black"/>
<path d="M146.635 124.095H135.365V135.365H146.635V124.095Z" fill="black"/>
<path d="M169.175 124.095H157.905V135.365H169.175V124.095Z" fill="black"/>
<path d="M180.445 124.095H169.175V135.365H180.445V124.095Z" fill="black"/>
<path d="M191.715 124.095H180.445V135.365H191.715V124.095Z" fill="black"/>
<path d="M214.255 124.095H202.985V135.365H214.255V124.095Z" fill="black"/>
<path d="M259.335 124.095H248.065V135.365H259.335V124.095Z" fill="black"/>
<path d="M270.605 124.095H259.335V135.365H270.605V124.095Z" fill="black"/>
<path d="M45.205 135.365H33.935V146.635H45.205V135.365Z" fill="black"/>
<path d="M56.475 135.365H45.205V146.635H56.475V135.365Z" fill="black"/>
<path d="M67.745 135.365H56.475V146.635H67.745V135.365Z" fill="black"/>
<path d="M79.015 135.365H67.745V146.635H79.015V135.365Z" fill="black"/>
<path d="M101.555 135.365H90.285V146.635H101.555V135.365Z" fill="black"/>
<path d="M146.635 135.365H135.365V146.635H146.635V135.365Z" fill="black"/>
<path d="M169.175 135.365H157.905V146.635H169.175V135.365Z" fill="black"/>
<path d="M202.985 135.365H191.715V146.635H202.985V135.365Z" fill="black"/>
<path d="M225.525 135.365H214.255V146.635H225.525V135.365Z" fill="black"/>
<path d="M236.795 135.365H225.525V146.635H236.795V135.365Z" fill="black"/>
<path d="M259.335 135.365H248.065V146.635H259.335V135.365Z" fill="black"/>
<path d="M22.665 146.635H11.395V157.905H22.665V146.635Z" fill="black"/>
<path d="M33.935 146.635H22.665V157.905H33.935V146.635Z" fill="black"/>
<path d="M112.825 146.635H101.555V157.905H112.825V146.635Z" fill="black"/>
<path d="M124.095 146.635H112.825V157.905H124.095V146.635Z" fill="black"/>
<path d="M135.365 146.635H124.095V157.905H135.365V146.635Z" fill="black"/>
<path d="M146.635 146.635H135.365V157.905H146.635V146.635Z" fill="black"/>
<path d="M202.985 146.635H191.715V157.905H202.985V146.635Z" fill="black"/>
<path d="M225.525 146.635H214.255V157.905H225.525V146.635Z" fill="black"/>
<path d="M281.875 146.635H270.605V157.905H281.875V146.635Z" fill="black"/>
<path d="M22.665 157.905H11.395V169.175H22.665V157.905Z" fill="black"/>
<path d="M79.015 157.905H67.745V169.175H79.015V157.905Z" fill="black"/>
<path d="M90.285 157.905H79.015V169.175H90.285V157.905Z" fill="black"/>
<path d="M124.095 157.905H112.825V169.175H124.095V157.905Z" fill="black"/>
<path d="M202.985 157.905H191.715V169.175H202.985V157.905Z" fill="black"/>
<path d="M236.795 157.905H225.525V169.175H236.795V157.905Z" fill="black"/>
<path d="M248.065 157.905H236.795V169.175H248.065V157.905Z" fill="black"/>
<path d="M270.605 157.905H259.335V169.175H270.605V157.905Z" fill="black"/>
<path d="M281.875 157.905H270.605V169.175H281.875V157.905Z" fill="black"/>
<path d="M11.395 169.175L0.125 169.175V180.445H11.395V169.175Z" fill="black"/>
<path d="M33.935 169.175L22.665 169.175V180.445H33.935V169.175Z" fill="black"/>
<path d="M56.475 169.175H45.205V180.445H56.475V169.175Z" fill="black"/>
<path d="M67.745 169.175L56.475 169.175V180.445H67.745V169.175Z" fill="black"/>
<path d="M90.285 169.175H79.015V180.445H90.285V169.175Z" fill="black"/>
<path d="M124.095 169.175H112.825V180.445H124.095V169.175Z" fill="black"/>
<path d="M146.635 169.175H135.365V180.445H146.635V169.175Z" fill="black"/>
<path d="M180.445 169.175H169.175V180.445H180.445V169.175Z" fill="black"/>
<path d="M214.255 169.175L202.985 169.175V180.445H214.255V169.175Z" fill="black"/>
<path d="M236.795 169.175H225.525V180.445H236.795V169.175Z" fill="black"/>
<path d="M248.065 169.175H236.795V180.445H248.065V169.175Z" fill="black"/>
<path d="M11.395 180.445H0.125V191.715H11.395V180.445Z" fill="black"/>
<path d="M22.665 180.445H11.395V191.715H22.665V180.445Z" fill="black"/>
<path d="M45.205 180.445H33.935V191.715H45.205V180.445Z" fill="black"/>
<path d="M56.475 180.445H45.205V191.715H56.475V180.445Z" fill="black"/>
<path d="M79.015 180.445H67.745V191.715H79.015V180.445Z" fill="black"/>
<path d="M90.285 180.445H79.015V191.715H90.285V180.445Z" fill="black"/>
<path d="M101.555 180.445H90.285V191.715H101.555V180.445Z" fill="black"/>
<path d="M112.825 180.445H101.555V191.715H112.825V180.445Z" fill="black"/>
<path d="M124.095 180.445H112.825V191.715H124.095V180.445Z" fill="black"/>
<path d="M146.635 180.445H135.365V191.715H146.635V180.445Z" fill="black"/>
<path d="M157.905 180.445H146.635V191.715H157.905V180.445Z" fill="black"/>
<path d="M191.715 180.445H180.445V191.715H191.715V180.445Z" fill="black"/>
<path d="M202.985 180.445H191.715V191.715H202.985V180.445Z" fill="black"/>
<path d="M214.255 180.445H202.985V191.715H214.255V180.445Z" fill="black"/>
<path d="M225.525 180.445H214.255V191.715H225.525V180.445Z" fill="black"/>
<path d="M236.795 180.445H225.525V191.715H236.795V180.445Z" fill="black"/>
<path d="M248.065 180.445H236.795V191.715H248.065V180.445Z" fill="black"/>
<path d="M259.335 180.445H248.065V191.715H259.335V180.445Z" fill="black"/>
<path d="M270.605 180.445H259.335V191.715H270.605V180.445Z" fill="black"/>
<path d="M281.875 180.445H270.605V191.715H281.875V180.445Z" fill="black"/>
<path d="M101.555 191.715H90.285V202.985H101.555V191.715Z" fill="black"/>
<path d="M124.095 191.715H112.825V202.985H124.095V191.715Z" fill="black"/>
<path d="M180.445 191.715H169.175V202.985H180.445V191.715Z" fill="black"/>
<path d="M191.715 191.715H180.445V202.985H191.715V191.715Z" fill="black"/>
<path d="M236.795 191.715H225.525V202.985H236.795V191.715Z" fill="black"/>
<path d="M248.065 191.715H236.795V202.985H248.065V191.715Z" fill="black"/>
<path d="M270.605 191.715H259.335V202.985H270.605V191.715Z" fill="black"/>
<path d="M11.395 202.985H0.125V214.255H11.395V202.985Z" fill="black"/>
<path d="M22.665 202.985H11.395V214.255H22.665V202.985Z" fill="black"/>
<path d="M33.935 202.985H22.665V214.255H33.935V202.985Z" fill="black"/>
<path d="M45.205 202.985H33.935V214.255H45.205V202.985Z" fill="black"/>
<path d="M56.475 202.985H45.205V214.255H56.475V202.985Z" fill="black"/>
<path d="M67.745 202.985H56.475V214.255H67.745V202.985Z" fill="black"/>
<path d="M79.015 202.985H67.745V214.255H79.015V202.985Z" fill="black"/>
<path d="M101.555 202.985H90.285V214.255H101.555V202.985Z" fill="black"/>
<path d="M146.635 202.985H135.365V214.255H146.635V202.985Z" fill="black"/>
<path d="M169.175 202.985H157.905V214.255H169.175L169.175 202.985Z" fill="black"/>
<path d="M191.715 202.985H180.445V214.255H191.715V202.985Z" fill="black"/>
<path d="M214.255 202.985H202.985V214.255H214.255V202.985Z" fill="black"/>
<path d="M236.795 202.985H225.525V214.255H236.795V202.985Z" fill="black"/>
<path d="M248.065 202.985H236.795V214.255H248.065V202.985Z" fill="black"/>
<path d="M11.395 214.255H0.125V225.525H11.395V214.255Z" fill="black"/>
<path d="M79.015 214.255H67.745V225.525H79.015V214.255Z" fill="black"/>
<path d="M124.095 214.255H112.825V225.525H124.095V214.255Z" fill="black"/>
<path d="M135.365 214.255H124.095V225.525H135.365V214.255Z" fill="black"/>
<path d="M146.635 214.255H135.365V225.525H146.635V214.255Z" fill="black"/>
<path d="M157.905 214.255H146.635V225.525H157.905V214.255Z" fill="black"/>
<path d="M169.175 214.255H157.905V225.525H169.175V214.255Z" fill="black"/>
<path d="M180.445 214.255H169.175V225.525H180.445V214.255Z" fill="black"/>
<path d="M191.715 214.255H180.445V225.525H191.715V214.255Z" fill="black"/>
<path d="M236.795 214.255H225.525V225.525H236.795V214.255Z" fill="black"/>
<path d="M259.335 214.255H248.065V225.525H259.335V214.255Z" fill="black"/>
<path d="M270.605 214.255H259.335V225.525H270.605V214.255Z" fill="black"/>
<path d="M281.875 214.255H270.605V225.525H281.875V214.255Z" fill="black"/>
<path d="M11.395 225.525H0.125V236.795H11.395V225.525Z" fill="black"/>
<path d="M33.935 225.525H22.665V236.795H33.935V225.525Z" fill="black"/>
<path d="M45.205 225.525H33.935V236.795H45.205V225.525Z" fill="black"/>
<path d="M56.475 225.525H45.205V236.795H56.475V225.525Z" fill="black"/>
<path d="M79.015 225.525H67.745V236.795H79.015V225.525Z" fill="black"/>
<path d="M112.825 225.525H101.555V236.795H112.825V225.525Z" fill="black"/>
<path d="M169.175 225.525H157.905V236.795H169.175V225.525Z" fill="black"/>
<path d="M180.445 225.525H169.175V236.795H180.445V225.525Z" fill="black"/>
<path d="M191.715 225.525H180.445V236.795H191.715V225.525Z" fill="black"/>
<path d="M202.985 225.525H191.715V236.795H202.985V225.525Z" fill="black"/>
<path d="M214.255 225.525H202.985V236.795H214.255V225.525Z" fill="black"/>
<path d="M225.525 225.525H214.255V236.795H225.525V225.525Z" fill="black"/>
<path d="M236.795 225.525H225.525V236.795H236.795V225.525Z" fill="black"/>
<path d="M281.875 225.525H270.605V236.795H281.875V225.525Z" fill="black"/>
<path d="M11.395 236.795H0.125V248.065H11.395V236.795Z" fill="black"/>
<path d="M33.935 236.795H22.665V248.065H33.935V236.795Z" fill="black"/>
<path d="M45.205 236.795H33.935V248.065H45.205V236.795Z" fill="black"/>
<path d="M56.475 236.795H45.205V248.065H56.475V236.795Z" fill="black"/>
<path d="M79.015 236.795H67.745V248.065H79.015V236.795Z" fill="black"/>
<path d="M101.555 236.795H90.285V248.065H101.555V236.795Z" fill="black"/>
<path d="M135.365 236.795H124.095V248.065H135.365V236.795Z" fill="black"/>
<path d="M157.905 236.795H146.635V248.065H157.905V236.795Z" fill="black"/>
<path d="M169.175 236.795H157.905V248.065H169.175V236.795Z" fill="black"/>
<path d="M180.445 236.795H169.175V248.065H180.445V236.795Z" fill="black"/>
<path d="M191.715 236.795H180.445V248.065H191.715V236.795Z" fill="black"/>
<path d="M225.525 236.795H214.255V248.065H225.525V236.795Z" fill="black"/>
<path d="M270.605 236.795H259.335V248.065H270.605V236.795Z" fill="black"/>
<path d="M281.875 236.795H270.605V248.065H281.875V236.795Z" fill="black"/>
<path d="M11.395 248.065H0.125V259.335H11.395V248.065Z" fill="black"/>
<path d="M33.935 248.065H22.665V259.335H33.935V248.065Z" fill="black"/>
<path d="M45.205 248.065H33.935V259.335H45.205V248.065Z" fill="black"/>
<path d="M56.475 248.065H45.205V259.335H56.475V248.065Z" fill="black"/>
<path d="M79.015 248.065H67.745V259.335H79.015V248.065Z" fill="black"/>
<path d="M101.555 248.065H90.285V259.335H101.555V248.065Z" fill="black"/>
<path d="M112.825 248.065H101.555V259.335H112.825V248.065Z" fill="black"/>
<path d="M124.095 248.065H112.825V259.335H124.095V248.065Z" fill="black"/>
<path d="M180.445 248.065H169.175L169.175 259.335H180.445V248.065Z" fill="black"/>
<path d="M191.715 248.065H180.445V259.335H191.715V248.065Z" fill="black"/>
<path d="M214.255 248.065H202.985V259.335H214.255V248.065Z" fill="black"/>
<path d="M236.795 248.065H225.525V259.335H236.795V248.065Z" fill="black"/>
<path d="M248.065 248.065H236.795V259.335H248.065V248.065Z" fill="black"/>
<path d="M259.335 248.065H248.065V259.335H259.335V248.065Z" fill="black"/>
<path d="M11.395 259.335H0.125V270.605H11.395V259.335Z" fill="black"/>
<path d="M79.015 259.335H67.745V270.605H79.015V259.335Z" fill="black"/>
<path d="M101.555 259.335H90.285V270.605H101.555V259.335Z" fill="black"/>
<path d="M112.825 259.335H101.555V270.605H112.825V259.335Z" fill="black"/>
<path d="M124.095 259.335H112.825V270.605H124.095V259.335Z" fill="black"/>
<path d="M169.175 259.335H157.905V270.605H169.175L169.175 259.335Z" fill="black"/>
<path d="M180.445 259.335H169.175L169.175 270.605H180.445V259.335Z" fill="black"/>
<path d="M225.525 259.335H214.255V270.605H225.525V259.335Z" fill="black"/>
<path d="M236.795 259.335H225.525V270.605H236.795V259.335Z" fill="black"/>
<path d="M11.395 270.605H0.125V281.875H11.395V270.605Z" fill="black"/>
<path d="M22.665 270.605H11.395V281.875H22.665V270.605Z" fill="black"/>
<path d="M33.935 270.605H22.665V281.875H33.935V270.605Z" fill="black"/>
<path d="M45.205 270.605H33.935V281.875H45.205V270.605Z" fill="black"/>
<path d="M56.475 270.605H45.205V281.875H56.475V270.605Z" fill="black"/>
<path d="M67.745 270.605H56.475V281.875H67.745V270.605Z" fill="black"/>
<path d="M79.015 270.605H67.745V281.875H79.015V270.605Z" fill="black"/>
<path d="M124.095 270.605H112.825V281.875H124.095V270.605Z" fill="black"/>
<path d="M169.175 270.605H157.905V281.875H169.175V270.605Z" fill="black"/>
<path d="M180.445 270.605H169.175V281.875H180.445V270.605Z" fill="black"/>
<path d="M214.255 270.605H202.985V281.875H214.255V270.605Z" fill="black"/>
<path d="M225.525 270.605H214.255V281.875H225.525V270.605Z" fill="black"/>
<path d="M248.065 270.605H236.795V281.875H248.065V270.605Z" fill="black"/>
<path d="M259.335 270.605H248.065V281.875H259.335V270.605Z" fill="black"/>
<path d="M270.605 270.605H259.335V281.875H270.605V270.605Z" fill="black"/>
<path d="M281.875 270.605H270.605V281.875H281.875V270.605Z" fill="black"/>
</svg>
