<svg width="24" height="25" viewBox="0 0 24 25" fill="none" xmlns="http://www.w3.org/2000/svg">
<g id="akar-icons:instagram-fill">
<path id="Vector" fill-rule="evenodd" clip-rule="evenodd" d="M7.465 1.39022C8.638 1.33622 9.012 1.32422 12 1.32422C14.988 1.32422 15.362 1.33722 16.534 1.39022C17.706 1.44322 18.506 1.63022 19.206 1.90122C19.939 2.17822 20.604 2.61122 21.154 3.17122C21.714 3.72022 22.146 4.38422 22.422 5.11822C22.694 5.81822 22.88 6.61822 22.934 7.78822C22.988 8.96322 23 9.33722 23 12.3242C23 15.3122 22.987 15.6862 22.934 16.8592C22.881 18.0292 22.694 18.8292 22.422 19.5292C22.146 20.2633 21.7133 20.9284 21.154 21.4782C20.604 22.0382 19.939 22.4702 19.206 22.7462C18.506 23.0182 17.706 23.2042 16.536 23.2582C15.362 23.3122 14.988 23.3242 12 23.3242C9.012 23.3242 8.638 23.3112 7.465 23.2582C6.295 23.2052 5.495 23.0182 4.795 22.7462C4.06092 22.4702 3.39582 22.0375 2.846 21.4782C2.28638 20.9289 1.85331 20.2641 1.577 19.5302C1.306 18.8302 1.12 18.0302 1.066 16.8602C1.012 15.6852 1 15.3112 1 12.3242C1 9.33622 1.013 8.96222 1.066 7.79022C1.119 6.61822 1.306 5.81822 1.577 5.11822C1.85372 4.3843 2.28712 3.71953 2.847 3.17022C3.39604 2.61072 4.06047 2.17766 4.794 1.90122C5.494 1.63022 6.294 1.44422 7.464 1.39022H7.465ZM16.445 3.37022C15.285 3.31722 14.937 3.30622 12 3.30622C9.063 3.30622 8.715 3.31722 7.555 3.37022C6.482 3.41922 5.9 3.59822 5.512 3.74922C4.999 3.94922 4.632 4.18622 4.247 4.57122C3.88205 4.92627 3.60118 5.3585 3.425 5.83622C3.274 6.22422 3.095 6.80622 3.046 7.87922C2.993 9.03922 2.982 9.38722 2.982 12.3242C2.982 15.2612 2.993 15.6092 3.046 16.7692C3.095 17.8422 3.274 18.4242 3.425 18.8122C3.601 19.2892 3.882 19.7222 4.247 20.0772C4.602 20.4422 5.035 20.7232 5.512 20.8992C5.9 21.0502 6.482 21.2292 7.555 21.2782C8.715 21.3312 9.062 21.3422 12 21.3422C14.938 21.3422 15.285 21.3312 16.445 21.2782C17.518 21.2292 18.1 21.0502 18.488 20.8992C19.001 20.6992 19.368 20.4622 19.753 20.0772C20.118 19.7222 20.399 19.2892 20.575 18.8122C20.726 18.4242 20.905 17.8422 20.954 16.7692C21.007 15.6092 21.018 15.2612 21.018 12.3242C21.018 9.38722 21.007 9.03922 20.954 7.87922C20.905 6.80622 20.726 6.22422 20.575 5.83622C20.375 5.32322 20.138 4.95622 19.753 4.57122C19.3979 4.20629 18.9657 3.92543 18.488 3.74922C18.1 3.59822 17.518 3.41922 16.445 3.37022ZM10.595 15.7152C11.3797 16.0419 12.2534 16.0859 13.0669 15.8399C13.8805 15.5939 14.5834 15.0731 15.0556 14.3665C15.5278 13.6598 15.7401 12.8111 15.656 11.9653C15.572 11.1196 15.197 10.3292 14.595 9.72922C14.2112 9.3457 13.7472 9.05203 13.2363 8.86937C12.7255 8.6867 12.1804 8.61958 11.6405 8.67283C11.1006 8.72609 10.5792 8.8984 10.1138 9.17735C9.64845 9.4563 9.25074 9.83496 8.9493 10.2861C8.64786 10.7372 8.45019 11.2495 8.37052 11.7862C8.29084 12.3229 8.33115 12.8705 8.48854 13.3897C8.64593 13.909 8.91648 14.3868 9.28072 14.7889C9.64496 15.1911 10.0938 15.5074 10.595 15.7152ZM8.002 8.32622C8.52702 7.80119 9.15032 7.38472 9.8363 7.10058C10.5223 6.81644 11.2575 6.67019 12 6.67019C12.7425 6.67019 13.4777 6.81644 14.1637 7.10058C14.8497 7.38472 15.473 7.80119 15.998 8.32622C16.523 8.85124 16.9395 9.47454 17.2236 10.1605C17.5078 10.8465 17.654 11.5817 17.654 12.3242C17.654 13.0667 17.5078 13.8019 17.2236 14.4879C16.9395 15.1739 16.523 15.7972 15.998 16.3222C14.9377 17.3826 13.4995 17.9782 12 17.9782C10.5005 17.9782 9.06234 17.3826 8.002 16.3222C6.94166 15.2619 6.34597 13.8238 6.34597 12.3242C6.34597 10.8247 6.94166 9.38655 8.002 8.32622ZM18.908 7.51222C19.0381 7.38949 19.1423 7.2419 19.2143 7.07819C19.2863 6.91449 19.3248 6.73799 19.3274 6.55915C19.33 6.38031 19.2967 6.20277 19.2295 6.03703C19.1622 5.87129 19.0624 5.72073 18.936 5.59426C18.8095 5.46779 18.6589 5.36798 18.4932 5.30074C18.3275 5.2335 18.1499 5.20019 17.9711 5.2028C17.7922 5.20541 17.6157 5.24387 17.452 5.31592C17.2883 5.38796 17.1407 5.49211 17.018 5.62222C16.7793 5.87525 16.6486 6.21134 16.6537 6.55915C16.6588 6.90696 16.7992 7.2391 17.0452 7.48506C17.2911 7.73103 17.6233 7.87145 17.9711 7.87652C18.3189 7.88159 18.655 7.75091 18.908 7.51222Z" fill="#212121"/>
</g>
</svg>
