<svg width="24" height="25" viewBox="0 0 24 25" fill="none" xmlns="http://www.w3.org/2000/svg">
<path fill-rule="evenodd" clip-rule="evenodd" d="M1 3.16222C1 2.67475 1.19365 2.20725 1.53834 1.86256C1.88303 1.51787 2.35053 1.32422 2.838 1.32422H21.16C21.4016 1.32383 21.6409 1.37108 21.8641 1.46329C22.0874 1.55549 22.2903 1.69083 22.4612 1.86156C22.6322 2.03228 22.7677 2.23504 22.8602 2.45823C22.9526 2.68142 23.0001 2.92065 23 3.16222V21.4842C23.0003 21.7258 22.9529 21.9651 22.8606 22.1884C22.7683 22.4117 22.6328 22.6146 22.462 22.7855C22.2912 22.9564 22.0884 23.092 21.8651 23.1844C21.6419 23.2768 21.4026 23.3244 21.161 23.3242H2.838C2.59655 23.3242 2.35746 23.2766 2.1344 23.1842C1.91134 23.0918 1.70867 22.9563 1.53798 22.7855C1.3673 22.6147 1.23193 22.412 1.13962 22.1889C1.04731 21.9658 0.999869 21.7267 1 21.4852V3.16222ZM9.708 9.71222H12.687V11.2082C13.117 10.3482 14.217 9.57422 15.87 9.57422C19.039 9.57422 19.79 11.2872 19.79 14.4302V20.2522H16.583V15.1462C16.583 13.3562 16.153 12.3462 15.061 12.3462C13.546 12.3462 12.916 13.4352 12.916 15.1462V20.2522H9.708V9.71222ZM4.208 20.1152H7.416V9.57422H4.208V20.1142V20.1152ZM7.875 6.13622C7.88105 6.41089 7.83217 6.68401 7.73124 6.93954C7.63031 7.19506 7.47935 7.42786 7.28723 7.62425C7.09511 7.82065 6.8657 7.97669 6.61246 8.08323C6.35921 8.18976 6.08724 8.24464 5.8125 8.24464C5.53776 8.24464 5.26579 8.18976 5.01255 8.08323C4.7593 7.97669 4.52989 7.82065 4.33777 7.62425C4.14565 7.42786 3.99469 7.19506 3.89376 6.93954C3.79283 6.68401 3.74395 6.41089 3.75 6.13622C3.76187 5.59708 3.98439 5.08401 4.36989 4.70691C4.75539 4.3298 5.27322 4.11864 5.8125 4.11864C6.35178 4.11864 6.86961 4.3298 7.25512 4.70691C7.64062 5.08401 7.86313 5.59708 7.875 6.13622Z" fill="#212121"/>
</svg>
